<svg width="500" height="200" viewBox="0 0 500 200" fill="none" xmlns="http://www.w3.org/2000/svg">
<rect width="500" height="200" rx="20" fill="white"/>
<rect x="107" y="78.5" width="42" height="43" rx="10" fill="black"/>
<rect x="109.25" y="79.75" width="37.5" height="35.5" rx="7.75" fill="white" stroke="black" stroke-width="0.5"/>
<path d="M131.332 104.5L125.952 98.28V104.5H123.672V90.6H125.952V96.94L131.352 90.6H134.212L128.172 97.56L134.312 104.5H131.332Z" fill="black"/>
<path d="M187.75 114L177.59 101.56V114H171.99V86.08H177.59V98.6L187.75 86.08H194.51L182.99 99.92L194.83 114H187.75ZM219.114 102.44C219.114 103.24 219.061 103.96 218.954 104.6H202.754C202.887 106.2 203.447 107.453 204.434 108.36C205.421 109.267 206.634 109.72 208.074 109.72C210.154 109.72 211.634 108.827 212.514 107.04H218.554C217.914 109.173 216.687 110.933 214.874 112.32C213.061 113.68 210.834 114.36 208.194 114.36C206.061 114.36 204.141 113.893 202.434 112.96C200.754 112 199.434 110.653 198.474 108.92C197.541 107.187 197.074 105.187 197.074 102.92C197.074 100.627 197.541 98.6133 198.474 96.88C199.407 95.1467 200.714 93.8133 202.394 92.88C204.074 91.9467 206.007 91.48 208.194 91.48C210.301 91.48 212.181 91.9333 213.834 92.84C215.514 93.7467 216.807 95.04 217.714 96.72C218.647 98.3733 219.114 100.28 219.114 102.44ZM213.314 100.84C213.287 99.4 212.767 98.2533 211.754 97.4C210.741 96.52 209.501 96.08 208.034 96.08C206.647 96.08 205.474 96.5067 204.514 97.36C203.581 98.1867 203.007 99.3467 202.794 100.84H213.314ZM244.401 91.84L230.681 124.48H224.721L229.521 113.44L220.641 91.84H226.921L232.641 107.32L238.441 91.84H244.401ZM256.66 108.84L262.26 91.84H268.22L260.02 114H253.22L245.06 91.84H251.06L256.66 108.84ZM274.205 89.2C273.219 89.2 272.392 88.8933 271.725 88.28C271.085 87.64 270.765 86.8533 270.765 85.92C270.765 84.9867 271.085 84.2133 271.725 83.6C272.392 82.96 273.219 82.64 274.205 82.64C275.192 82.64 276.005 82.96 276.645 83.6C277.312 84.2133 277.645 84.9867 277.645 85.92C277.645 86.8533 277.312 87.64 276.645 88.28C276.005 88.8933 275.192 89.2 274.205 89.2ZM276.965 91.84V114H271.365V91.84H276.965ZM287.618 109.4H297.498V114H281.258V109.48L290.938 96.44H281.298V91.84H297.378V96.36L287.618 109.4ZM320.605 108.84L326.205 91.84H332.165L323.965 114H317.165L309.005 91.84H315.005L320.605 108.84ZM336.431 107.68C338.991 105.547 341.031 103.773 342.551 102.36C344.071 100.92 345.337 99.4267 346.351 97.88C347.364 96.3333 347.871 94.8133 347.871 93.32C347.871 91.96 347.551 90.8933 346.911 90.12C346.271 89.3467 345.284 88.96 343.951 88.96C342.617 88.96 341.591 89.4133 340.871 90.32C340.151 91.2 339.777 92.4133 339.751 93.96H334.311C334.417 90.76 335.364 88.3333 337.151 86.68C338.964 85.0267 341.257 84.2 344.031 84.2C347.071 84.2 349.404 85.0133 351.031 86.64C352.657 88.24 353.471 90.36 353.471 93C353.471 95.08 352.911 97.0667 351.791 98.96C350.671 100.853 349.391 102.507 347.951 103.92C346.511 105.307 344.631 106.987 342.311 108.96H354.111V113.6H334.351V109.44L336.431 107.68ZM360.76 114.28C359.746 114.28 358.906 113.973 358.24 113.36C357.6 112.72 357.28 111.933 357.28 111C357.28 110.067 357.6 109.293 358.24 108.68C358.906 108.04 359.746 107.72 360.76 107.72C361.746 107.72 362.56 108.04 363.2 108.68C363.84 109.293 364.16 110.067 364.16 111C364.16 111.933 363.84 112.72 363.2 113.36C362.56 113.973 361.746 114.28 360.76 114.28ZM368.03 99.04C368.03 94.4267 368.857 90.8133 370.51 88.2C372.19 85.5867 374.963 84.28 378.83 84.28C382.697 84.28 385.457 85.5867 387.11 88.2C388.79 90.8133 389.63 94.4267 389.63 99.04C389.63 103.68 388.79 107.32 387.11 109.96C385.457 112.6 382.697 113.92 378.83 113.92C374.963 113.92 372.19 112.6 370.51 109.96C368.857 107.32 368.03 103.68 368.03 99.04ZM384.11 99.04C384.11 97.0667 383.977 95.4133 383.71 94.08C383.47 92.72 382.963 91.6133 382.19 90.76C381.443 89.9067 380.323 89.48 378.83 89.48C377.337 89.48 376.203 89.9067 375.43 90.76C374.683 91.6133 374.177 92.72 373.91 94.08C373.67 95.4133 373.55 97.0667 373.55 99.04C373.55 101.067 373.67 102.773 373.91 104.16C374.15 105.52 374.657 106.627 375.43 107.48C376.203 108.307 377.337 108.72 378.83 108.72C380.323 108.72 381.457 108.307 382.23 107.48C383.003 106.627 383.51 105.52 383.75 104.16C383.99 102.773 384.11 101.067 384.11 99.04Z" fill="black"/>
</svg>
