<svg width="596" height="556" viewBox="0 0 596 556" fill="none" xmlns="http://www.w3.org/2000/svg">
<rect x="0.5" y="0.5" width="595" height="555" rx="15.5" fill="#E6E6E6"/>
<rect x="254.5" y="10.5" width="80" height="3" rx="1.5" fill="#CCCCCC"/>
<path d="M572.215 15.7846C572.118 15.6876 572.054 15.5751 572.023 15.4471C571.992 15.3151 571.992 15.1852 572.023 15.0571C572.054 14.9291 572.116 14.8185 572.21 14.7254L574.94 11.9956L572.21 9.27174C572.116 9.17861 572.054 9.06802 572.023 8.93998C571.992 8.81193 571.992 8.68389 572.023 8.55584C572.054 8.42391 572.118 8.30945 572.215 8.21244C572.309 8.11932 572.419 8.05723 572.547 8.02619C572.679 7.99127 572.809 7.99127 572.937 8.02619C573.069 8.05723 573.182 8.11738 573.275 8.20662L576 10.9363L578.731 8.21244C578.824 8.11932 578.933 8.05723 579.057 8.02619C579.185 7.99127 579.313 7.99127 579.441 8.02619C579.573 8.05723 579.686 8.12126 579.779 8.21826C579.88 8.31139 579.946 8.42391 579.977 8.55584C580.008 8.68389 580.008 8.81193 579.977 8.93998C579.946 9.06802 579.882 9.17861 579.785 9.27174L577.066 11.9956L579.785 14.7254C579.882 14.8185 579.946 14.9291 579.977 15.0571C580.008 15.1852 580.008 15.3151 579.977 15.4471C579.946 15.5751 579.88 15.6857 579.779 15.7788C579.686 15.8758 579.573 15.9418 579.441 15.9767C579.313 16.0078 579.185 16.0078 579.057 15.9767C578.933 15.9457 578.824 15.8817 578.731 15.7846L576 13.0607L573.275 15.7905C573.182 15.8797 573.069 15.9418 572.937 15.9767C572.809 16.0078 572.679 16.0078 572.547 15.9767C572.419 15.9418 572.309 15.8778 572.215 15.7846Z" fill="#CCCCCC"/>
<path d="M34 34.5C32.62 34.5 31.5 33.38 31.5 32C31.5 30.62 32.62 29.5 34 29.5C35.38 29.5 36.5 30.62 36.5 32C36.5 33.38 35.38 34.5 34 34.5ZM34 30.5C33.1733 30.5 32.5 31.1733 32.5 32C32.5 32.8267 33.1733 33.5 34 33.5C34.8267 33.5 35.5 32.8267 35.5 32C35.5 31.1733 34.8267 30.5 34 30.5Z" fill="#545454"/>
<path d="M36.14 38.7933C36 38.7933 35.86 38.7733 35.72 38.74C35.3067 38.6267 34.96 38.3667 34.74 38L34.66 37.8667C34.2667 37.1867 33.7267 37.1867 33.3333 37.8667L33.26 37.9933C33.04 38.3667 32.6933 38.6333 32.28 38.74C31.86 38.8533 31.4267 38.7933 31.06 38.5733L29.9133 37.9133C29.5067 37.68 29.2133 37.3 29.0867 36.84C28.9667 36.38 29.0267 35.9067 29.26 35.5C29.4533 35.16 29.5067 34.8533 29.3933 34.66C29.28 34.4667 28.9933 34.3533 28.6 34.3533C27.6267 34.3533 26.8333 33.56 26.8333 32.5867V31.4133C26.8333 30.44 27.6267 29.6467 28.6 29.6467C28.9933 29.6467 29.28 29.5333 29.3933 29.34C29.5067 29.1467 29.46 28.84 29.26 28.5C29.0267 28.0933 28.9667 27.6133 29.0867 27.16C29.2067 26.7 29.5 26.32 29.9133 26.0867L31.0667 25.4267C31.82 24.98 32.8133 25.24 33.2667 26.0067L33.3467 26.14C33.74 26.82 34.28 26.82 34.6733 26.14L34.7467 26.0133C35.2 25.24 36.1933 24.98 36.9533 25.4333L38.1 26.0933C38.5067 26.3267 38.8 26.7067 38.9267 27.1667C39.0467 27.6267 38.9867 28.1 38.7533 28.5067C38.56 28.8467 38.5067 29.1533 38.62 29.3467C38.7333 29.54 39.02 29.6533 39.4133 29.6533C40.3867 29.6533 41.18 30.4467 41.18 31.42V32.5933C41.18 33.5667 40.3867 34.36 39.4133 34.36C39.02 34.36 38.7333 34.4733 38.62 34.6667C38.5067 34.86 38.5533 35.1667 38.7533 35.5067C38.9867 35.9133 39.0533 36.3933 38.9267 36.8467C38.8067 37.3067 38.5133 37.6867 38.1 37.92L36.9467 38.58C36.6933 38.72 36.42 38.7933 36.14 38.7933ZM34 36.3267C34.5933 36.3267 35.1467 36.7 35.5267 37.36L35.6 37.4867C35.68 37.6267 35.8133 37.7267 35.9733 37.7667C36.1333 37.8067 36.2933 37.7867 36.4267 37.7067L37.58 37.04C37.7533 36.94 37.8867 36.7733 37.94 36.5733C37.9933 36.3733 37.9667 36.1667 37.8667 35.9933C37.4867 35.34 37.44 34.6667 37.7333 34.1533C38.0267 33.64 38.6333 33.3467 39.3933 33.3467C39.82 33.3467 40.16 33.0067 40.16 32.58V31.4067C40.16 30.9867 39.82 30.64 39.3933 30.64C38.6333 30.64 38.0267 30.3467 37.7333 29.8333C37.44 29.32 37.4867 28.6467 37.8667 27.9933C37.9667 27.82 37.9933 27.6133 37.94 27.4133C37.8867 27.2133 37.76 27.0533 37.5867 26.9467L36.4333 26.2867C36.1467 26.1133 35.7667 26.2133 35.5933 26.5067L35.52 26.6333C35.14 27.2933 34.5867 27.6667 33.9933 27.6667C33.4 27.6667 32.8467 27.2933 32.4667 26.6333L32.3933 26.5C32.2267 26.22 31.8533 26.12 31.5667 26.2867L30.4133 26.9533C30.24 27.0533 30.1067 27.22 30.0533 27.42C30 27.62 30.0267 27.8267 30.1267 28C30.5067 28.6533 30.5533 29.3267 30.26 29.84C29.9667 30.3533 29.36 30.6467 28.6 30.6467C28.1733 30.6467 27.8333 30.9867 27.8333 31.4133V32.5867C27.8333 33.0067 28.1733 33.3533 28.6 33.3533C29.36 33.3533 29.9667 33.6467 30.26 34.16C30.5533 34.6733 30.5067 35.3467 30.1267 36C30.0267 36.1733 30 36.38 30.0533 36.58C30.1067 36.78 30.2333 36.94 30.4067 37.0467L31.56 37.7067C31.7 37.7933 31.8667 37.8133 32.02 37.7733C32.18 37.7333 32.3133 37.6267 32.4 37.4867L32.4733 37.36C32.8533 36.7067 33.4067 36.3267 34 36.3267Z" fill="#545454"/>
<path d="M34 71.1667C30.9667 71.1667 28.5 68.7 28.5 65.6667V62.3334C28.5 59.3 30.9667 56.8334 34 56.8334C37.0333 56.8334 39.5 59.3 39.5 62.3334V65.6667C39.5 68.7 37.0333 71.1667 34 71.1667ZM34 57.8334C31.52 57.8334 29.5 59.8534 29.5 62.3334V65.6667C29.5 68.1467 31.52 70.1667 34 70.1667C36.48 70.1667 38.5 68.1467 38.5 65.6667V62.3334C38.5 59.8534 36.48 57.8334 34 57.8334Z" fill="#545454"/>
<path d="M34 63.8333C33.1733 63.8333 32.5 63.16 32.5 62.3333V61C32.5 60.1733 33.1733 59.5 34 59.5C34.8267 59.5 35.5 60.1733 35.5 61V62.3333C35.5 63.16 34.8267 63.8333 34 63.8333ZM34 60.5C33.7267 60.5 33.5 60.7267 33.5 61V62.3333C33.5 62.6067 33.7267 62.8333 34 62.8333C34.2733 62.8333 34.5 62.6067 34.5 62.3333V61C34.5 60.7267 34.2733 60.5 34 60.5Z" fill="#545454"/>
<path d="M34 60.5C33.7267 60.5 33.5 60.2734 33.5 60V57.3334C33.5 57.06 33.7267 56.8334 34 56.8334C34.2733 56.8334 34.5 57.06 34.5 57.3334V60C34.5 60.2734 34.2733 60.5 34 60.5Z" fill="#545454"/>
<rect x="16" y="88" width="36" height="36" rx="8" fill="#F2F2F2"/>
<path d="M37 111.833H31C30.5 111.833 30.1333 111.813 29.82 111.767C27.6067 111.527 27.1667 110.2 27.1667 108V104C27.1667 101.8 27.6067 100.473 29.84 100.227C30.1333 100.187 30.5 100.167 31 100.167H37C37.5 100.167 37.8667 100.187 38.18 100.233C40.3933 100.473 40.8333 101.8 40.8333 104V108C40.8333 110.2 40.3933 111.527 38.16 111.773C37.8667 111.813 37.5 111.833 37 111.833ZM31 101.167C30.5467 101.167 30.2267 101.187 29.9667 101.22C28.6133 101.373 28.1667 101.793 28.1667 104V108C28.1667 110.207 28.6133 110.627 29.9467 110.78C30.2267 110.82 30.5467 110.833 31 110.833H37C37.4533 110.833 37.7733 110.813 38.0333 110.78C39.3867 110.633 39.8333 110.207 39.8333 108V104C39.8333 101.793 39.3867 101.373 38.0533 101.22C37.7733 101.18 37.4533 101.167 37 101.167H31Z" fill="black"/>
<path d="M37.3333 105.167H35C34.7267 105.167 34.5 104.94 34.5 104.667C34.5 104.393 34.7267 104.167 35 104.167H37.3333C37.6067 104.167 37.8333 104.393 37.8333 104.667C37.8333 104.94 37.6067 105.167 37.3333 105.167Z" fill="black"/>
<path d="M32.7333 105.333C32.3667 105.333 32.0667 105.033 32.0667 104.667C32.0667 104.3 32.36 104 32.7333 104H32.74C33.1067 104 33.4067 104.3 33.4067 104.667C33.4067 105.033 33.1067 105.333 32.7333 105.333Z" fill="black"/>
<path d="M30.7333 105.333C30.3667 105.333 30.0667 105.033 30.0667 104.667C30.0667 104.3 30.36 104 30.7333 104C31.1 104 31.4 104.3 31.4 104.667C31.4 105.033 31.1067 105.333 30.7333 105.333Z" fill="black"/>
<path d="M37.3333 108.833H30.68C30.4067 108.833 30.1733 108.607 30.1733 108.333C30.1733 108.06 30.3933 107.833 30.6667 107.833H37.3333C37.6067 107.833 37.8333 108.06 37.8333 108.333C37.8333 108.607 37.6067 108.833 37.3333 108.833Z" fill="black"/>
<path d="M37.7067 151.98H30.2933C27.64 151.98 26.8333 151.173 26.8333 148.52V144.293C26.8333 141.64 27.64 140.833 30.2933 140.833H37.7C40.3533 140.833 41.16 141.64 41.16 144.293V148.513C41.1667 151.173 40.36 151.98 37.7067 151.98ZM30.2933 141.833C28.2 141.833 27.8333 142.2 27.8333 144.293V148.513C27.8333 150.607 28.2 150.973 30.2933 150.973H37.7C39.7933 150.973 40.16 150.607 40.16 148.513V144.293C40.16 142.2 39.7933 141.833 37.7 141.833H30.2933Z" fill="#545454"/>
<path d="M34 155.167C33.7267 155.167 33.5 154.94 33.5 154.667V151.48C33.5 151.207 33.7267 150.98 34 150.98C34.2733 150.98 34.5 151.207 34.5 151.48V154.667C34.5 154.94 34.2733 155.167 34 155.167Z" fill="#545454"/>
<path d="M40.6667 149.167H27.3333C27.06 149.167 26.8333 148.94 26.8333 148.667C26.8333 148.393 27.06 148.167 27.3333 148.167H40.6667C40.94 148.167 41.1667 148.393 41.1667 148.667C41.1667 148.94 40.94 149.167 40.6667 149.167Z" fill="#545454"/>
<path d="M37 155.167H31C30.7267 155.167 30.5 154.94 30.5 154.667C30.5 154.393 30.7267 154.167 31 154.167H37C37.2733 154.167 37.5 154.393 37.5 154.667C37.5 154.94 37.2733 155.167 37 155.167Z" fill="#545454"/>
<path d="M37.6934 520.04C36.5134 520.04 35.5534 519.08 35.5534 517.9C35.5534 516.72 36.5134 515.76 37.6934 515.76C38.8734 515.76 39.8334 516.72 39.8334 517.9C39.8334 519.08 38.8734 520.04 37.6934 520.04ZM37.6934 516.753C37.0667 516.753 36.5534 517.267 36.5534 517.893C36.5534 518.52 37.0667 519.033 37.6934 519.033C38.32 519.033 38.8334 518.52 38.8334 517.893C38.8334 517.267 38.32 516.753 37.6934 516.753Z" fill="#545454"/>
<path d="M30.3067 520.04C29.1267 520.04 28.1667 519.08 28.1667 517.9C28.1667 516.72 29.1267 515.76 30.3067 515.76C31.4867 515.76 32.4467 516.72 32.4467 517.9C32.4467 519.08 31.4867 520.04 30.3067 520.04ZM30.3067 516.753C29.68 516.753 29.1667 517.267 29.1667 517.893C29.1667 518.52 29.68 519.033 30.3067 519.033C30.9333 519.033 31.4467 518.52 31.4467 517.893C31.4467 517.267 30.94 516.753 30.3067 516.753Z" fill="#545454"/>
<path d="M37.6934 528.247C36.5134 528.247 35.5534 527.287 35.5534 526.107C35.5534 524.927 36.5134 523.967 37.6934 523.967C38.8734 523.967 39.8334 524.927 39.8334 526.107C39.8334 527.287 38.8734 528.247 37.6934 528.247ZM37.6934 524.96C37.0667 524.96 36.5534 525.473 36.5534 526.1C36.5534 526.727 37.0667 527.24 37.6934 527.24C38.32 527.24 38.8334 526.727 38.8334 526.1C38.8334 525.473 38.32 524.96 37.6934 524.96Z" fill="#545454"/>
<path d="M30.3067 528.247C29.1267 528.247 28.1667 527.287 28.1667 526.107C28.1667 524.927 29.1267 523.967 30.3067 523.967C31.4867 523.967 32.4467 524.927 32.4467 526.107C32.4467 527.287 31.4867 528.247 30.3067 528.247ZM30.3067 524.96C29.68 524.96 29.1667 525.473 29.1667 526.1C29.1667 526.727 29.68 527.24 30.3067 527.24C30.9333 527.24 31.4467 526.727 31.4467 526.1C31.4467 525.473 30.94 524.96 30.3067 524.96Z" fill="#545454"/>
<g clip-path="url(#clip0_204_1089)">
<rect x="68" y="24" width="512" height="512" rx="16" fill="#F2F2F2"/>
<path d="M93.376 68.5V57.332H98.176C99.2107 57.332 100.011 57.636 100.576 58.244C101.141 58.852 101.424 59.668 101.424 60.692C101.424 61.716 101.141 62.532 100.576 63.14C100.011 63.748 99.2107 64.052 98.176 64.052H95.184V68.5H93.376ZM95.184 62.468H98.064C98.5227 62.468 98.88 62.3507 99.136 62.116C99.392 61.8707 99.52 61.524 99.52 61.076V60.308C99.52 59.86 99.392 59.5187 99.136 59.284C98.88 59.0387 98.5227 58.916 98.064 58.916H95.184V62.468ZM103.123 68.5V60.18H104.867V61.78H104.947C105.064 61.3533 105.31 60.98 105.683 60.66C106.056 60.34 106.574 60.18 107.235 60.18H107.699V61.86H107.011C106.318 61.86 105.784 61.972 105.411 62.196C105.048 62.42 104.867 62.7507 104.867 63.188V68.5H103.123ZM112.434 68.692C111.837 68.692 111.303 68.5907 110.834 68.388C110.365 68.1853 109.965 67.8973 109.634 67.524C109.303 67.14 109.047 66.6813 108.866 66.148C108.695 65.604 108.61 65.0013 108.61 64.34C108.61 63.6787 108.695 63.0813 108.866 62.548C109.047 62.004 109.303 61.5453 109.634 61.172C109.965 60.788 110.365 60.4947 110.834 60.292C111.303 60.0893 111.837 59.988 112.434 59.988C113.042 59.988 113.575 60.0947 114.034 60.308C114.503 60.5213 114.893 60.82 115.202 61.204C115.511 61.5773 115.741 62.0147 115.89 62.516C116.05 63.0173 116.13 63.556 116.13 64.132V64.788H110.418V65.06C110.418 65.7 110.605 66.228 110.978 66.644C111.362 67.0493 111.906 67.252 112.61 67.252C113.122 67.252 113.554 67.14 113.906 66.916C114.258 66.692 114.557 66.388 114.802 66.004L115.826 67.012C115.517 67.524 115.069 67.9347 114.482 68.244C113.895 68.5427 113.213 68.692 112.434 68.692ZM112.434 61.348C112.135 61.348 111.858 61.4013 111.602 61.508C111.357 61.6147 111.143 61.764 110.962 61.956C110.791 62.148 110.658 62.3773 110.562 62.644C110.466 62.9107 110.418 63.204 110.418 63.524V63.636H114.29V63.476C114.29 62.836 114.125 62.324 113.794 61.94C113.463 61.5453 113.01 61.348 112.434 61.348ZM120.701 68.692C119.911 68.692 119.25 68.5533 118.717 68.276C118.183 67.9987 117.719 67.6147 117.325 67.124L118.445 66.1C118.754 66.4733 119.095 66.7667 119.469 66.98C119.853 67.1827 120.295 67.284 120.797 67.284C121.309 67.284 121.687 67.188 121.933 66.996C122.189 66.7933 122.317 66.516 122.317 66.164C122.317 65.8973 122.226 65.6733 122.045 65.492C121.874 65.3 121.57 65.1773 121.133 65.124L120.365 65.028C119.511 64.9213 118.839 64.676 118.349 64.292C117.869 63.8973 117.629 63.316 117.629 62.548C117.629 62.1427 117.703 61.7853 117.853 61.476C118.002 61.156 118.21 60.8893 118.477 60.676C118.754 60.452 119.079 60.2813 119.453 60.164C119.837 60.0467 120.258 59.988 120.717 59.988C121.463 59.988 122.071 60.1053 122.541 60.34C123.021 60.5747 123.447 60.9 123.821 61.316L122.749 62.34C122.535 62.084 122.253 61.8653 121.901 61.684C121.559 61.492 121.165 61.396 120.717 61.396C120.237 61.396 119.879 61.492 119.645 61.684C119.421 61.876 119.309 62.1267 119.309 62.436C119.309 62.756 119.41 62.996 119.613 63.156C119.815 63.316 120.141 63.4333 120.589 63.508L121.357 63.604C122.274 63.7427 122.941 64.0147 123.357 64.42C123.783 64.8147 123.997 65.348 123.997 66.02C123.997 66.4253 123.917 66.7933 123.757 67.124C123.607 67.444 123.389 67.7213 123.101 67.956C122.813 68.1907 122.466 68.372 122.061 68.5C121.655 68.628 121.202 68.692 120.701 68.692ZM129.231 68.692C128.633 68.692 128.1 68.5907 127.631 68.388C127.161 68.1853 126.761 67.8973 126.431 67.524C126.1 67.14 125.844 66.6813 125.663 66.148C125.492 65.604 125.407 65.0013 125.407 64.34C125.407 63.6787 125.492 63.0813 125.663 62.548C125.844 62.004 126.1 61.5453 126.431 61.172C126.761 60.788 127.161 60.4947 127.631 60.292C128.1 60.0893 128.633 59.988 129.231 59.988C129.839 59.988 130.372 60.0947 130.831 60.308C131.3 60.5213 131.689 60.82 131.999 61.204C132.308 61.5773 132.537 62.0147 132.687 62.516C132.847 63.0173 132.927 63.556 132.927 64.132V64.788H127.215V65.06C127.215 65.7 127.401 66.228 127.775 66.644C128.159 67.0493 128.703 67.252 129.407 67.252C129.919 67.252 130.351 67.14 130.703 66.916C131.055 66.692 131.353 66.388 131.599 66.004L132.623 67.012C132.313 67.524 131.865 67.9347 131.279 68.244C130.692 68.5427 130.009 68.692 129.231 68.692ZM129.231 61.348C128.932 61.348 128.655 61.4013 128.399 61.508C128.153 61.6147 127.94 61.764 127.759 61.956C127.588 62.148 127.455 62.3773 127.359 62.644C127.263 62.9107 127.215 63.204 127.215 63.524V63.636H131.087V63.476C131.087 62.836 130.921 62.324 130.591 61.94C130.26 61.5453 129.807 61.348 129.231 61.348ZM137.161 68.5C136.553 68.5 136.095 68.3453 135.785 68.036C135.476 67.716 135.321 67.268 135.321 66.692V61.604H134.025V60.18H134.729C135.017 60.18 135.215 60.116 135.321 59.988C135.439 59.86 135.497 59.652 135.497 59.364V57.908H137.065V60.18H138.809V61.604H137.065V67.076H138.681V68.5H137.161Z" fill="#1A1A1A"/>
<rect x="469.5" y="48.5" width="86" height="27" rx="9.5" fill="white"/>
<path d="M479.72 67V66.16H480.896V59.464H479.72V58.624H483.08V59.464H481.904V66.16H483.08V67H479.72ZM486.685 67.144C486.109 67.144 485.625 67.036 485.233 66.82C484.849 66.596 484.517 66.3 484.237 65.932L484.921 65.38C485.161 65.684 485.429 65.92 485.725 66.088C486.021 66.248 486.365 66.328 486.757 66.328C487.165 66.328 487.481 66.24 487.705 66.064C487.937 65.888 488.053 65.64 488.053 65.32C488.053 65.08 487.973 64.876 487.813 64.708C487.661 64.532 487.381 64.412 486.973 64.348L486.481 64.276C486.193 64.236 485.929 64.176 485.689 64.096C485.449 64.008 485.237 63.896 485.053 63.76C484.877 63.616 484.737 63.44 484.633 63.232C484.537 63.024 484.489 62.776 484.489 62.488C484.489 62.184 484.545 61.92 484.657 61.696C484.769 61.464 484.921 61.272 485.113 61.12C485.313 60.968 485.549 60.856 485.821 60.784C486.093 60.704 486.385 60.664 486.697 60.664C487.201 60.664 487.621 60.752 487.957 60.928C488.301 61.104 488.601 61.348 488.857 61.66L488.221 62.236C488.085 62.044 487.885 61.872 487.621 61.72C487.357 61.56 487.025 61.48 486.625 61.48C486.225 61.48 485.921 61.568 485.713 61.744C485.513 61.912 485.413 62.144 485.413 62.44C485.413 62.744 485.513 62.964 485.713 63.1C485.921 63.236 486.217 63.336 486.601 63.4L487.081 63.472C487.769 63.576 488.257 63.776 488.545 64.072C488.833 64.36 488.977 64.74 488.977 65.212C488.977 65.812 488.773 66.284 488.365 66.628C487.957 66.972 487.397 67.144 486.685 67.144ZM493.012 67.144C492.596 67.144 492.216 67.068 491.872 66.916C491.528 66.764 491.232 66.548 490.984 66.268C490.744 65.98 490.556 65.64 490.42 65.248C490.284 64.848 490.216 64.4 490.216 63.904C490.216 63.416 490.284 62.972 490.42 62.572C490.556 62.172 490.744 61.832 490.984 61.552C491.232 61.264 491.528 61.044 491.872 60.892C492.216 60.74 492.596 60.664 493.012 60.664C493.428 60.664 493.804 60.74 494.14 60.892C494.484 61.044 494.78 61.264 495.028 61.552C495.276 61.832 495.468 62.172 495.604 62.572C495.74 62.972 495.808 63.416 495.808 63.904C495.808 64.4 495.74 64.848 495.604 65.248C495.468 65.64 495.276 65.98 495.028 66.268C494.78 66.548 494.484 66.764 494.14 66.916C493.804 67.068 493.428 67.144 493.012 67.144ZM493.012 66.292C493.532 66.292 493.956 66.132 494.284 65.812C494.612 65.492 494.776 65.004 494.776 64.348V63.46C494.776 62.804 494.612 62.316 494.284 61.996C493.956 61.676 493.532 61.516 493.012 61.516C492.492 61.516 492.068 61.676 491.74 61.996C491.412 62.316 491.248 62.804 491.248 63.46V64.348C491.248 65.004 491.412 65.492 491.74 65.812C492.068 66.132 492.492 66.292 493.012 66.292ZM497.387 67V60.808H498.347V61.816H498.395C498.467 61.656 498.547 61.508 498.635 61.372C498.731 61.228 498.843 61.104 498.971 61C499.107 60.896 499.263 60.816 499.439 60.76C499.615 60.696 499.823 60.664 500.063 60.664C500.471 60.664 500.847 60.764 501.191 60.964C501.535 61.156 501.791 61.476 501.959 61.924H501.983C502.095 61.588 502.303 61.296 502.607 61.048C502.919 60.792 503.339 60.664 503.867 60.664C504.499 60.664 504.991 60.872 505.343 61.288C505.703 61.696 505.883 62.276 505.883 63.028V67H504.923V63.196C504.923 62.644 504.815 62.228 504.599 61.948C504.383 61.668 504.039 61.528 503.567 61.528C503.375 61.528 503.191 61.552 503.015 61.6C502.847 61.648 502.695 61.72 502.559 61.816C502.423 61.912 502.315 62.036 502.235 62.188C502.155 62.332 502.115 62.504 502.115 62.704V67H501.155V63.196C501.155 62.644 501.047 62.228 500.831 61.948C500.615 61.668 500.279 61.528 499.823 61.528C499.631 61.528 499.447 61.552 499.271 61.6C499.095 61.648 498.939 61.72 498.803 61.816C498.667 61.912 498.555 62.036 498.467 62.188C498.387 62.332 498.347 62.504 498.347 62.704V67H497.387ZM510.192 67.144C509.768 67.144 509.384 67.068 509.04 66.916C508.704 66.764 508.412 66.548 508.164 66.268C507.924 65.98 507.736 65.64 507.6 65.248C507.472 64.848 507.408 64.4 507.408 63.904C507.408 63.416 507.472 62.972 507.6 62.572C507.736 62.172 507.924 61.832 508.164 61.552C508.412 61.264 508.704 61.044 509.04 60.892C509.384 60.74 509.768 60.664 510.192 60.664C510.608 60.664 510.98 60.74 511.308 60.892C511.636 61.044 511.916 61.256 512.148 61.528C512.38 61.792 512.556 62.108 512.676 62.476C512.804 62.844 512.868 63.248 512.868 63.688V64.144H508.416V64.432C508.416 64.696 508.456 64.944 508.536 65.176C508.624 65.4 508.744 65.596 508.896 65.764C509.056 65.932 509.248 66.064 509.472 66.16C509.704 66.256 509.964 66.304 510.252 66.304C510.644 66.304 510.984 66.212 511.272 66.028C511.568 65.844 511.796 65.58 511.956 65.236L512.64 65.728C512.44 66.152 512.128 66.496 511.704 66.76C511.28 67.016 510.776 67.144 510.192 67.144ZM510.192 61.468C509.928 61.468 509.688 61.516 509.472 61.612C509.256 61.7 509.068 61.828 508.908 61.996C508.756 62.164 508.636 62.364 508.548 62.596C508.46 62.82 508.416 63.068 508.416 63.34V63.424H511.836V63.292C511.836 62.74 511.684 62.3 511.38 61.972C511.084 61.636 510.688 61.468 510.192 61.468ZM515.818 67C515.482 67 515.226 66.908 515.05 66.724C514.882 66.532 514.798 66.284 514.798 65.98V61.648H513.778V60.808H514.354C514.562 60.808 514.702 60.768 514.774 60.688C514.854 60.6 514.894 60.452 514.894 60.244V59.092H515.758V60.808H517.114V61.648H515.758V66.16H517.018V67H515.818ZM518.657 67V60.808H519.617V61.948H519.677C519.789 61.652 519.989 61.388 520.277 61.156C520.565 60.924 520.961 60.808 521.465 60.808H521.837V61.768H521.273C520.753 61.768 520.345 61.868 520.049 62.068C519.761 62.26 519.617 62.504 519.617 62.8V67H518.657ZM523.543 59.356C523.335 59.356 523.183 59.308 523.087 59.212C522.999 59.108 522.955 58.976 522.955 58.816V58.66C522.955 58.5 522.999 58.372 523.087 58.276C523.183 58.172 523.335 58.12 523.543 58.12C523.751 58.12 523.899 58.172 523.987 58.276C524.083 58.372 524.131 58.5 524.131 58.66V58.816C524.131 58.976 524.083 59.108 523.987 59.212C523.899 59.308 523.751 59.356 523.543 59.356ZM523.063 60.808H524.023V67H523.063V60.808ZM528.367 67.144C527.935 67.144 527.547 67.068 527.203 66.916C526.859 66.764 526.567 66.548 526.327 66.268C526.095 65.988 525.915 65.648 525.787 65.248C525.667 64.848 525.607 64.4 525.607 63.904C525.607 63.408 525.667 62.96 525.787 62.56C525.915 62.16 526.095 61.82 526.327 61.54C526.567 61.26 526.859 61.044 527.203 60.892C527.547 60.74 527.935 60.664 528.367 60.664C528.983 60.664 529.475 60.8 529.843 61.072C530.219 61.336 530.499 61.684 530.683 62.116L529.879 62.524C529.767 62.204 529.583 61.956 529.327 61.78C529.071 61.604 528.751 61.516 528.367 61.516C528.079 61.516 527.827 61.564 527.611 61.66C527.395 61.748 527.215 61.876 527.071 62.044C526.927 62.204 526.819 62.4 526.747 62.632C526.675 62.856 526.639 63.104 526.639 63.376V64.432C526.639 64.976 526.783 65.424 527.071 65.776C527.367 66.12 527.799 66.292 528.367 66.292C529.143 66.292 529.703 65.932 530.047 65.212L530.743 65.68C530.543 66.128 530.243 66.484 529.843 66.748C529.451 67.012 528.959 67.144 528.367 67.144Z" fill="black"/>
<path d="M543 63.4879C542.758 63.4879 542.515 63.3944 542.332 63.211L540.075 60.9543C539.975 60.8539 539.975 60.6877 540.075 60.5874C540.176 60.487 540.342 60.487 540.442 60.5874L542.699 62.8441C542.865 63.0102 543.135 63.0102 543.301 62.8441L545.558 60.5874C545.658 60.487 545.824 60.487 545.925 60.5874C546.025 60.6877 546.025 60.8539 545.925 60.9543L543.668 63.211C543.485 63.3944 543.242 63.4879 543 63.4879Z" fill="#292D32"/>
<rect x="469.5" y="48.5" width="86" height="27" rx="9.5" stroke="#E6E6E6"/>
<path d="M556 91.5H92V92.5H556V91.5Z" fill="#CCCCCC" mask="url(#path-25-inside-1_204_1089)"/>
<path d="M94.3614 122.5C94.2737 122.5 94.186 122.468 94.1168 122.398C93.983 122.265 93.983 122.043 94.1168 121.909L97.1253 118.901C97.3468 118.679 97.3468 118.319 97.1253 118.098L94.1168 115.089C93.983 114.956 93.983 114.734 94.1168 114.6C94.2506 114.467 94.4721 114.467 94.6059 114.6L97.6144 117.609C97.8498 117.844 97.9836 118.163 97.9836 118.499C97.9836 118.836 97.8544 119.155 97.6144 119.39L94.6059 122.398C94.5367 122.463 94.449 122.5 94.3614 122.5Z" fill="#292D32"/>
<path d="M113.52 115.432V125H111.712V115.432H108.384V113.832H116.848V115.432H113.52ZM123.008 116.68H124.688L121.184 126.648C121.088 126.925 120.976 127.16 120.848 127.352C120.731 127.555 120.587 127.715 120.416 127.832C120.256 127.96 120.059 128.051 119.824 128.104C119.59 128.168 119.312 128.2 118.992 128.2H117.984V126.776H119.392L119.872 125.368L116.848 116.68H118.592L120.256 121.576L120.736 123.384H120.816L121.344 121.576L123.008 116.68ZM126.123 116.68H127.867V118.056H127.947C128.128 117.555 128.422 117.171 128.827 116.904C129.243 116.627 129.728 116.488 130.283 116.488C131.339 116.488 132.155 116.872 132.731 117.64C133.307 118.397 133.595 119.464 133.595 120.84C133.595 122.216 133.307 123.288 132.731 124.056C132.155 124.813 131.339 125.192 130.283 125.192C129.728 125.192 129.243 125.053 128.827 124.776C128.422 124.499 128.128 124.115 127.947 123.624H127.867V128.2H126.123V116.68ZM129.755 123.688C130.363 123.688 130.848 123.496 131.211 123.112C131.574 122.717 131.755 122.2 131.755 121.56V120.12C131.755 119.48 131.574 118.968 131.211 118.584C130.848 118.189 130.363 117.992 129.755 117.992C129.222 117.992 128.774 118.125 128.411 118.392C128.048 118.648 127.867 118.989 127.867 119.416V122.264C127.867 122.691 128.048 123.037 128.411 123.304C128.774 123.56 129.222 123.688 129.755 123.688ZM138.856 125.192C138.28 125.192 137.752 125.091 137.272 124.888C136.802 124.685 136.402 124.397 136.072 124.024C135.741 123.64 135.485 123.181 135.304 122.648C135.122 122.104 135.032 121.501 135.032 120.84C135.032 120.179 135.122 119.581 135.304 119.048C135.485 118.504 135.741 118.045 136.072 117.672C136.402 117.288 136.802 116.995 137.272 116.792C137.752 116.589 138.28 116.488 138.856 116.488C139.432 116.488 139.954 116.589 140.424 116.792C140.904 116.995 141.309 117.288 141.64 117.672C141.97 118.045 142.226 118.504 142.408 119.048C142.589 119.581 142.68 120.179 142.68 120.84C142.68 121.501 142.589 122.104 142.408 122.648C142.226 123.181 141.97 123.64 141.64 124.024C141.309 124.397 140.904 124.685 140.424 124.888C139.954 125.091 139.432 125.192 138.856 125.192ZM138.856 123.752C139.453 123.752 139.933 123.571 140.296 123.208C140.658 122.835 140.84 122.28 140.84 121.544V120.136C140.84 119.4 140.658 118.851 140.296 118.488C139.933 118.115 139.453 117.928 138.856 117.928C138.258 117.928 137.778 118.115 137.416 118.488C137.053 118.851 136.872 119.4 136.872 120.136V121.544C136.872 122.28 137.053 122.835 137.416 123.208C137.778 123.571 138.258 123.752 138.856 123.752ZM151.919 125.784C151.919 126.648 151.588 127.299 150.927 127.736C150.266 128.173 149.188 128.392 147.695 128.392C147.012 128.392 146.431 128.344 145.951 128.248C145.482 128.163 145.092 128.035 144.783 127.864C144.484 127.693 144.266 127.485 144.127 127.24C143.988 126.995 143.919 126.712 143.919 126.392C143.919 125.933 144.042 125.576 144.287 125.32C144.543 125.064 144.895 124.888 145.343 124.792V124.616C144.714 124.413 144.399 123.987 144.399 123.336C144.399 122.909 144.543 122.584 144.831 122.36C145.119 122.125 145.466 121.96 145.871 121.864V121.8C145.38 121.565 145.002 121.24 144.735 120.824C144.479 120.397 144.351 119.901 144.351 119.336C144.351 118.483 144.634 117.795 145.199 117.272C145.775 116.749 146.596 116.488 147.663 116.488C148.25 116.488 148.751 116.573 149.167 116.744V116.52C149.167 116.147 149.252 115.859 149.423 115.656C149.604 115.443 149.882 115.336 150.255 115.336H151.535V116.744H149.839V117.08C150.212 117.325 150.5 117.645 150.703 118.04C150.906 118.424 151.007 118.856 151.007 119.336C151.007 120.179 150.719 120.861 150.143 121.384C149.567 121.896 148.746 122.152 147.679 122.152C147.274 122.152 146.911 122.109 146.591 122.024C146.378 122.099 146.191 122.205 146.031 122.344C145.871 122.472 145.791 122.643 145.791 122.856C145.791 123.08 145.892 123.24 146.095 123.336C146.298 123.432 146.586 123.48 146.959 123.48H149.007C150.031 123.48 150.772 123.688 151.231 124.104C151.69 124.509 151.919 125.069 151.919 125.784ZM150.287 125.976C150.287 125.688 150.175 125.459 149.951 125.288C149.738 125.117 149.343 125.032 148.767 125.032H145.951C145.567 125.256 145.375 125.576 145.375 125.992C145.375 126.333 145.508 126.605 145.775 126.808C146.052 127.021 146.516 127.128 147.167 127.128H148.255C149.61 127.128 150.287 126.744 150.287 125.976ZM147.679 120.888C148.191 120.888 148.586 120.776 148.863 120.552C149.151 120.317 149.295 119.96 149.295 119.48V119.16C149.295 118.68 149.151 118.328 148.863 118.104C148.586 117.869 148.191 117.752 147.679 117.752C147.167 117.752 146.767 117.869 146.479 118.104C146.202 118.328 146.063 118.68 146.063 119.16V119.48C146.063 119.96 146.202 120.317 146.479 120.552C146.767 120.776 147.167 120.888 147.679 120.888ZM153.217 125V116.68H154.961V118.28H155.041C155.158 117.853 155.403 117.48 155.777 117.16C156.15 116.84 156.667 116.68 157.329 116.68H157.793V118.36H157.105C156.411 118.36 155.878 118.472 155.505 118.696C155.142 118.92 154.961 119.251 154.961 119.688V125H153.217ZM165.313 125C164.854 125 164.502 124.872 164.257 124.616C164.011 124.349 163.862 124.013 163.809 123.608H163.729C163.569 124.131 163.275 124.525 162.849 124.792C162.422 125.059 161.905 125.192 161.297 125.192C160.433 125.192 159.766 124.968 159.297 124.52C158.838 124.072 158.609 123.469 158.609 122.712C158.609 121.88 158.907 121.256 159.505 120.84C160.113 120.424 160.998 120.216 162.161 120.216H163.665V119.512C163.665 119 163.526 118.605 163.249 118.328C162.971 118.051 162.539 117.912 161.953 117.912C161.462 117.912 161.062 118.019 160.753 118.232C160.443 118.445 160.182 118.717 159.969 119.048L158.929 118.104C159.206 117.635 159.595 117.251 160.097 116.952C160.598 116.643 161.254 116.488 162.065 116.488C163.142 116.488 163.969 116.739 164.545 117.24C165.121 117.741 165.409 118.461 165.409 119.4V123.576H166.289V125H165.313ZM161.793 123.864C162.337 123.864 162.785 123.747 163.137 123.512C163.489 123.267 163.665 122.941 163.665 122.536V121.336H162.193C160.987 121.336 160.385 121.709 160.385 122.456V122.744C160.385 123.117 160.507 123.4 160.753 123.592C161.009 123.773 161.355 123.864 161.793 123.864ZM167.998 116.68H169.742V118.056H169.822C170.003 117.555 170.297 117.171 170.702 116.904C171.118 116.627 171.603 116.488 172.158 116.488C173.214 116.488 174.03 116.872 174.606 117.64C175.182 118.397 175.47 119.464 175.47 120.84C175.47 122.216 175.182 123.288 174.606 124.056C174.03 124.813 173.214 125.192 172.158 125.192C171.603 125.192 171.118 125.053 170.702 124.776C170.297 124.499 170.003 124.115 169.822 123.624H169.742V128.2H167.998V116.68ZM171.63 123.688C172.238 123.688 172.723 123.496 173.086 123.112C173.449 122.717 173.63 122.2 173.63 121.56V120.12C173.63 119.48 173.449 118.968 173.086 118.584C172.723 118.189 172.238 117.992 171.63 117.992C171.097 117.992 170.649 118.125 170.286 118.392C169.923 118.648 169.742 118.989 169.742 119.416V122.264C169.742 122.691 169.923 123.037 170.286 123.304C170.649 123.56 171.097 123.688 171.63 123.688ZM177.467 113.16H179.211V118.056H179.291C179.472 117.608 179.744 117.235 180.107 116.936C180.48 116.637 180.987 116.488 181.627 116.488C182.48 116.488 183.141 116.771 183.611 117.336C184.091 117.891 184.331 118.685 184.331 119.72V125H182.587V119.928C182.587 118.637 182.064 117.992 181.019 117.992C180.795 117.992 180.571 118.024 180.347 118.088C180.133 118.141 179.941 118.227 179.771 118.344C179.6 118.461 179.461 118.611 179.355 118.792C179.259 118.973 179.211 119.181 179.211 119.416V125H177.467V113.16ZM191.727 116.68H193.407L189.903 126.648C189.807 126.925 189.695 127.16 189.567 127.352C189.45 127.555 189.306 127.715 189.135 127.832C188.975 127.96 188.778 128.051 188.543 128.104C188.308 128.168 188.031 128.2 187.711 128.2H186.703V126.776H188.111L188.591 125.368L185.567 116.68H187.311L188.975 121.576L189.455 123.384H189.535L190.063 121.576L191.727 116.68Z" fill="#1A1A1A"/>
<path d="M140 145.5H339.5V192.5H140C131.44 192.5 124.5 185.56 124.5 177V161C124.5 152.44 131.44 145.5 140 145.5Z" fill="white"/>
<path d="M141.204 174V164.228H147.308V165.628H142.786V168.344H146.804V169.744H142.786V174H141.204ZM151.536 174.168C151.032 174.168 150.57 174.079 150.15 173.902C149.739 173.725 149.389 173.473 149.1 173.146C148.811 172.81 148.587 172.409 148.428 171.942C148.269 171.466 148.19 170.939 148.19 170.36C148.19 169.781 148.269 169.259 148.428 168.792C148.587 168.316 148.811 167.915 149.1 167.588C149.389 167.252 149.739 166.995 150.15 166.818C150.57 166.641 151.032 166.552 151.536 166.552C152.04 166.552 152.497 166.641 152.908 166.818C153.328 166.995 153.683 167.252 153.972 167.588C154.261 167.915 154.485 168.316 154.644 168.792C154.803 169.259 154.882 169.781 154.882 170.36C154.882 170.939 154.803 171.466 154.644 171.942C154.485 172.409 154.261 172.81 153.972 173.146C153.683 173.473 153.328 173.725 152.908 173.902C152.497 174.079 152.04 174.168 151.536 174.168ZM151.536 172.908C152.059 172.908 152.479 172.749 152.796 172.432C153.113 172.105 153.272 171.62 153.272 170.976V169.744C153.272 169.1 153.113 168.619 152.796 168.302C152.479 167.975 152.059 167.812 151.536 167.812C151.013 167.812 150.593 167.975 150.276 168.302C149.959 168.619 149.8 169.1 149.8 169.744V170.976C149.8 171.62 149.959 172.105 150.276 172.432C150.593 172.749 151.013 172.908 151.536 172.908ZM156.582 174V166.72H158.108V167.924H158.178C158.337 167.532 158.575 167.205 158.892 166.944C159.219 166.683 159.662 166.552 160.222 166.552C160.969 166.552 161.548 166.799 161.958 167.294C162.378 167.779 162.588 168.475 162.588 169.38V174H161.062V169.576C161.062 168.437 160.605 167.868 159.69 167.868C159.494 167.868 159.298 167.896 159.102 167.952C158.916 167.999 158.748 168.073 158.598 168.176C158.449 168.279 158.328 168.409 158.234 168.568C158.15 168.727 158.108 168.913 158.108 169.128V174H156.582ZM166.719 174C166.187 174 165.786 173.865 165.515 173.594C165.245 173.314 165.109 172.922 165.109 172.418V167.966H163.975V166.72H164.591C164.843 166.72 165.016 166.664 165.109 166.552C165.212 166.44 165.263 166.258 165.263 166.006V164.732H166.635V166.72H168.161V167.966H166.635V172.754H168.049V174H166.719ZM176.163 174.168C175.342 174.168 174.642 174.019 174.063 173.72C173.494 173.421 173.004 173.02 172.593 172.516L173.685 171.494C174.031 171.914 174.409 172.231 174.819 172.446C175.239 172.661 175.715 172.768 176.247 172.768C176.873 172.768 177.344 172.628 177.661 172.348C177.979 172.068 178.137 171.69 178.137 171.214C178.137 170.831 178.025 170.528 177.801 170.304C177.577 170.08 177.181 169.912 176.611 169.8L175.743 169.646C174.791 169.469 174.077 169.156 173.601 168.708C173.125 168.26 172.887 167.644 172.887 166.86C172.887 166.431 172.967 166.043 173.125 165.698C173.293 165.343 173.522 165.049 173.811 164.816C174.11 164.573 174.469 164.387 174.889 164.256C175.309 164.125 175.781 164.06 176.303 164.06C177.041 164.06 177.68 164.191 178.221 164.452C178.763 164.704 179.225 165.073 179.607 165.558L178.501 166.538C178.249 166.211 177.941 165.95 177.577 165.754C177.213 165.558 176.761 165.46 176.219 165.46C175.659 165.46 175.225 165.572 174.917 165.796C174.609 166.02 174.455 166.347 174.455 166.776C174.455 167.187 174.581 167.495 174.833 167.7C175.085 167.896 175.477 168.045 176.009 168.148L176.877 168.33C177.857 168.517 178.571 168.834 179.019 169.282C179.477 169.73 179.705 170.346 179.705 171.13C179.705 171.587 179.626 172.003 179.467 172.376C179.309 172.749 179.075 173.071 178.767 173.342C178.469 173.603 178.1 173.809 177.661 173.958C177.223 174.098 176.723 174.168 176.163 174.168ZM182.262 165.418C181.945 165.418 181.712 165.343 181.562 165.194C181.422 165.045 181.352 164.853 181.352 164.62V164.382C181.352 164.149 181.422 163.957 181.562 163.808C181.712 163.659 181.945 163.584 182.262 163.584C182.58 163.584 182.808 163.659 182.948 163.808C183.088 163.957 183.158 164.149 183.158 164.382V164.62C183.158 164.853 183.088 165.045 182.948 165.194C182.808 165.343 182.58 165.418 182.262 165.418ZM181.492 166.72H183.018V174H181.492V166.72ZM184.609 174V172.768L188.515 167.966H184.735V166.72H190.321V167.896L186.359 172.754H190.419V174H184.609ZM194.725 174.168C194.203 174.168 193.736 174.079 193.325 173.902C192.915 173.725 192.565 173.473 192.275 173.146C191.986 172.81 191.762 172.409 191.603 171.942C191.454 171.466 191.379 170.939 191.379 170.36C191.379 169.781 191.454 169.259 191.603 168.792C191.762 168.316 191.986 167.915 192.275 167.588C192.565 167.252 192.915 166.995 193.325 166.818C193.736 166.641 194.203 166.552 194.725 166.552C195.257 166.552 195.724 166.645 196.125 166.832C196.536 167.019 196.877 167.28 197.147 167.616C197.418 167.943 197.619 168.325 197.749 168.764C197.889 169.203 197.959 169.674 197.959 170.178V170.752H192.961V170.99C192.961 171.55 193.125 172.012 193.451 172.376C193.787 172.731 194.263 172.908 194.879 172.908C195.327 172.908 195.705 172.81 196.013 172.614C196.321 172.418 196.583 172.152 196.797 171.816L197.693 172.698C197.423 173.146 197.031 173.505 196.517 173.776C196.004 174.037 195.407 174.168 194.725 174.168ZM194.725 167.742C194.464 167.742 194.221 167.789 193.997 167.882C193.783 167.975 193.596 168.106 193.437 168.274C193.288 168.442 193.171 168.643 193.087 168.876C193.003 169.109 192.961 169.366 192.961 169.646V169.744H196.349V169.604C196.349 169.044 196.205 168.596 195.915 168.26C195.626 167.915 195.229 167.742 194.725 167.742Z" fill="black"/>
<path d="M287.232 174V172.684H289.976V165.376H289.864L287.596 167.798L286.63 166.93L289.122 164.228H291.53V172.684H293.91V174H287.232ZM298.623 174.168C298.081 174.168 297.596 174.079 297.167 173.902C296.747 173.725 296.387 173.473 296.089 173.146C295.799 172.81 295.575 172.409 295.417 171.942C295.258 171.475 295.179 170.948 295.179 170.36C295.179 169.651 295.286 168.983 295.501 168.358C295.715 167.733 295.991 167.159 296.327 166.636C296.663 166.113 297.036 165.651 297.447 165.25C297.867 164.839 298.277 164.499 298.679 164.228H300.779C300.228 164.629 299.733 165.017 299.295 165.39C298.856 165.763 298.473 166.146 298.147 166.538C297.82 166.93 297.545 167.345 297.321 167.784C297.106 168.223 296.938 168.703 296.817 169.226L296.915 169.254C297.017 169.058 297.134 168.876 297.265 168.708C297.405 168.531 297.563 168.377 297.741 168.246C297.927 168.115 298.137 168.013 298.371 167.938C298.604 167.863 298.875 167.826 299.183 167.826C299.593 167.826 299.971 167.896 300.317 168.036C300.671 168.176 300.975 168.381 301.227 168.652C301.488 168.913 301.689 169.231 301.829 169.604C301.978 169.977 302.053 170.393 302.053 170.85C302.053 171.345 301.969 171.797 301.801 172.208C301.642 172.609 301.413 172.955 301.115 173.244C300.816 173.533 300.452 173.762 300.023 173.93C299.603 174.089 299.136 174.168 298.623 174.168ZM298.623 172.88C299.192 172.88 299.635 172.731 299.953 172.432C300.27 172.124 300.429 171.676 300.429 171.088V170.892C300.429 170.304 300.27 169.861 299.953 169.562C299.635 169.254 299.192 169.1 298.623 169.1C298.053 169.1 297.61 169.254 297.293 169.562C296.975 169.861 296.817 170.304 296.817 170.892V171.088C296.817 171.676 296.975 172.124 297.293 172.432C297.61 172.731 298.053 172.88 298.623 172.88Z" fill="black"/>
<path d="M312.02 166.808H312.98V167.816H313.028C313.188 167.424 313.42 167.136 313.724 166.952C314.036 166.76 314.408 166.664 314.84 166.664C315.224 166.664 315.572 166.74 315.884 166.892C316.196 167.044 316.46 167.26 316.676 167.54C316.9 167.82 317.068 168.16 317.18 168.56C317.3 168.96 317.36 169.408 317.36 169.904C317.36 170.4 317.3 170.848 317.18 171.248C317.068 171.648 316.9 171.988 316.676 172.268C316.46 172.548 316.196 172.764 315.884 172.916C315.572 173.068 315.224 173.144 314.84 173.144C314 173.144 313.396 172.76 313.028 171.992H312.98V175.4H312.02V166.808ZM314.576 172.28C315.12 172.28 315.548 172.112 315.86 171.776C316.172 171.432 316.328 170.984 316.328 170.432V169.376C316.328 168.824 316.172 168.38 315.86 168.044C315.548 167.7 315.12 167.528 314.576 167.528C314.36 167.528 314.152 167.56 313.952 167.624C313.76 167.68 313.592 167.76 313.448 167.864C313.304 167.968 313.188 168.096 313.1 168.248C313.02 168.392 312.98 168.548 312.98 168.716V171.02C312.98 171.22 313.02 171.4 313.1 171.56C313.188 171.712 313.304 171.844 313.448 171.956C313.592 172.06 313.76 172.14 313.952 172.196C314.152 172.252 314.36 172.28 314.576 172.28ZM318.072 173L320.364 169.88L318.168 166.808H319.296L320.868 169.112H320.904L322.536 166.808H323.604L321.42 169.808L323.652 173H322.524L320.916 170.576H320.88L319.14 173H318.072Z" fill="#545454"/>
<path d="M140 145.5H339.5V192.5H140C131.44 192.5 124.5 185.56 124.5 177V161C124.5 152.44 131.44 145.5 140 145.5Z" stroke="#E6E6E6"/>
<mask id="path-39-inside-3_204_1089" fill="white">
<path d="M340 145H540C548.837 145 556 152.163 556 161V177C556 185.837 548.837 193 540 193H340V145Z"/>
</mask>
<path d="M340 145H540C548.837 145 556 152.163 556 161V177C556 185.837 548.837 193 540 193H340V145Z" fill="white"/>
<rect x="356" y="153" width="32" height="32" rx="4" fill="#545454"/>
<path d="M405.474 171.326H403.262L402.8 174H401.722L402.184 171.326H400.56V170.304H402.366L402.772 167.924H401.148V166.902H402.954L403.416 164.228H404.48L404.018 166.902H406.23L406.692 164.228H407.77L407.308 166.902H408.932V167.924H407.126L406.72 170.304H408.344V171.326H406.538L406.076 174H405.012L405.474 171.326ZM405.642 170.304L406.062 167.924H403.85L403.43 170.304H405.642ZM414.514 174V172.096H409.978V170.738L413.94 164.228H416.012V170.85H417.342V172.096H416.012V174H414.514ZM411.322 170.85H414.514V165.67H414.416L411.322 170.85ZM422.111 174.168C421.569 174.168 421.084 174.079 420.655 173.902C420.235 173.725 419.875 173.473 419.577 173.146C419.287 172.81 419.063 172.409 418.905 171.942C418.746 171.475 418.667 170.948 418.667 170.36C418.667 169.651 418.774 168.983 418.989 168.358C419.203 167.733 419.479 167.159 419.815 166.636C420.151 166.113 420.524 165.651 420.935 165.25C421.355 164.839 421.765 164.499 422.167 164.228H424.267C423.716 164.629 423.221 165.017 422.783 165.39C422.344 165.763 421.961 166.146 421.635 166.538C421.308 166.93 421.033 167.345 420.809 167.784C420.594 168.223 420.426 168.703 420.305 169.226L420.403 169.254C420.505 169.058 420.622 168.876 420.753 168.708C420.893 168.531 421.051 168.377 421.229 168.246C421.415 168.115 421.625 168.013 421.859 167.938C422.092 167.863 422.363 167.826 422.671 167.826C423.081 167.826 423.459 167.896 423.805 168.036C424.159 168.176 424.463 168.381 424.715 168.652C424.976 168.913 425.177 169.231 425.317 169.604C425.466 169.977 425.541 170.393 425.541 170.85C425.541 171.345 425.457 171.797 425.289 172.208C425.13 172.609 424.901 172.955 424.603 173.244C424.304 173.533 423.94 173.762 423.511 173.93C423.091 174.089 422.624 174.168 422.111 174.168ZM422.111 172.88C422.68 172.88 423.123 172.731 423.441 172.432C423.758 172.124 423.917 171.676 423.917 171.088V170.892C423.917 170.304 423.758 169.861 423.441 169.562C423.123 169.254 422.68 169.1 422.111 169.1C421.541 169.1 421.098 169.254 420.781 169.562C420.463 169.861 420.305 170.304 420.305 170.892V171.088C420.305 171.676 420.463 172.124 420.781 172.432C421.098 172.731 421.541 172.88 422.111 172.88ZM427.481 174V164.228H433.585V165.628H429.063V168.344H433.081V169.744H429.063V174H427.481ZM435.466 174V164.228H441.57V165.628H437.048V168.344H441.066V169.744H437.048V174H435.466ZM448.693 174L447.811 171.354H444.157L443.303 174H441.693L445.025 164.228H447.013L450.345 174H448.693ZM446.019 165.684H445.949L444.535 169.996H447.419L446.019 165.684ZM454.882 174.168C454.341 174.168 453.856 174.079 453.426 173.902C453.006 173.725 452.647 173.473 452.348 173.146C452.059 172.81 451.835 172.409 451.676 171.942C451.518 171.475 451.438 170.948 451.438 170.36C451.438 169.651 451.546 168.983 451.76 168.358C451.975 167.733 452.25 167.159 452.586 166.636C452.922 166.113 453.296 165.651 453.706 165.25C454.126 164.839 454.537 164.499 454.938 164.228H457.038C456.488 164.629 455.993 165.017 455.554 165.39C455.116 165.763 454.733 166.146 454.406 166.538C454.08 166.93 453.804 167.345 453.58 167.784C453.366 168.223 453.198 168.703 453.076 169.226L453.174 169.254C453.277 169.058 453.394 168.876 453.524 168.708C453.664 168.531 453.823 168.377 454 168.246C454.187 168.115 454.397 168.013 454.63 167.938C454.864 167.863 455.134 167.826 455.442 167.826C455.853 167.826 456.231 167.896 456.576 168.036C456.931 168.176 457.234 168.381 457.486 168.652C457.748 168.913 457.948 169.231 458.088 169.604C458.238 169.977 458.312 170.393 458.312 170.85C458.312 171.345 458.228 171.797 458.06 172.208C457.902 172.609 457.673 172.955 457.374 173.244C457.076 173.533 456.712 173.762 456.282 173.93C455.862 174.089 455.396 174.168 454.882 174.168ZM454.882 172.88C455.452 172.88 455.895 172.731 456.212 172.432C456.53 172.124 456.688 171.676 456.688 171.088V170.892C456.688 170.304 456.53 169.861 456.212 169.562C455.895 169.254 455.452 169.1 454.882 169.1C454.313 169.1 453.87 169.254 453.552 169.562C453.235 169.861 453.076 170.304 453.076 170.892V171.088C453.076 171.676 453.235 172.124 453.552 172.432C453.87 172.731 454.313 172.88 454.882 172.88Z" fill="black"/>
<path d="M537 170.488C536.758 170.488 536.515 170.394 536.332 170.211L534.075 167.954C533.975 167.854 533.975 167.688 534.075 167.587C534.176 167.487 534.342 167.487 534.442 167.587L536.699 169.844C536.865 170.01 537.135 170.01 537.301 169.844L539.558 167.587C539.658 167.487 539.824 167.487 539.925 167.587C540.025 167.688 540.025 167.854 539.925 167.954L537.668 170.211C537.485 170.394 537.242 170.488 537 170.488Z" fill="#292D32"/>
<path d="M340 144H540C549.389 144 557 151.611 557 161H555C555 152.716 548.284 146 540 146H340V144ZM557 177C557 186.389 549.389 194 540 194H340V192H540C548.284 192 555 185.284 555 177H557ZM340 193V145V193ZM540 144C549.389 144 557 151.611 557 161V177C557 186.389 549.389 194 540 194V192C548.284 192 555 185.284 555 177V161C555 152.716 548.284 146 540 146V144Z" fill="#E6E6E6" mask="url(#path-39-inside-3_204_1089)"/>
<path d="M140 203.5H339.5V250.5H140C131.44 250.5 124.5 243.56 124.5 235V219C124.5 210.44 131.44 203.5 140 203.5Z" fill="white"/>
<path d="M144.872 232.168C143.593 232.168 142.59 231.739 141.862 230.88C141.134 230.012 140.77 228.757 140.77 227.114C140.77 226.293 140.863 225.569 141.05 224.944C141.237 224.319 141.507 223.791 141.862 223.362C142.217 222.933 142.646 222.611 143.15 222.396C143.663 222.172 144.237 222.06 144.872 222.06C145.721 222.06 146.431 222.247 147 222.62C147.579 222.993 148.031 223.544 148.358 224.272L147.028 225C146.86 224.533 146.599 224.165 146.244 223.894C145.899 223.614 145.441 223.474 144.872 223.474C144.116 223.474 143.523 223.731 143.094 224.244C142.665 224.757 142.45 225.467 142.45 226.372V227.856C142.45 228.761 142.665 229.471 143.094 229.984C143.523 230.497 144.116 230.754 144.872 230.754C145.46 230.754 145.936 230.605 146.3 230.306C146.673 229.998 146.949 229.606 147.126 229.13L148.4 229.9C148.073 230.609 147.616 231.165 147.028 231.566C146.44 231.967 145.721 232.168 144.872 232.168ZM155.299 232C154.898 232 154.59 231.888 154.375 231.664C154.16 231.431 154.03 231.137 153.983 230.782H153.913C153.773 231.239 153.516 231.585 153.143 231.818C152.77 232.051 152.317 232.168 151.785 232.168C151.029 232.168 150.446 231.972 150.035 231.58C149.634 231.188 149.433 230.661 149.433 229.998C149.433 229.27 149.694 228.724 150.217 228.36C150.749 227.996 151.524 227.814 152.541 227.814H153.857V227.198C153.857 226.75 153.736 226.405 153.493 226.162C153.25 225.919 152.872 225.798 152.359 225.798C151.93 225.798 151.58 225.891 151.309 226.078C151.038 226.265 150.81 226.503 150.623 226.792L149.713 225.966C149.956 225.555 150.296 225.219 150.735 224.958C151.174 224.687 151.748 224.552 152.457 224.552C153.4 224.552 154.123 224.771 154.627 225.21C155.131 225.649 155.383 226.279 155.383 227.1V230.754H156.153V232H155.299ZM152.219 231.006C152.695 231.006 153.087 230.903 153.395 230.698C153.703 230.483 153.857 230.199 153.857 229.844V228.794H152.569C151.514 228.794 150.987 229.121 150.987 229.774V230.026C150.987 230.353 151.094 230.6 151.309 230.768C151.533 230.927 151.836 231.006 152.219 231.006ZM157.649 224.72H159.175V225.924H159.245C159.403 225.485 159.66 225.149 160.015 224.916C160.379 224.673 160.803 224.552 161.289 224.552C162.213 224.552 162.927 224.888 163.431 225.56C163.935 226.223 164.187 227.156 164.187 228.36C164.187 229.564 163.935 230.502 163.431 231.174C162.927 231.837 162.213 232.168 161.289 232.168C160.803 232.168 160.379 232.047 160.015 231.804C159.66 231.561 159.403 231.225 159.245 230.796H159.175V234.8H157.649V224.72ZM160.827 230.852C161.359 230.852 161.783 230.684 162.101 230.348C162.418 230.003 162.577 229.55 162.577 228.99V227.73C162.577 227.17 162.418 226.722 162.101 226.386C161.783 226.041 161.359 225.868 160.827 225.868C160.36 225.868 159.968 225.985 159.651 226.218C159.333 226.442 159.175 226.741 159.175 227.114V229.606C159.175 229.979 159.333 230.283 159.651 230.516C159.968 230.74 160.36 230.852 160.827 230.852Z" fill="black"/>
<path d="M254.83 223.628V232H253.248V223.628H250.336V222.228H257.742V223.628H254.83ZM263.184 223.628V232H261.602V223.628H258.69V222.228H266.096V223.628H263.184Z" fill="#CCCCCC"/>
<path d="M287.83 223.628V232H286.248V223.628H283.336V222.228H290.742V223.628H287.83ZM294.188 232C293.656 232 293.255 231.865 292.984 231.594C292.713 231.314 292.578 230.922 292.578 230.418V225.966H291.444V224.72H292.06C292.312 224.72 292.485 224.664 292.578 224.552C292.681 224.44 292.732 224.258 292.732 224.006V222.732H294.104V224.72H295.63V225.966H294.104V230.754H295.518V232H294.188Z" fill="black"/>
<path d="M316.108 232C315.576 232 315.175 231.865 314.904 231.594C314.633 231.314 314.498 230.922 314.498 230.418V225.966H313.364V224.72H313.98C314.232 224.72 314.405 224.664 314.498 224.552C314.601 224.44 314.652 224.258 314.652 224.006V222.732H316.024V224.72H317.55V225.966H316.024V230.754H317.438V232H316.108ZM321.126 232C320.594 232 320.192 231.865 319.922 231.594C319.651 231.314 319.516 230.922 319.516 230.418V225.966H318.382V224.72H318.998C319.25 224.72 319.422 224.664 319.516 224.552C319.618 224.44 319.67 224.258 319.67 224.006V222.732H321.042V224.72H322.568V225.966H321.042V230.754H322.456V232H321.126Z" fill="#CCCCCC"/>
<path d="M140 203.5H339.5V250.5H140C131.44 250.5 124.5 243.56 124.5 235V219C124.5 210.44 131.44 203.5 140 203.5Z" stroke="#E6E6E6"/>
<mask id="path-49-inside-4_204_1089" fill="white">
<path d="M340 203H540C548.837 203 556 210.163 556 219V235C556 243.837 548.837 251 540 251H340V203Z"/>
</mask>
<path d="M340 203H540C548.837 203 556 210.163 556 219V235C556 243.837 548.837 251 540 251H340V203Z" fill="white"/>
<path d="M364.68 224.524H364.61L363.84 226.106L361.698 230.012L359.556 226.106L358.786 224.524H358.716V232H357.204V222.228H359.08L361.698 227.198H361.782L364.4 222.228H366.192V232H364.68V224.524ZM371.35 232.168C370.846 232.168 370.384 232.079 369.964 231.902C369.554 231.725 369.204 231.473 368.914 231.146C368.625 230.81 368.401 230.409 368.242 229.942C368.084 229.466 368.004 228.939 368.004 228.36C368.004 227.781 368.084 227.259 368.242 226.792C368.401 226.316 368.625 225.915 368.914 225.588C369.204 225.252 369.554 224.995 369.964 224.818C370.384 224.641 370.846 224.552 371.35 224.552C371.854 224.552 372.312 224.641 372.722 224.818C373.142 224.995 373.497 225.252 373.786 225.588C374.076 225.915 374.3 226.316 374.458 226.792C374.617 227.259 374.696 227.781 374.696 228.36C374.696 228.939 374.617 229.466 374.458 229.942C374.3 230.409 374.076 230.81 373.786 231.146C373.497 231.473 373.142 231.725 372.722 231.902C372.312 232.079 371.854 232.168 371.35 232.168ZM371.35 230.908C371.873 230.908 372.293 230.749 372.61 230.432C372.928 230.105 373.086 229.62 373.086 228.976V227.744C373.086 227.1 372.928 226.619 372.61 226.302C372.293 225.975 371.873 225.812 371.35 225.812C370.828 225.812 370.408 225.975 370.09 226.302C369.773 226.619 369.614 227.1 369.614 227.744V228.976C369.614 229.62 369.773 230.105 370.09 230.432C370.408 230.749 370.828 230.908 371.35 230.908ZM380.975 230.796H380.905C380.746 231.225 380.485 231.561 380.121 231.804C379.766 232.047 379.346 232.168 378.861 232.168C377.937 232.168 377.223 231.837 376.719 231.174C376.215 230.502 375.963 229.564 375.963 228.36C375.963 227.156 376.215 226.223 376.719 225.56C377.223 224.888 377.937 224.552 378.861 224.552C379.346 224.552 379.766 224.673 380.121 224.916C380.485 225.149 380.746 225.485 380.905 225.924H380.975V221.64H382.501V232H380.975V230.796ZM379.323 230.852C379.789 230.852 380.181 230.74 380.499 230.516C380.816 230.283 380.975 229.979 380.975 229.606V227.114C380.975 226.741 380.816 226.442 380.499 226.218C380.181 225.985 379.789 225.868 379.323 225.868C378.791 225.868 378.366 226.041 378.049 226.386C377.731 226.722 377.573 227.17 377.573 227.73V228.99C377.573 229.55 377.731 230.003 378.049 230.348C378.366 230.684 378.791 230.852 379.323 230.852ZM385.452 223.418C385.135 223.418 384.901 223.343 384.752 223.194C384.612 223.045 384.542 222.853 384.542 222.62V222.382C384.542 222.149 384.612 221.957 384.752 221.808C384.901 221.659 385.135 221.584 385.452 221.584C385.769 221.584 385.998 221.659 386.138 221.808C386.278 221.957 386.348 222.149 386.348 222.382V222.62C386.348 222.853 386.278 223.045 386.138 223.194C385.998 223.343 385.769 223.418 385.452 223.418ZM384.682 224.72H386.208V232H384.682V224.72ZM388.765 225.966H387.659V224.72H388.765V223.516C388.765 222.928 388.919 222.471 389.227 222.144C389.535 221.808 389.997 221.64 390.613 221.64H391.817V222.886H390.291V224.72H394.617V232H393.091V225.966H390.291V232H388.765V225.966ZM393.861 223.418C393.544 223.418 393.31 223.343 393.161 223.194C393.021 223.045 392.951 222.853 392.951 222.62V222.382C392.951 222.149 393.021 221.957 393.161 221.808C393.31 221.659 393.544 221.584 393.861 221.584C394.178 221.584 394.407 221.659 394.547 221.808C394.687 221.957 394.757 222.149 394.757 222.382V222.62C394.757 222.853 394.687 223.045 394.547 223.194C394.407 223.343 394.178 223.418 393.861 223.418ZM399.651 232.168C399.128 232.168 398.662 232.079 398.251 231.902C397.84 231.725 397.49 231.473 397.201 231.146C396.912 230.81 396.688 230.409 396.529 229.942C396.38 229.466 396.305 228.939 396.305 228.36C396.305 227.781 396.38 227.259 396.529 226.792C396.688 226.316 396.912 225.915 397.201 225.588C397.49 225.252 397.84 224.995 398.251 224.818C398.662 224.641 399.128 224.552 399.651 224.552C400.183 224.552 400.65 224.645 401.051 224.832C401.462 225.019 401.802 225.28 402.073 225.616C402.344 225.943 402.544 226.325 402.675 226.764C402.815 227.203 402.885 227.674 402.885 228.178V228.752H397.887V228.99C397.887 229.55 398.05 230.012 398.377 230.376C398.713 230.731 399.189 230.908 399.805 230.908C400.253 230.908 400.631 230.81 400.939 230.614C401.247 230.418 401.508 230.152 401.723 229.816L402.619 230.698C402.348 231.146 401.956 231.505 401.443 231.776C400.93 232.037 400.332 232.168 399.651 232.168ZM399.651 225.742C399.39 225.742 399.147 225.789 398.923 225.882C398.708 225.975 398.522 226.106 398.363 226.274C398.214 226.442 398.097 226.643 398.013 226.876C397.929 227.109 397.887 227.366 397.887 227.646V227.744H401.275V227.604C401.275 227.044 401.13 226.596 400.841 226.26C400.552 225.915 400.155 225.742 399.651 225.742ZM404.574 232V224.72H406.1V226.12H406.17C406.273 225.747 406.488 225.42 406.814 225.14C407.141 224.86 407.594 224.72 408.172 224.72H408.578V226.19H407.976C407.37 226.19 406.903 226.288 406.576 226.484C406.259 226.68 406.1 226.969 406.1 227.352V232H404.574ZM413.354 232V222.228H414.936V230.6H418.912V232H413.354ZM423.139 232.168C422.617 232.168 422.15 232.079 421.739 231.902C421.329 231.725 420.979 231.473 420.689 231.146C420.4 230.81 420.176 230.409 420.017 229.942C419.868 229.466 419.793 228.939 419.793 228.36C419.793 227.781 419.868 227.259 420.017 226.792C420.176 226.316 420.4 225.915 420.689 225.588C420.979 225.252 421.329 224.995 421.739 224.818C422.15 224.641 422.617 224.552 423.139 224.552C423.671 224.552 424.138 224.645 424.539 224.832C424.95 225.019 425.291 225.28 425.561 225.616C425.832 225.943 426.033 226.325 426.163 226.764C426.303 227.203 426.373 227.674 426.373 228.178V228.752H421.375V228.99C421.375 229.55 421.539 230.012 421.865 230.376C422.201 230.731 422.677 230.908 423.293 230.908C423.741 230.908 424.119 230.81 424.427 230.614C424.735 230.418 424.997 230.152 425.211 229.816L426.107 230.698C425.837 231.146 425.445 231.505 424.931 231.776C424.418 232.037 423.821 232.168 423.139 232.168ZM423.139 225.742C422.878 225.742 422.635 225.789 422.411 225.882C422.197 225.975 422.01 226.106 421.851 226.274C421.702 226.442 421.585 226.643 421.501 226.876C421.417 227.109 421.375 227.366 421.375 227.646V227.744H424.763V227.604C424.763 227.044 424.619 226.596 424.329 226.26C424.04 225.915 423.643 225.742 423.139 225.742ZM428.063 232V224.72H429.589V225.924H429.659C429.817 225.532 430.055 225.205 430.373 224.944C430.699 224.683 431.143 224.552 431.703 224.552C432.449 224.552 433.028 224.799 433.439 225.294C433.859 225.779 434.069 226.475 434.069 227.38V232H432.543V227.576C432.543 226.437 432.085 225.868 431.171 225.868C430.975 225.868 430.779 225.896 430.583 225.952C430.396 225.999 430.228 226.073 430.079 226.176C429.929 226.279 429.808 226.409 429.715 226.568C429.631 226.727 429.589 226.913 429.589 227.128V232H428.063ZM442.568 232.686C442.568 233.442 442.278 234.011 441.7 234.394C441.121 234.777 440.178 234.968 438.872 234.968C438.274 234.968 437.766 234.926 437.346 234.842C436.935 234.767 436.594 234.655 436.324 234.506C436.062 234.357 435.871 234.175 435.75 233.96C435.628 233.745 435.568 233.498 435.568 233.218C435.568 232.817 435.675 232.504 435.89 232.28C436.114 232.056 436.422 231.902 436.814 231.818V231.664C436.263 231.487 435.988 231.113 435.988 230.544C435.988 230.171 436.114 229.886 436.366 229.69C436.618 229.485 436.921 229.34 437.276 229.256V229.2C436.846 228.995 436.515 228.71 436.282 228.346C436.058 227.973 435.946 227.539 435.946 227.044C435.946 226.297 436.193 225.695 436.688 225.238C437.192 224.781 437.91 224.552 438.844 224.552C439.357 224.552 439.796 224.627 440.16 224.776V224.58C440.16 224.253 440.234 224.001 440.384 223.824C440.542 223.637 440.785 223.544 441.112 223.544H442.232V224.776H440.748V225.07C441.074 225.285 441.326 225.565 441.504 225.91C441.681 226.246 441.77 226.624 441.77 227.044C441.77 227.781 441.518 228.379 441.014 228.836C440.51 229.284 439.791 229.508 438.858 229.508C438.503 229.508 438.186 229.471 437.906 229.396C437.719 229.461 437.556 229.555 437.416 229.676C437.276 229.788 437.206 229.937 437.206 230.124C437.206 230.32 437.294 230.46 437.472 230.544C437.649 230.628 437.901 230.67 438.228 230.67H440.02C440.916 230.67 441.564 230.852 441.966 231.216C442.367 231.571 442.568 232.061 442.568 232.686ZM441.14 232.854C441.14 232.602 441.042 232.401 440.846 232.252C440.659 232.103 440.314 232.028 439.81 232.028H437.346C437.01 232.224 436.842 232.504 436.842 232.868C436.842 233.167 436.958 233.405 437.192 233.582C437.434 233.769 437.84 233.862 438.41 233.862H439.362C440.547 233.862 441.14 233.526 441.14 232.854ZM438.858 228.402C439.306 228.402 439.651 228.304 439.894 228.108C440.146 227.903 440.272 227.59 440.272 227.17V226.89C440.272 226.47 440.146 226.162 439.894 225.966C439.651 225.761 439.306 225.658 438.858 225.658C438.41 225.658 438.06 225.761 437.808 225.966C437.565 226.162 437.444 226.47 437.444 226.89V227.17C437.444 227.59 437.565 227.903 437.808 228.108C438.06 228.304 438.41 228.402 438.858 228.402ZM445.719 232C445.187 232 444.786 231.865 444.515 231.594C444.245 231.314 444.109 230.922 444.109 230.418V225.966H442.975V224.72H443.591C443.843 224.72 444.016 224.664 444.109 224.552C444.212 224.44 444.263 224.258 444.263 224.006V222.732H445.635V224.72H447.161V225.966H445.635V230.754H447.049V232H445.719ZM448.817 221.64H450.343V225.924H450.413C450.571 225.532 450.809 225.205 451.127 224.944C451.453 224.683 451.897 224.552 452.457 224.552C453.203 224.552 453.782 224.799 454.193 225.294C454.613 225.779 454.823 226.475 454.823 227.38V232H453.297V227.562C453.297 226.433 452.839 225.868 451.925 225.868C451.729 225.868 451.533 225.896 451.337 225.952C451.15 225.999 450.982 226.073 450.833 226.176C450.683 226.279 450.562 226.409 450.469 226.568C450.385 226.727 450.343 226.909 450.343 227.114V232H448.817V221.64Z" fill="black"/>
<path d="M499.468 232.144C498.788 232.144 498.208 232.016 497.728 231.76C497.248 231.496 496.84 231.136 496.504 230.68L497.248 230.056C497.544 230.448 497.872 230.748 498.232 230.956C498.592 231.156 499.016 231.256 499.504 231.256C500.104 231.256 500.56 231.112 500.872 230.824C501.192 230.536 501.352 230.152 501.352 229.672C501.352 229.272 501.232 228.964 500.992 228.748C500.752 228.532 500.356 228.36 499.804 228.232L499.12 228.076C498.352 227.9 497.764 227.636 497.356 227.284C496.956 226.924 496.756 226.42 496.756 225.772C496.756 225.404 496.824 225.076 496.96 224.788C497.096 224.5 497.284 224.26 497.524 224.068C497.772 223.876 498.064 223.732 498.4 223.636C498.744 223.532 499.12 223.48 499.528 223.48C500.16 223.48 500.7 223.596 501.148 223.828C501.604 224.06 501.988 224.4 502.3 224.848L501.544 225.4C501.312 225.08 501.032 224.828 500.704 224.644C500.376 224.46 499.968 224.368 499.48 224.368C498.944 224.368 498.52 224.484 498.208 224.716C497.904 224.94 497.752 225.28 497.752 225.736C497.752 226.136 497.88 226.44 498.136 226.648C498.4 226.848 498.796 227.008 499.324 227.128L500.008 227.284C500.832 227.468 501.428 227.748 501.796 228.124C502.164 228.5 502.348 229 502.348 229.624C502.348 230.008 502.28 230.356 502.144 230.668C502.016 230.98 501.828 231.244 501.58 231.46C501.332 231.676 501.028 231.844 500.668 231.964C500.316 232.084 499.916 232.144 499.468 232.144ZM503.993 223.12H504.953V226.816H505.001C505.153 226.464 505.365 226.184 505.637 225.976C505.917 225.768 506.289 225.664 506.753 225.664C507.393 225.664 507.897 225.872 508.265 226.288C508.641 226.696 508.829 227.276 508.829 228.028V232H507.869V228.196C507.869 227.084 507.401 226.528 506.465 226.528C506.273 226.528 506.085 226.552 505.901 226.6C505.725 226.648 505.565 226.72 505.421 226.816C505.277 226.912 505.161 227.036 505.073 227.188C504.993 227.332 504.953 227.504 504.953 227.704V232H503.993V223.12ZM513.153 232.144C512.737 232.144 512.357 232.068 512.013 231.916C511.669 231.764 511.373 231.548 511.125 231.268C510.885 230.98 510.697 230.64 510.561 230.248C510.425 229.848 510.357 229.4 510.357 228.904C510.357 228.416 510.425 227.972 510.561 227.572C510.697 227.172 510.885 226.832 511.125 226.552C511.373 226.264 511.669 226.044 512.013 225.892C512.357 225.74 512.737 225.664 513.153 225.664C513.569 225.664 513.945 225.74 514.281 225.892C514.625 226.044 514.921 226.264 515.169 226.552C515.417 226.832 515.609 227.172 515.745 227.572C515.881 227.972 515.949 228.416 515.949 228.904C515.949 229.4 515.881 229.848 515.745 230.248C515.609 230.64 515.417 230.98 515.169 231.268C514.921 231.548 514.625 231.764 514.281 231.916C513.945 232.068 513.569 232.144 513.153 232.144ZM513.153 231.292C513.673 231.292 514.097 231.132 514.425 230.812C514.753 230.492 514.917 230.004 514.917 229.348V228.46C514.917 227.804 514.753 227.316 514.425 226.996C514.097 226.676 513.673 226.516 513.153 226.516C512.633 226.516 512.209 226.676 511.881 226.996C511.553 227.316 511.389 227.804 511.389 228.46V229.348C511.389 230.004 511.553 230.492 511.881 230.812C512.209 231.132 512.633 231.292 513.153 231.292ZM517.528 232V225.808H518.488V226.948H518.548C518.66 226.652 518.86 226.388 519.148 226.156C519.436 225.924 519.832 225.808 520.336 225.808H520.708V226.768H520.144C519.624 226.768 519.216 226.868 518.92 227.068C518.632 227.26 518.488 227.504 518.488 227.8V232H517.528ZM523.349 232C523.013 232 522.757 231.908 522.581 231.724C522.413 231.532 522.329 231.284 522.329 230.98V226.648H521.309V225.808H521.885C522.093 225.808 522.233 225.768 522.305 225.688C522.385 225.6 522.425 225.452 522.425 225.244V224.092H523.289V225.808H524.645V226.648H523.289V231.16H524.549V232H523.349Z" fill="black"/>
<path d="M537 228.488C536.758 228.488 536.515 228.394 536.332 228.211L534.075 225.954C533.975 225.854 533.975 225.688 534.075 225.587C534.176 225.487 534.342 225.487 534.442 225.587L536.699 227.844C536.865 228.01 537.135 228.01 537.301 227.844L539.558 225.587C539.658 225.487 539.824 225.487 539.925 225.587C540.025 225.688 540.025 225.854 539.925 225.954L537.668 228.211C537.485 228.394 537.242 228.488 537 228.488Z" fill="#292D32"/>
<path d="M340 202H540C549.389 202 557 209.611 557 219H555C555 210.716 548.284 204 540 204H340V202ZM557 235C557 244.389 549.389 252 540 252H340V250H540C548.284 250 555 243.284 555 235H557ZM340 251V203V251ZM540 202C549.389 202 557 209.611 557 219V235C557 244.389 549.389 252 540 252V250C548.284 250 555 243.284 555 235V219C555 210.716 548.284 204 540 204V202Z" fill="#E6E6E6" mask="url(#path-49-inside-4_204_1089)"/>
<path d="M556 266.5H92V267.5H556V266.5Z" fill="#CCCCCC" mask="url(#path-31-inside-2_204_1089)"/>
<path d="M94.3614 297.5C94.2737 297.5 94.186 297.468 94.1168 297.398C93.983 297.265 93.983 297.043 94.1168 296.909L97.1253 293.901C97.3468 293.679 97.3468 293.319 97.1253 293.098L94.1168 290.089C93.983 289.956 93.983 289.734 94.1168 289.6C94.2506 289.467 94.4721 289.467 94.6059 289.6L97.6144 292.609C97.8498 292.844 97.9836 293.163 97.9836 293.499C97.9836 293.836 97.8544 294.155 97.6144 294.39L94.6059 297.398C94.5367 297.463 94.449 297.5 94.3614 297.5Z" fill="#292D32"/>
<path d="M109.376 300V288.832H111.184V298.4H115.728V300H109.376ZM123.563 300C123.104 300 122.752 299.872 122.507 299.616C122.261 299.349 122.112 299.013 122.059 298.608H121.979C121.819 299.131 121.525 299.525 121.099 299.792C120.672 300.059 120.155 300.192 119.547 300.192C118.683 300.192 118.016 299.968 117.547 299.52C117.088 299.072 116.859 298.469 116.859 297.712C116.859 296.88 117.157 296.256 117.755 295.84C118.363 295.424 119.248 295.216 120.411 295.216H121.915V294.512C121.915 294 121.776 293.605 121.499 293.328C121.221 293.051 120.789 292.912 120.203 292.912C119.712 292.912 119.312 293.019 119.003 293.232C118.693 293.445 118.432 293.717 118.219 294.048L117.179 293.104C117.456 292.635 117.845 292.251 118.347 291.952C118.848 291.643 119.504 291.488 120.315 291.488C121.392 291.488 122.219 291.739 122.795 292.24C123.371 292.741 123.659 293.461 123.659 294.4V298.576H124.539V300H123.563ZM120.043 298.864C120.587 298.864 121.035 298.747 121.387 298.512C121.739 298.267 121.915 297.941 121.915 297.536V296.336H120.443C119.237 296.336 118.635 296.709 118.635 297.456V297.744C118.635 298.117 118.757 298.4 119.003 298.592C119.259 298.773 119.605 298.864 120.043 298.864ZM131.243 291.68H132.923L129.419 301.648C129.323 301.925 129.211 302.16 129.083 302.352C128.965 302.555 128.821 302.715 128.651 302.832C128.491 302.96 128.293 303.051 128.059 303.104C127.824 303.168 127.547 303.2 127.227 303.2H126.219V301.776H127.627L128.107 300.368L125.083 291.68H126.827L128.491 296.576L128.971 298.384H129.051L129.579 296.576L131.243 291.68ZM137.528 300.192C136.952 300.192 136.424 300.091 135.944 299.888C135.474 299.685 135.074 299.397 134.744 299.024C134.413 298.64 134.157 298.181 133.976 297.648C133.794 297.104 133.704 296.501 133.704 295.84C133.704 295.179 133.794 294.581 133.976 294.048C134.157 293.504 134.413 293.045 134.744 292.672C135.074 292.288 135.474 291.995 135.944 291.792C136.424 291.589 136.952 291.488 137.528 291.488C138.104 291.488 138.626 291.589 139.096 291.792C139.576 291.995 139.981 292.288 140.312 292.672C140.642 293.045 140.898 293.504 141.08 294.048C141.261 294.581 141.352 295.179 141.352 295.84C141.352 296.501 141.261 297.104 141.08 297.648C140.898 298.181 140.642 298.64 140.312 299.024C139.981 299.397 139.576 299.685 139.096 299.888C138.626 300.091 138.104 300.192 137.528 300.192ZM137.528 298.752C138.125 298.752 138.605 298.571 138.968 298.208C139.33 297.835 139.512 297.28 139.512 296.544V295.136C139.512 294.4 139.33 293.851 138.968 293.488C138.605 293.115 138.125 292.928 137.528 292.928C136.93 292.928 136.45 293.115 136.088 293.488C135.725 293.851 135.544 294.4 135.544 295.136V296.544C135.544 297.28 135.725 297.835 136.088 298.208C136.45 298.571 136.93 298.752 137.528 298.752ZM148.335 298.624H148.271C148.196 298.827 148.095 299.024 147.967 299.216C147.85 299.408 147.695 299.579 147.503 299.728C147.322 299.867 147.098 299.979 146.831 300.064C146.575 300.149 146.276 300.192 145.935 300.192C145.071 300.192 144.399 299.915 143.919 299.36C143.45 298.805 143.215 298.011 143.215 296.976V291.68H144.959V296.752C144.959 298.043 145.492 298.688 146.559 298.688C146.783 298.688 147.002 298.661 147.215 298.608C147.428 298.544 147.615 298.453 147.775 298.336C147.946 298.219 148.079 298.069 148.175 297.888C148.282 297.707 148.335 297.493 148.335 297.248V291.68H150.079V300H148.335V298.624ZM154.88 300C154.272 300 153.813 299.845 153.504 299.536C153.195 299.216 153.04 298.768 153.04 298.192V293.104H151.744V291.68H152.448C152.736 291.68 152.933 291.616 153.04 291.488C153.157 291.36 153.216 291.152 153.216 290.864V289.408H154.784V291.68H156.528V293.104H154.784V298.576H156.4V300H154.88Z" fill="#1A1A1A"/>
<rect x="124.5" y="320.5" width="431" height="47" rx="15.5" fill="white"/>
<path d="M167.267 349.333H159.4C159.127 349.333 158.9 349.107 158.9 348.833C158.9 348.56 159.127 348.333 159.4 348.333H167.267C167.94 348.333 168.167 348.193 168.167 347.347V346.653C168.167 345.807 167.94 345.667 167.267 345.667H159.4C159.127 345.667 158.9 345.44 158.9 345.167C158.9 344.893 159.127 344.667 159.4 344.667H167.267C168.547 344.667 169.167 345.32 169.167 346.653V347.347C169.167 348.68 168.547 349.333 167.267 349.333Z" fill="#CCCCCC"/>
<path d="M163.933 343.667H159.4C159.127 343.667 158.9 343.44 158.9 343.167C158.9 342.893 159.127 342.667 159.4 342.667H163.933C164.607 342.667 164.833 342.527 164.833 341.68V340.987C164.833 340.14 164.607 340 163.933 340H159.4C159.127 340 158.9 339.773 158.9 339.5C158.9 339.227 159.127 339 159.4 339H163.933C165.213 339 165.833 339.653 165.833 340.987V341.68C165.833 343.013 165.213 343.667 163.933 343.667Z" fill="#CCCCCC"/>
<path d="M159.333 351.16C159.06 351.16 158.833 350.933 158.833 350.66V337.327C158.833 337.053 159.06 336.827 159.333 336.827C159.607 336.827 159.833 337.053 159.833 337.327V350.66C159.833 350.933 159.607 351.16 159.333 351.16Z" fill="#CCCCCC"/>
<path d="M231.738 349.333H224.689C223.436 349.333 222.829 348.68 222.829 347.347V346.653C222.829 345.32 223.436 344.667 224.689 344.667H231.738C232.991 344.667 233.598 345.32 233.598 346.653V347.347C233.598 348.68 232.991 349.333 231.738 349.333ZM224.689 345.667C224.03 345.667 223.808 345.807 223.808 346.653V347.347C223.808 348.193 224.03 348.333 224.689 348.333H231.738C232.397 348.333 232.619 348.193 232.619 347.347V346.653C232.619 345.807 232.397 345.667 231.738 345.667H224.689Z" fill="black"/>
<path d="M230.433 343.667H225.995C224.742 343.667 224.135 343.013 224.135 341.68V340.987C224.135 339.647 224.742 339 225.995 339H230.433C231.686 339 232.293 339.653 232.293 340.987V341.68C232.293 343.013 231.686 343.667 230.433 343.667ZM225.995 340C225.336 340 225.114 340.14 225.114 340.987V341.68C225.114 342.527 225.336 342.667 225.995 342.667H230.433C231.092 342.667 231.314 342.527 231.314 341.68V340.987C231.314 340.14 231.092 340 230.433 340H225.995Z" fill="black"/>
<path d="M228.214 351.167C227.946 351.167 227.724 350.94 227.724 350.667V349.067C227.724 348.793 227.946 348.567 228.214 348.567C228.481 348.567 228.703 348.793 228.703 349.067V350.667C228.703 350.94 228.481 351.167 228.214 351.167Z" fill="black"/>
<path d="M228.214 345.167C227.946 345.167 227.724 344.94 227.724 344.667V343.333C227.724 343.06 227.946 342.833 228.214 342.833C228.481 342.833 228.703 343.06 228.703 343.333V344.667C228.703 344.94 228.481 345.167 228.214 345.167Z" fill="black"/>
<path d="M228.214 339.627C227.946 339.627 227.724 339.4 227.724 339.127V337.333C227.724 337.06 227.946 336.833 228.214 336.833C228.481 336.833 228.703 337.053 228.703 337.333V339.127C228.703 339.407 228.481 339.627 228.214 339.627Z" fill="black"/>
<path d="M304.671 349.333H296.97C295.717 349.333 295.11 348.68 295.11 347.347V346.653C295.11 345.32 295.717 344.667 296.97 344.667H304.671C304.939 344.667 305.161 344.893 305.161 345.167C305.161 345.44 304.939 345.667 304.671 345.667H296.97C296.311 345.667 296.089 345.807 296.089 346.653V347.347C296.089 348.193 296.311 348.333 296.97 348.333H304.671C304.939 348.333 305.161 348.56 305.161 348.833C305.161 349.107 304.939 349.333 304.671 349.333Z" fill="#CCCCCC"/>
<path d="M304.671 343.667H300.234C298.98 343.667 298.374 343.013 298.374 341.68V340.987C298.374 339.647 298.98 339 300.234 339H304.671C304.939 339 305.161 339.227 305.161 339.5C305.161 339.773 304.939 340 304.671 340H300.234C299.574 340 299.352 340.14 299.352 340.987V341.68C299.352 342.527 299.574 342.667 300.234 342.667H304.671C304.939 342.667 305.161 342.893 305.161 343.167C305.161 343.44 304.939 343.667 304.671 343.667Z" fill="#CCCCCC"/>
<path d="M304.737 351.16C304.469 351.16 304.247 350.933 304.247 350.66V337.327C304.247 337.053 304.469 336.827 304.737 336.827C305.004 336.827 305.226 337.053 305.226 337.327V350.66C305.226 350.933 305.004 351.16 304.737 351.16Z" fill="#CCCCCC"/>
<path d="M340 328V360" stroke="#E6E6E6"/>
<path d="M382.519 349.167H381.876C380.635 349.167 380.036 348.547 380.036 347.267V339.4C380.036 339.127 380.246 338.9 380.499 338.9C380.752 338.9 380.962 339.127 380.962 339.4V347.267C380.962 347.94 381.092 348.167 381.876 348.167H382.519C383.303 348.167 383.433 347.94 383.433 347.267V339.4C383.433 339.127 383.643 338.9 383.896 338.9C384.149 338.9 384.359 339.127 384.359 339.4V347.267C384.359 348.547 383.76 349.167 382.519 349.167Z" fill="#CCCCCC"/>
<path d="M377.269 345.833H376.626C375.385 345.833 374.786 345.213 374.786 343.933V339.4C374.786 339.127 374.996 338.9 375.249 338.9C375.502 338.9 375.712 339.127 375.712 339.4V343.933C375.712 344.607 375.842 344.833 376.626 344.833H377.269C378.053 344.833 378.183 344.607 378.183 343.933V339.4C378.183 339.127 378.393 338.9 378.646 338.9C378.899 338.9 379.109 339.127 379.109 339.4V343.933C379.109 345.213 378.51 345.833 377.269 345.833Z" fill="#CCCCCC"/>
<path d="M385.588 339.833H373.235C372.976 339.833 372.772 339.607 372.772 339.333C372.772 339.06 372.976 338.833 373.235 338.833H385.588C385.842 338.833 386.052 339.06 386.052 339.333C386.052 339.607 385.848 339.833 385.588 339.833Z" fill="#CCCCCC"/>
<path d="M445.347 349.5H444.653C443.313 349.5 442.667 348.88 442.667 347.6V340.4C442.667 339.12 443.32 338.5 444.653 338.5H445.347C446.68 338.5 447.333 339.12 447.333 340.4V347.6C447.333 348.88 446.68 349.5 445.347 349.5ZM444.653 339.5C443.807 339.5 443.667 339.727 443.667 340.4V347.6C443.667 348.273 443.807 348.5 444.653 348.5H445.347C446.193 348.5 446.333 348.273 446.333 347.6V340.4C446.333 339.727 446.193 339.5 445.347 339.5H444.653Z" fill="black"/>
<path d="M451.013 348.167H450.32C448.98 348.167 448.333 347.547 448.333 346.267V341.733C448.333 340.453 448.987 339.833 450.32 339.833H451.013C452.353 339.833 453 340.453 453 341.733V346.267C453 347.547 452.347 348.167 451.013 348.167ZM450.32 340.833C449.473 340.833 449.333 341.06 449.333 341.733V346.267C449.333 346.94 449.473 347.167 450.32 347.167H451.013C451.86 347.167 452 346.94 452 346.267V341.733C452 341.06 451.86 340.833 451.013 340.833H450.32Z" fill="black"/>
<path d="M442.933 344.5H441.333C441.06 344.5 440.833 344.273 440.833 344C440.833 343.727 441.053 343.5 441.333 343.5H442.933C443.207 343.5 443.433 343.727 443.433 344C443.433 344.273 443.213 344.5 442.933 344.5Z" fill="black"/>
<path d="M448.667 344.5H447.333C447.06 344.5 446.833 344.273 446.833 344C446.833 343.727 447.06 343.5 447.333 343.5H448.667C448.94 343.5 449.167 343.727 449.167 344C449.167 344.273 448.94 344.5 448.667 344.5Z" fill="black"/>
<path d="M454.667 344.5H452.867C452.593 344.5 452.367 344.273 452.367 344C452.367 343.727 452.593 343.5 452.867 343.5H454.667C454.94 343.5 455.167 343.727 455.167 344C455.167 344.273 454.947 344.5 454.667 344.5Z" fill="black"/>
<path d="M521.072 349.1C520.819 349.1 520.609 348.873 520.609 348.6V340.733C520.609 340.06 520.479 339.833 519.695 339.833H519.053C518.268 339.833 518.139 340.06 518.139 340.733V348.6C518.139 348.873 517.929 349.1 517.675 349.1C517.422 349.1 517.212 348.873 517.212 348.6V340.733C517.212 339.453 517.817 338.833 519.053 338.833H519.695C520.936 338.833 521.536 339.453 521.536 340.733V348.6C521.536 348.873 521.326 349.1 521.072 349.1Z" fill="#CCCCCC"/>
<path d="M515.822 349.1C515.569 349.1 515.359 348.873 515.359 348.6V344.067C515.359 343.393 515.229 343.167 514.445 343.167H513.803C513.018 343.167 512.888 343.393 512.888 344.067V348.6C512.888 348.873 512.678 349.1 512.425 349.1C512.172 349.1 511.962 348.873 511.962 348.6V344.067C511.962 342.787 512.567 342.167 513.803 342.167H514.445C515.686 342.167 516.286 342.787 516.286 344.067V348.6C516.286 348.873 516.076 349.1 515.822 349.1Z" fill="#CCCCCC"/>
<path d="M522.765 349.167H510.412C510.158 349.167 509.948 348.94 509.948 348.667C509.948 348.393 510.152 348.167 510.412 348.167H522.765C523.018 348.167 523.228 348.393 523.228 348.667C523.228 348.94 523.024 349.167 522.765 349.167Z" fill="#CCCCCC"/>
<rect x="124.5" y="320.5" width="431" height="47" rx="15.5" stroke="#E6E6E6"/>
<path d="M140 378.5H555.5V425.5H140C131.44 425.5 124.5 418.56 124.5 410V394C124.5 385.44 131.44 378.5 140 378.5Z" fill="white"/>
<path d="M144.13 407.168C143.309 407.168 142.609 407.019 142.03 406.72C141.461 406.421 140.971 406.02 140.56 405.516L141.652 404.494C141.997 404.914 142.375 405.231 142.786 405.446C143.206 405.661 143.682 405.768 144.214 405.768C144.839 405.768 145.311 405.628 145.628 405.348C145.945 405.068 146.104 404.69 146.104 404.214C146.104 403.831 145.992 403.528 145.768 403.304C145.544 403.08 145.147 402.912 144.578 402.8L143.71 402.646C142.758 402.469 142.044 402.156 141.568 401.708C141.092 401.26 140.854 400.644 140.854 399.86C140.854 399.431 140.933 399.043 141.092 398.698C141.26 398.343 141.489 398.049 141.778 397.816C142.077 397.573 142.436 397.387 142.856 397.256C143.276 397.125 143.747 397.06 144.27 397.06C145.007 397.06 145.647 397.191 146.188 397.452C146.729 397.704 147.191 398.073 147.574 398.558L146.468 399.538C146.216 399.211 145.908 398.95 145.544 398.754C145.18 398.558 144.727 398.46 144.186 398.46C143.626 398.46 143.192 398.572 142.884 398.796C142.576 399.02 142.422 399.347 142.422 399.776C142.422 400.187 142.548 400.495 142.8 400.7C143.052 400.896 143.444 401.045 143.976 401.148L144.844 401.33C145.824 401.517 146.538 401.834 146.986 402.282C147.443 402.73 147.672 403.346 147.672 404.13C147.672 404.587 147.593 405.003 147.434 405.376C147.275 405.749 147.042 406.071 146.734 406.342C146.435 406.603 146.067 406.809 145.628 406.958C145.189 407.098 144.69 407.168 144.13 407.168ZM149.459 396.64H150.985V400.924H151.055C151.214 400.532 151.452 400.205 151.769 399.944C152.096 399.683 152.539 399.552 153.099 399.552C153.846 399.552 154.425 399.799 154.835 400.294C155.255 400.779 155.465 401.475 155.465 402.38V407H153.939V402.562C153.939 401.433 153.482 400.868 152.567 400.868C152.371 400.868 152.175 400.896 151.979 400.952C151.793 400.999 151.625 401.073 151.475 401.176C151.326 401.279 151.205 401.409 151.111 401.568C151.027 401.727 150.985 401.909 150.985 402.114V407H149.459V396.64ZM160.436 407.168C159.932 407.168 159.47 407.079 159.05 406.902C158.64 406.725 158.29 406.473 158 406.146C157.711 405.81 157.487 405.409 157.328 404.942C157.17 404.466 157.09 403.939 157.09 403.36C157.09 402.781 157.17 402.259 157.328 401.792C157.487 401.316 157.711 400.915 158 400.588C158.29 400.252 158.64 399.995 159.05 399.818C159.47 399.641 159.932 399.552 160.436 399.552C160.94 399.552 161.398 399.641 161.808 399.818C162.228 399.995 162.583 400.252 162.872 400.588C163.162 400.915 163.386 401.316 163.544 401.792C163.703 402.259 163.782 402.781 163.782 403.36C163.782 403.939 163.703 404.466 163.544 404.942C163.386 405.409 163.162 405.81 162.872 406.146C162.583 406.473 162.228 406.725 161.808 406.902C161.398 407.079 160.94 407.168 160.436 407.168ZM160.436 405.908C160.959 405.908 161.379 405.749 161.696 405.432C162.014 405.105 162.172 404.62 162.172 403.976V402.744C162.172 402.1 162.014 401.619 161.696 401.302C161.379 400.975 160.959 400.812 160.436 400.812C159.914 400.812 159.494 400.975 159.176 401.302C158.859 401.619 158.7 402.1 158.7 402.744V403.976C158.7 404.62 158.859 405.105 159.176 405.432C159.494 405.749 159.914 405.908 160.436 405.908ZM164.659 399.72H166.143L166.885 402.772L167.543 405.53H167.585L168.341 402.772L169.223 399.72H170.595L171.491 402.772L172.261 405.53H172.303L172.947 402.772L173.703 399.72H175.117L173.157 407H171.435L170.483 403.682L169.895 401.638H169.867L169.293 403.682L168.327 407H166.647L164.659 399.72ZM179.571 407V405.712H180.901V398.516H179.571V397.228H183.827V398.516H182.483V405.712H183.827V407H179.571ZM188.449 407.168C187.926 407.168 187.46 407.079 187.049 406.902C186.638 406.725 186.293 406.473 186.013 406.146C185.733 405.81 185.518 405.409 185.369 404.942C185.22 404.466 185.145 403.939 185.145 403.36C185.145 402.781 185.22 402.259 185.369 401.792C185.518 401.316 185.733 400.915 186.013 400.588C186.293 400.252 186.638 399.995 187.049 399.818C187.46 399.641 187.926 399.552 188.449 399.552C189.177 399.552 189.774 399.715 190.241 400.042C190.708 400.369 191.048 400.803 191.263 401.344L190.003 401.932C189.9 401.596 189.718 401.33 189.457 401.134C189.205 400.929 188.869 400.826 188.449 400.826C187.889 400.826 187.464 401.003 187.175 401.358C186.895 401.703 186.755 402.156 186.755 402.716V404.018C186.755 404.578 186.895 405.035 187.175 405.39C187.464 405.735 187.889 405.908 188.449 405.908C188.897 405.908 189.252 405.801 189.513 405.586C189.784 405.362 189.998 405.068 190.157 404.704L191.319 405.32C191.076 405.917 190.712 406.375 190.227 406.692C189.742 407.009 189.149 407.168 188.449 407.168ZM195.546 407.168C195.042 407.168 194.58 407.079 194.16 406.902C193.749 406.725 193.399 406.473 193.11 406.146C192.82 405.81 192.596 405.409 192.438 404.942C192.279 404.466 192.2 403.939 192.2 403.36C192.2 402.781 192.279 402.259 192.438 401.792C192.596 401.316 192.82 400.915 193.11 400.588C193.399 400.252 193.749 399.995 194.16 399.818C194.58 399.641 195.042 399.552 195.546 399.552C196.05 399.552 196.507 399.641 196.918 399.818C197.338 399.995 197.692 400.252 197.982 400.588C198.271 400.915 198.495 401.316 198.654 401.792C198.812 402.259 198.892 402.781 198.892 403.36C198.892 403.939 198.812 404.466 198.654 404.942C198.495 405.409 198.271 405.81 197.982 406.146C197.692 406.473 197.338 406.725 196.918 406.902C196.507 407.079 196.05 407.168 195.546 407.168ZM195.546 405.908C196.068 405.908 196.488 405.749 196.806 405.432C197.123 405.105 197.282 404.62 197.282 403.976V402.744C197.282 402.1 197.123 401.619 196.806 401.302C196.488 400.975 196.068 400.812 195.546 400.812C195.023 400.812 194.603 400.975 194.286 401.302C193.968 401.619 193.81 402.1 193.81 402.744V403.976C193.81 404.62 193.968 405.105 194.286 405.432C194.603 405.749 195.023 405.908 195.546 405.908ZM200.592 407V399.72H202.118V400.924H202.188C202.347 400.532 202.585 400.205 202.902 399.944C203.229 399.683 203.672 399.552 204.232 399.552C204.979 399.552 205.557 399.799 205.968 400.294C206.388 400.779 206.598 401.475 206.598 402.38V407H205.072V402.576C205.072 401.437 204.615 400.868 203.7 400.868C203.504 400.868 203.308 400.896 203.112 400.952C202.925 400.999 202.757 401.073 202.608 401.176C202.459 401.279 202.337 401.409 202.244 401.568C202.16 401.727 202.118 401.913 202.118 402.128V407H200.592Z" fill="black"/>
<rect x="511.167" y="390.5" width="36.3333" height="23" rx="11.5" fill="black" stroke="#E6E6E6"/>
<rect x="528" y="393" width="17" height="18" rx="8.5" fill="white"/>
<path d="M140 378.5H555.5V425.5H140C131.44 425.5 124.5 418.56 124.5 410V394C124.5 385.44 131.44 378.5 140 378.5Z" stroke="#E6E6E6"/>
<path d="M140 436.5H555.5V483.5H140C131.44 483.5 124.5 476.56 124.5 468V452C124.5 443.44 131.44 436.5 140 436.5Z" fill="white"/>
<path d="M144.13 465.168C143.309 465.168 142.609 465.019 142.03 464.72C141.461 464.421 140.971 464.02 140.56 463.516L141.652 462.494C141.997 462.914 142.375 463.231 142.786 463.446C143.206 463.661 143.682 463.768 144.214 463.768C144.839 463.768 145.311 463.628 145.628 463.348C145.945 463.068 146.104 462.69 146.104 462.214C146.104 461.831 145.992 461.528 145.768 461.304C145.544 461.08 145.147 460.912 144.578 460.8L143.71 460.646C142.758 460.469 142.044 460.156 141.568 459.708C141.092 459.26 140.854 458.644 140.854 457.86C140.854 457.431 140.933 457.043 141.092 456.698C141.26 456.343 141.489 456.049 141.778 455.816C142.077 455.573 142.436 455.387 142.856 455.256C143.276 455.125 143.747 455.06 144.27 455.06C145.007 455.06 145.647 455.191 146.188 455.452C146.729 455.704 147.191 456.073 147.574 456.558L146.468 457.538C146.216 457.211 145.908 456.95 145.544 456.754C145.18 456.558 144.727 456.46 144.186 456.46C143.626 456.46 143.192 456.572 142.884 456.796C142.576 457.02 142.422 457.347 142.422 457.776C142.422 458.187 142.548 458.495 142.8 458.7C143.052 458.896 143.444 459.045 143.976 459.148L144.844 459.33C145.824 459.517 146.538 459.834 146.986 460.282C147.443 460.73 147.672 461.346 147.672 462.13C147.672 462.587 147.593 463.003 147.434 463.376C147.275 463.749 147.042 464.071 146.734 464.342C146.435 464.603 146.067 464.809 145.628 464.958C145.189 465.098 144.69 465.168 144.13 465.168ZM149.459 454.64H150.985V458.924H151.055C151.214 458.532 151.452 458.205 151.769 457.944C152.096 457.683 152.539 457.552 153.099 457.552C153.846 457.552 154.425 457.799 154.835 458.294C155.255 458.779 155.465 459.475 155.465 460.38V465H153.939V460.562C153.939 459.433 153.482 458.868 152.567 458.868C152.371 458.868 152.175 458.896 151.979 458.952C151.793 458.999 151.625 459.073 151.475 459.176C151.326 459.279 151.205 459.409 151.111 459.568C151.027 459.727 150.985 459.909 150.985 460.114V465H149.459V454.64ZM160.436 465.168C159.932 465.168 159.47 465.079 159.05 464.902C158.64 464.725 158.29 464.473 158 464.146C157.711 463.81 157.487 463.409 157.328 462.942C157.17 462.466 157.09 461.939 157.09 461.36C157.09 460.781 157.17 460.259 157.328 459.792C157.487 459.316 157.711 458.915 158 458.588C158.29 458.252 158.64 457.995 159.05 457.818C159.47 457.641 159.932 457.552 160.436 457.552C160.94 457.552 161.398 457.641 161.808 457.818C162.228 457.995 162.583 458.252 162.872 458.588C163.162 458.915 163.386 459.316 163.544 459.792C163.703 460.259 163.782 460.781 163.782 461.36C163.782 461.939 163.703 462.466 163.544 462.942C163.386 463.409 163.162 463.81 162.872 464.146C162.583 464.473 162.228 464.725 161.808 464.902C161.398 465.079 160.94 465.168 160.436 465.168ZM160.436 463.908C160.959 463.908 161.379 463.749 161.696 463.432C162.014 463.105 162.172 462.62 162.172 461.976V460.744C162.172 460.1 162.014 459.619 161.696 459.302C161.379 458.975 160.959 458.812 160.436 458.812C159.914 458.812 159.494 458.975 159.176 459.302C158.859 459.619 158.7 460.1 158.7 460.744V461.976C158.7 462.62 158.859 463.105 159.176 463.432C159.494 463.749 159.914 463.908 160.436 463.908ZM164.659 457.72H166.143L166.885 460.772L167.543 463.53H167.585L168.341 460.772L169.223 457.72H170.595L171.491 460.772L172.261 463.53H172.303L172.947 460.772L173.703 457.72H175.117L173.157 465H171.435L170.483 461.682L169.895 459.638H169.867L169.293 461.682L168.327 465H166.647L164.659 457.72ZM182.917 465.168C182.096 465.168 181.396 465.019 180.817 464.72C180.248 464.421 179.758 464.02 179.347 463.516L180.439 462.494C180.784 462.914 181.162 463.231 181.573 463.446C181.993 463.661 182.469 463.768 183.001 463.768C183.626 463.768 184.098 463.628 184.415 463.348C184.732 463.068 184.891 462.69 184.891 462.214C184.891 461.831 184.779 461.528 184.555 461.304C184.331 461.08 183.934 460.912 183.365 460.8L182.497 460.646C181.545 460.469 180.831 460.156 180.355 459.708C179.879 459.26 179.641 458.644 179.641 457.86C179.641 457.431 179.72 457.043 179.879 456.698C180.047 456.343 180.276 456.049 180.565 455.816C180.864 455.573 181.223 455.387 181.643 455.256C182.063 455.125 182.534 455.06 183.057 455.06C183.794 455.06 184.434 455.191 184.975 455.452C185.516 455.704 185.978 456.073 186.361 456.558L185.255 457.538C185.003 457.211 184.695 456.95 184.331 456.754C183.967 456.558 183.514 456.46 182.973 456.46C182.413 456.46 181.979 456.572 181.671 456.796C181.363 457.02 181.209 457.347 181.209 457.776C181.209 458.187 181.335 458.495 181.587 458.7C181.839 458.896 182.231 459.045 182.763 459.148L183.631 459.33C184.611 459.517 185.325 459.834 185.773 460.282C186.23 460.73 186.459 461.346 186.459 462.13C186.459 462.587 186.38 463.003 186.221 463.376C186.062 463.749 185.829 464.071 185.521 464.342C185.222 464.603 184.854 464.809 184.415 464.958C183.976 465.098 183.477 465.168 182.917 465.168ZM192.712 457.72H194.182L191.116 466.442C191.032 466.685 190.934 466.89 190.822 467.058C190.72 467.235 190.594 467.375 190.444 467.478C190.304 467.59 190.132 467.669 189.926 467.716C189.721 467.772 189.478 467.8 189.198 467.8H188.316V466.554H189.548L189.968 465.322L187.322 457.72H188.848L190.304 462.004L190.724 463.586H190.794L191.256 462.004L192.712 457.72ZM195.438 465V457.72H196.964V458.924H197.034C197.108 458.737 197.197 458.56 197.3 458.392C197.412 458.224 197.542 458.079 197.692 457.958C197.85 457.827 198.032 457.729 198.238 457.664C198.452 457.589 198.7 457.552 198.98 457.552C199.474 457.552 199.913 457.673 200.296 457.916C200.678 458.159 200.958 458.532 201.136 459.036H201.178C201.308 458.625 201.56 458.275 201.934 457.986C202.307 457.697 202.788 457.552 203.376 457.552C204.104 457.552 204.668 457.799 205.07 458.294C205.471 458.779 205.672 459.475 205.672 460.38V465H204.146V460.562C204.146 460.002 204.038 459.582 203.824 459.302C203.609 459.013 203.268 458.868 202.802 458.868C202.606 458.868 202.419 458.896 202.242 458.952C202.064 458.999 201.906 459.073 201.766 459.176C201.635 459.279 201.528 459.409 201.444 459.568C201.36 459.727 201.318 459.909 201.318 460.114V465H199.792V460.562C199.792 459.433 199.348 458.868 198.462 458.868C198.275 458.868 198.088 458.896 197.902 458.952C197.724 458.999 197.566 459.073 197.426 459.176C197.286 459.279 197.174 459.409 197.09 459.568C197.006 459.727 196.964 459.909 196.964 460.114V465H195.438ZM207.783 454.64H209.309V458.924H209.379C209.538 458.485 209.795 458.149 210.149 457.916C210.513 457.673 210.938 457.552 211.423 457.552C212.347 457.552 213.061 457.888 213.565 458.56C214.069 459.223 214.321 460.156 214.321 461.36C214.321 462.564 214.069 463.502 213.565 464.174C213.061 464.837 212.347 465.168 211.423 465.168C210.938 465.168 210.513 465.047 210.149 464.804C209.795 464.561 209.538 464.225 209.379 463.796H209.309V465H207.783V454.64ZM210.961 463.852C211.493 463.852 211.918 463.684 212.235 463.348C212.553 463.003 212.711 462.55 212.711 461.99V460.73C212.711 460.17 212.553 459.722 212.235 459.386C211.918 459.041 211.493 458.868 210.961 458.868C210.495 458.868 210.103 458.985 209.785 459.218C209.468 459.442 209.309 459.741 209.309 460.114V462.606C209.309 462.979 209.468 463.283 209.785 463.516C210.103 463.74 210.495 463.852 210.961 463.852ZM218.925 465.168C218.421 465.168 217.959 465.079 217.539 464.902C217.128 464.725 216.778 464.473 216.489 464.146C216.199 463.81 215.975 463.409 215.817 462.942C215.658 462.466 215.579 461.939 215.579 461.36C215.579 460.781 215.658 460.259 215.817 459.792C215.975 459.316 216.199 458.915 216.489 458.588C216.778 458.252 217.128 457.995 217.539 457.818C217.959 457.641 218.421 457.552 218.925 457.552C219.429 457.552 219.886 457.641 220.297 457.818C220.717 457.995 221.071 458.252 221.361 458.588C221.65 458.915 221.874 459.316 222.033 459.792C222.191 460.259 222.271 460.781 222.271 461.36C222.271 461.939 222.191 462.466 222.033 462.942C221.874 463.409 221.65 463.81 221.361 464.146C221.071 464.473 220.717 464.725 220.297 464.902C219.886 465.079 219.429 465.168 218.925 465.168ZM218.925 463.908C219.447 463.908 219.867 463.749 220.185 463.432C220.502 463.105 220.661 462.62 220.661 461.976V460.744C220.661 460.1 220.502 459.619 220.185 459.302C219.867 458.975 219.447 458.812 218.925 458.812C218.402 458.812 217.982 458.975 217.665 459.302C217.347 459.619 217.189 460.1 217.189 460.744V461.976C217.189 462.62 217.347 463.105 217.665 463.432C217.982 463.749 218.402 463.908 218.925 463.908ZM225.525 465C225.002 465 224.61 464.869 224.349 464.608C224.097 464.337 223.971 463.964 223.971 463.488V454.64H225.497V463.754H226.505V465H225.525Z" fill="black"/>
<rect x="511.167" y="448.5" width="36.3333" height="23" rx="11.5" fill="#E6E6E6" stroke="#E6E6E6"/>
<rect x="514" y="451" width="17" height="18" rx="8.5" fill="white"/>
<path d="M140 436.5H555.5V483.5H140C131.44 483.5 124.5 476.56 124.5 468V452C124.5 443.44 131.44 436.5 140 436.5Z" stroke="#E6E6E6"/>
<path d="M556 499.5H92V500.5H556V499.5Z" fill="#CCCCCC" mask="url(#path-54-inside-5_204_1089)"/>
<path d="M94.3614 530.5C94.2737 530.5 94.186 530.468 94.1168 530.398C93.983 530.265 93.983 530.043 94.1168 529.909L97.1253 526.901C97.3468 526.679 97.3468 526.319 97.1253 526.098L94.1168 523.089C93.983 522.956 93.983 522.734 94.1168 522.6C94.2506 522.467 94.4721 522.467 94.6059 522.6L97.6144 525.609C97.8498 525.844 97.9836 526.163 97.9836 526.499C97.9836 526.836 97.8544 527.155 97.6144 527.39L94.6059 530.398C94.5367 530.463 94.449 530.5 94.3614 530.5Z" fill="#292D32"/>
<path d="M113.568 533.192C112.107 533.192 110.96 532.701 110.128 531.72C109.296 530.728 108.88 529.293 108.88 527.416C108.88 526.477 108.987 525.651 109.2 524.936C109.413 524.221 109.723 523.619 110.128 523.128C110.533 522.637 111.024 522.269 111.6 522.024C112.187 521.768 112.843 521.64 113.568 521.64C114.539 521.64 115.349 521.853 116 522.28C116.661 522.707 117.179 523.336 117.552 524.168L116.032 525C115.84 524.467 115.541 524.045 115.136 523.736C114.741 523.416 114.219 523.256 113.568 523.256C112.704 523.256 112.027 523.549 111.536 524.136C111.045 524.723 110.8 525.533 110.8 526.568V528.264C110.8 529.299 111.045 530.109 111.536 530.696C112.027 531.283 112.704 531.576 113.568 531.576C114.24 531.576 114.784 531.405 115.2 531.064C115.627 530.712 115.941 530.264 116.144 529.72L117.6 530.6C117.227 531.411 116.704 532.045 116.032 532.504C115.36 532.963 114.539 533.192 113.568 533.192ZM122.653 533.192C122.077 533.192 121.549 533.091 121.069 532.888C120.599 532.685 120.199 532.397 119.869 532.024C119.538 531.64 119.282 531.181 119.101 530.648C118.919 530.104 118.829 529.501 118.829 528.84C118.829 528.179 118.919 527.581 119.101 527.048C119.282 526.504 119.538 526.045 119.869 525.672C120.199 525.288 120.599 524.995 121.069 524.792C121.549 524.589 122.077 524.488 122.653 524.488C123.229 524.488 123.751 524.589 124.221 524.792C124.701 524.995 125.106 525.288 125.437 525.672C125.767 526.045 126.023 526.504 126.205 527.048C126.386 527.581 126.477 528.179 126.477 528.84C126.477 529.501 126.386 530.104 126.205 530.648C126.023 531.181 125.767 531.64 125.437 532.024C125.106 532.397 124.701 532.685 124.221 532.888C123.751 533.091 123.229 533.192 122.653 533.192ZM122.653 531.752C123.25 531.752 123.73 531.571 124.093 531.208C124.455 530.835 124.637 530.28 124.637 529.544V528.136C124.637 527.4 124.455 526.851 124.093 526.488C123.73 526.115 123.25 525.928 122.653 525.928C122.055 525.928 121.575 526.115 121.213 526.488C120.85 526.851 120.669 527.4 120.669 528.136V529.544C120.669 530.28 120.85 530.835 121.213 531.208C121.575 531.571 122.055 531.752 122.653 531.752ZM130.196 533C129.599 533 129.151 532.851 128.852 532.552C128.564 532.243 128.42 531.816 128.42 531.272V521.16H130.164V531.576H131.316V533H130.196ZM136.246 533.192C135.67 533.192 135.142 533.091 134.662 532.888C134.193 532.685 133.793 532.397 133.462 532.024C133.132 531.64 132.876 531.181 132.694 530.648C132.513 530.104 132.422 529.501 132.422 528.84C132.422 528.179 132.513 527.581 132.694 527.048C132.876 526.504 133.132 526.045 133.462 525.672C133.793 525.288 134.193 524.995 134.662 524.792C135.142 524.589 135.67 524.488 136.246 524.488C136.822 524.488 137.345 524.589 137.814 524.792C138.294 524.995 138.7 525.288 139.03 525.672C139.361 526.045 139.617 526.504 139.798 527.048C139.98 527.581 140.07 528.179 140.07 528.84C140.07 529.501 139.98 530.104 139.798 530.648C139.617 531.181 139.361 531.64 139.03 532.024C138.7 532.397 138.294 532.685 137.814 532.888C137.345 533.091 136.822 533.192 136.246 533.192ZM136.246 531.752C136.844 531.752 137.324 531.571 137.686 531.208C138.049 530.835 138.23 530.28 138.23 529.544V528.136C138.23 527.4 138.049 526.851 137.686 526.488C137.324 526.115 136.844 525.928 136.246 525.928C135.649 525.928 135.169 526.115 134.806 526.488C134.444 526.851 134.262 527.4 134.262 528.136V529.544C134.262 530.28 134.444 530.835 134.806 531.208C135.169 531.571 135.649 531.752 136.246 531.752ZM142.014 533V524.68H143.758V526.28H143.838C143.955 525.853 144.2 525.48 144.574 525.16C144.947 524.84 145.464 524.68 146.126 524.68H146.59V526.36H145.902C145.208 526.36 144.675 526.472 144.302 526.696C143.939 526.92 143.758 527.251 143.758 527.688V533H142.014Z" fill="#1A1A1A"/>
<path d="M556 552.5H92V553.5H556V552.5Z" fill="#CCCCCC" mask="url(#path-91-inside-6_204_1089)"/>
</g>
<rect x="0.5" y="0.5" width="595" height="555" rx="15.5" stroke="#CCCCCC"/>
<defs>
<clipPath id="clip0_204_1089">
<rect x="68" y="24" width="512" height="512" rx="16" fill="white"/>
</clipPath>
</defs>
</svg>
