<svg width="463" height="120" viewBox="0 0 463 120" fill="none" xmlns="http://www.w3.org/2000/svg">
<rect width="239" height="120" rx="20" fill="white"/>
<path d="M111 19.5H36C26.8873 19.5 19.5 26.8873 19.5 36V80.8C19.5 91.68 28.32 100.5 39.2 100.5H107.8C118.68 100.5 127.5 91.68 127.5 80.8V36C127.5 26.8873 120.113 19.5 111 19.5Z" fill="black" stroke="black"/>
<rect x="19.5" y="19.5" width="108" height="73" rx="16.5" fill="white"/>
<path d="M98.8899 46.2614C98.4392 46.2614 98.0263 46.1515 97.6513 45.9318C97.2763 45.7083 96.977 45.4091 96.7536 45.0341C96.5339 44.6591 96.424 44.2462 96.424 43.7955C96.424 43.3409 96.5339 42.9261 96.7536 42.5511C96.977 42.1761 97.2763 41.8769 97.6513 41.6534C98.0263 41.4299 98.4392 41.3182 98.8899 41.3182H100.208V39.0341H98.8899C98.4392 39.0341 98.0263 38.9242 97.6513 38.7045C97.2763 38.4811 96.977 38.1837 96.7536 37.8125C96.5339 37.4375 96.424 37.0227 96.424 36.5682C96.424 36.1136 96.5339 35.7008 96.7536 35.3295C96.977 34.9545 97.2763 34.6572 97.6513 34.4375C98.0263 34.214 98.4392 34.1023 98.8899 34.1023C99.3445 34.1023 99.7592 34.214 100.134 34.4375C100.509 34.6572 100.808 34.9545 101.032 35.3295C101.255 35.7008 101.367 36.1136 101.367 36.5682V37.875H103.651V36.5682C103.651 36.1136 103.761 35.7008 103.981 35.3295C104.204 34.9545 104.502 34.6572 104.873 34.4375C105.248 34.214 105.663 34.1023 106.117 34.1023C106.572 34.1023 106.985 34.214 107.356 34.4375C107.731 34.6572 108.028 34.9545 108.248 35.3295C108.471 35.7008 108.583 36.1136 108.583 36.5682C108.583 37.0227 108.471 37.4375 108.248 37.8125C108.028 38.1837 107.731 38.4811 107.356 38.7045C106.985 38.9242 106.572 39.0341 106.117 39.0341H104.81V41.3182H106.117C106.572 41.3182 106.985 41.4299 107.356 41.6534C107.731 41.8769 108.028 42.1761 108.248 42.5511C108.471 42.9261 108.583 43.3409 108.583 43.7955C108.583 44.2462 108.471 44.6591 108.248 45.0341C108.028 45.4091 107.731 45.7083 107.356 45.9318C106.985 46.1515 106.572 46.2614 106.117 46.2614C105.663 46.2614 105.248 46.1515 104.873 45.9318C104.502 45.7083 104.204 45.4091 103.981 45.0341C103.761 44.6591 103.651 44.2462 103.651 43.7955V42.4773H101.367V43.7955C101.367 44.2462 101.255 44.6591 101.032 45.0341C100.808 45.4091 100.509 45.7083 100.134 45.9318C99.7592 46.1515 99.3445 46.2614 98.8899 46.2614ZM98.8899 45.1023C99.1323 45.1023 99.352 45.0436 99.549 44.9261C99.7498 44.8087 99.9089 44.6515 100.026 44.4545C100.147 44.2538 100.208 44.0341 100.208 43.7955V42.4773H98.8899C98.6513 42.4773 98.4316 42.5379 98.2308 42.6591C98.0339 42.7765 97.8767 42.9356 97.7592 43.1364C97.6418 43.3333 97.5831 43.553 97.5831 43.7955C97.5831 44.0341 97.6418 44.2538 97.7592 44.4545C97.8767 44.6515 98.0339 44.8087 98.2308 44.9261C98.4316 45.0436 98.6513 45.1023 98.8899 45.1023ZM98.8899 37.875H100.208V36.5682C100.208 36.3258 100.147 36.1061 100.026 35.9091C99.9089 35.7121 99.7498 35.5549 99.549 35.4375C99.352 35.3201 99.1323 35.2614 98.8899 35.2614C98.6513 35.2614 98.4316 35.3201 98.2308 35.4375C98.0339 35.5549 97.8767 35.7121 97.7592 35.9091C97.6418 36.1061 97.5831 36.3258 97.5831 36.5682C97.5831 36.8106 97.6418 37.0322 97.7592 37.233C97.8767 37.4299 98.0339 37.5871 98.2308 37.7045C98.4316 37.8182 98.6513 37.875 98.8899 37.875ZM104.81 37.875H106.117C106.36 37.875 106.579 37.8182 106.776 37.7045C106.973 37.5871 107.13 37.4299 107.248 37.233C107.365 37.0322 107.424 36.8106 107.424 36.5682C107.424 36.3258 107.365 36.1061 107.248 35.9091C107.13 35.7121 106.973 35.5549 106.776 35.4375C106.579 35.3201 106.36 35.2614 106.117 35.2614C105.875 35.2614 105.653 35.3201 105.452 35.4375C105.255 35.5549 105.098 35.7121 104.981 35.9091C104.867 36.1061 104.81 36.3258 104.81 36.5682V37.875ZM106.117 45.1023C106.36 45.1023 106.579 45.0436 106.776 44.9261C106.973 44.8087 107.13 44.6515 107.248 44.4545C107.365 44.2538 107.424 44.0341 107.424 43.7955C107.424 43.553 107.365 43.3333 107.248 43.1364C107.13 42.9356 106.973 42.7765 106.776 42.6591C106.579 42.5379 106.36 42.4773 106.117 42.4773H104.81V43.7955C104.81 44.0341 104.867 44.2538 104.981 44.4545C105.098 44.6515 105.255 44.8087 105.452 44.9261C105.653 45.0436 105.875 45.1023 106.117 45.1023ZM101.367 41.3182H103.651V39.0341H101.367V41.3182Z" fill="black"/>
<path d="M40.968 76.1818C40.1499 76.1818 39.4453 75.9886 38.8544 75.6023C38.2635 75.2159 37.8089 74.6837 37.4908 74.0057C37.1726 73.3277 37.0135 72.553 37.0135 71.6818C37.0135 70.7955 37.1764 70.0133 37.5021 69.3352C37.8317 68.6534 38.29 68.1212 38.8771 67.7386C39.468 67.3523 40.1574 67.1591 40.9453 67.1591C41.5589 67.1591 42.112 67.2727 42.6044 67.5C43.0968 67.7273 43.5002 68.0455 43.8146 68.4545C44.129 68.8636 44.3241 69.3409 44.3999 69.8864H43.0589C42.9567 69.4886 42.7294 69.1364 42.3771 68.8295C42.0286 68.5189 41.5589 68.3636 40.968 68.3636C40.4453 68.3636 39.987 68.5 39.593 68.7727C39.2029 69.0417 38.898 69.4223 38.6783 69.9148C38.4624 70.4034 38.3544 70.9773 38.3544 71.6364C38.3544 72.3106 38.4605 72.8977 38.6726 73.3977C38.8885 73.8977 39.1915 74.286 39.5817 74.5625C39.9756 74.839 40.4377 74.9773 40.968 74.9773C41.3165 74.9773 41.6328 74.9167 41.9169 74.7955C42.201 74.6742 42.4415 74.5 42.6385 74.2727C42.8355 74.0455 42.9756 73.7727 43.0589 73.4545H44.3999C44.3241 73.9697 44.1366 74.4337 43.8374 74.8466C43.5419 75.2557 43.1499 75.5814 42.6612 75.8239C42.1764 76.0625 41.612 76.1818 40.968 76.1818ZM49.9055 76.1818C49.1177 76.1818 48.4264 75.9943 47.8317 75.6193C47.2408 75.2443 46.7786 74.7197 46.4453 74.0455C46.1158 73.3712 45.951 72.5833 45.951 71.6818C45.951 70.7727 46.1158 69.9792 46.4453 69.3011C46.7786 68.6231 47.2408 68.0966 47.8317 67.7216C48.4264 67.3466 49.1177 67.1591 49.9055 67.1591C50.6934 67.1591 51.3828 67.3466 51.9737 67.7216C52.5684 68.0966 53.0305 68.6231 53.3601 69.3011C53.6934 69.9792 53.8601 70.7727 53.8601 71.6818C53.8601 72.5833 53.6934 73.3712 53.3601 74.0455C53.0305 74.7197 52.5684 75.2443 51.9737 75.6193C51.3828 75.9943 50.6934 76.1818 49.9055 76.1818ZM49.9055 74.9773C50.504 74.9773 50.9964 74.8239 51.3828 74.517C51.7692 74.2102 52.0552 73.8068 52.2408 73.3068C52.4264 72.8068 52.5192 72.2652 52.5192 71.6818C52.5192 71.0985 52.4264 70.5549 52.2408 70.0511C52.0552 69.5473 51.7692 69.1402 51.3828 68.8295C50.9964 68.5189 50.504 68.3636 49.9055 68.3636C49.3071 68.3636 48.8146 68.5189 48.4283 68.8295C48.0419 69.1402 47.7559 69.5473 47.5703 70.0511C47.3847 70.5549 47.2919 71.0985 47.2919 71.6818C47.2919 72.2652 47.3847 72.8068 47.5703 73.3068C47.7559 73.8068 48.0419 74.2102 48.4283 74.517C48.8146 74.8239 49.3071 74.9773 49.9055 74.9773ZM55.907 76V67.2727H57.2024V68.6364H57.3161C57.4979 68.1705 57.7914 67.8087 58.1967 67.5511C58.602 67.2898 59.0888 67.1591 59.657 67.1591C60.2327 67.1591 60.7119 67.2898 61.0945 67.5511C61.4808 67.8087 61.782 68.1705 61.9979 68.6364H62.0888C62.3123 68.1856 62.6475 67.8277 63.0945 67.5625C63.5414 67.2936 64.0774 67.1591 64.7024 67.1591C65.4827 67.1591 66.121 67.4034 66.6172 67.892C67.1134 68.3769 67.3615 69.1326 67.3615 70.1591V76H66.0206V70.1591C66.0206 69.5152 65.8445 69.0549 65.4922 68.7784C65.1399 68.5019 64.7251 68.3636 64.2479 68.3636C63.6342 68.3636 63.1589 68.5492 62.8217 68.9205C62.4846 69.2879 62.3161 69.7538 62.3161 70.3182V76H60.9524V70.0227C60.9524 69.5265 60.7914 69.1269 60.4695 68.8239C60.1475 68.517 59.7327 68.3636 59.2251 68.3636C58.8767 68.3636 58.5509 68.4564 58.2479 68.642C57.9486 68.8277 57.7062 69.0852 57.5206 69.4148C57.3388 69.7405 57.2479 70.1174 57.2479 70.5455V76H55.907ZM69.8132 76V67.2727H71.1087V68.6364H71.2223C71.4041 68.1705 71.6977 67.8087 72.103 67.5511C72.5083 67.2898 72.995 67.1591 73.5632 67.1591C74.139 67.1591 74.6181 67.2898 75.0007 67.5511C75.3871 67.8087 75.6882 68.1705 75.9041 68.6364H75.995C76.2185 68.1856 76.5537 67.8277 77.0007 67.5625C77.4477 67.2936 77.9837 67.1591 78.6087 67.1591C79.389 67.1591 80.0272 67.4034 80.5234 67.892C81.0197 68.3769 81.2678 69.1326 81.2678 70.1591V76H79.9268V70.1591C79.9268 69.5152 79.7507 69.0549 79.3984 68.7784C79.0462 68.5019 78.6314 68.3636 78.1541 68.3636C77.5405 68.3636 77.0651 68.5492 76.728 68.9205C76.3909 69.2879 76.2223 69.7538 76.2223 70.3182V76H74.8587V70.0227C74.8587 69.5265 74.6977 69.1269 74.3757 68.8239C74.0537 68.517 73.639 68.3636 73.1314 68.3636C72.7829 68.3636 72.4571 68.4564 72.1541 68.642C71.8549 68.8277 71.6125 69.0852 71.4268 69.4148C71.245 69.7405 71.1541 70.1174 71.1541 70.5455V76H69.8132ZM86.2876 76.2045C85.7346 76.2045 85.2327 76.1004 84.782 75.892C84.3312 75.6799 83.9732 75.375 83.7081 74.9773C83.4429 74.5758 83.3104 74.0909 83.3104 73.5227C83.3104 73.0227 83.4089 72.6174 83.6058 72.3068C83.8028 71.9924 84.0661 71.7462 84.3956 71.5682C84.7251 71.3902 85.0888 71.2576 85.4865 71.1705C85.888 71.0795 86.2914 71.0076 86.6967 70.9545C87.227 70.8864 87.657 70.8352 87.9865 70.8011C88.3198 70.7633 88.5623 70.7008 88.7138 70.6136C88.8691 70.5265 88.9467 70.375 88.9467 70.1591V70.1136C88.9467 69.553 88.7933 69.1174 88.4865 68.8068C88.1835 68.4962 87.7232 68.3409 87.1058 68.3409C86.4657 68.3409 85.9638 68.4811 85.6001 68.7614C85.2365 69.0417 84.9808 69.3409 84.8331 69.6591L83.5604 69.2045C83.7876 68.6742 84.0907 68.2614 84.4695 67.9659C84.852 67.6667 85.2687 67.4583 85.7195 67.3409C86.174 67.2197 86.621 67.1591 87.0604 67.1591C87.3407 67.1591 87.6626 67.1932 88.0263 67.2614C88.3937 67.3258 88.7479 67.4602 89.0888 67.6648C89.4335 67.8693 89.7195 68.178 89.9467 68.5909C90.174 69.0038 90.2876 69.5568 90.2876 70.25V76H88.9467V74.8182H88.8786C88.7876 75.0076 88.6361 75.2102 88.424 75.4261C88.2119 75.642 87.9297 75.8258 87.5774 75.9773C87.2251 76.1288 86.7952 76.2045 86.2876 76.2045ZM86.4922 75C87.0225 75 87.4695 74.8958 87.8331 74.6875C88.2005 74.4792 88.477 74.2102 88.6626 73.8807C88.852 73.5511 88.9467 73.2045 88.9467 72.8409V71.6136C88.8899 71.6818 88.7649 71.7443 88.5717 71.8011C88.3823 71.8542 88.1626 71.9015 87.9126 71.9432C87.6664 71.9811 87.4259 72.0152 87.1911 72.0455C86.96 72.072 86.7725 72.0947 86.6286 72.1136C86.2801 72.1591 85.9543 72.233 85.6513 72.3352C85.352 72.4337 85.1096 72.5833 84.924 72.7841C84.7422 72.9811 84.6513 73.25 84.6513 73.5909C84.6513 74.0568 84.8236 74.4091 85.1683 74.6477C85.5168 74.8826 85.9581 75 86.4922 75ZM94.076 70.75V76H92.7351V67.2727H94.0305V68.6364H94.1442C94.3487 68.1932 94.6593 67.8371 95.076 67.5682C95.4927 67.2955 96.0305 67.1591 96.6896 67.1591C97.2805 67.1591 97.7976 67.2803 98.2408 67.5227C98.6839 67.7614 99.0286 68.125 99.2749 68.6136C99.5211 69.0985 99.6442 69.7121 99.6442 70.4545V76H98.3033V70.5455C98.3033 69.8598 98.1252 69.3258 97.7692 68.9432C97.4131 68.5568 96.9245 68.3636 96.3033 68.3636C95.8752 68.3636 95.4927 68.4564 95.1555 68.642C94.8222 68.8277 94.5589 69.0985 94.3658 69.4545C94.1726 69.8106 94.076 70.2424 94.076 70.75ZM105.39 76.1818C104.663 76.1818 104.021 75.9981 103.464 75.6307C102.907 75.2595 102.471 74.7367 102.157 74.0625C101.843 73.3845 101.685 72.5833 101.685 71.6591C101.685 70.7424 101.843 69.947 102.157 69.2727C102.471 68.5985 102.909 68.0777 103.469 67.7102C104.03 67.3428 104.678 67.1591 105.413 67.1591C105.981 67.1591 106.43 67.2538 106.759 67.4432C107.093 67.6288 107.346 67.8409 107.521 68.0795C107.699 68.3144 107.837 68.5076 107.935 68.6591H108.049V64.3636H109.39V76H108.094V74.6591H107.935C107.837 74.8182 107.697 75.0189 107.515 75.2614C107.333 75.5 107.074 75.714 106.737 75.9034C106.399 76.089 105.951 76.1818 105.39 76.1818ZM105.572 74.9773C106.11 74.9773 106.564 74.8371 106.935 74.5568C107.307 74.2727 107.589 73.8807 107.782 73.3807C107.975 72.8769 108.072 72.2955 108.072 71.6364C108.072 70.9848 107.977 70.4148 107.788 69.9261C107.598 69.4337 107.318 69.0511 106.947 68.7784C106.576 68.5019 106.117 68.3636 105.572 68.3636C105.004 68.3636 104.53 68.5095 104.151 68.8011C103.776 69.089 103.494 69.4811 103.305 69.9773C103.119 70.4697 103.026 71.0227 103.026 71.6364C103.026 72.2576 103.121 72.822 103.31 73.3295C103.504 73.8333 103.788 74.2348 104.163 74.5341C104.541 74.8295 105.011 74.9773 105.572 74.9773Z" fill="black"/>
<rect x="19.5" y="19.5" width="108" height="73" rx="16.5" stroke="black"/>
<path d="M203 19.5H163C153.887 19.5 146.5 26.8873 146.5 36V80.8C146.5 91.68 155.32 100.5 166.2 100.5H199.8C210.68 100.5 219.5 91.68 219.5 80.8V36C219.5 26.8873 212.113 19.5 203 19.5Z" fill="black" stroke="black"/>
<rect x="146.5" y="19.5" width="73" height="73" rx="16.5" fill="white"/>
<path d="M183 47.1666C179.967 47.1666 177.5 44.6999 177.5 41.6666V38.3333C177.5 35.2999 179.967 32.8333 183 32.8333C186.033 32.8333 188.5 35.2999 188.5 38.3333V41.6666C188.5 44.6999 186.033 47.1666 183 47.1666ZM183 33.8333C180.52 33.8333 178.5 35.8533 178.5 38.3333V41.6666C178.5 44.1466 180.52 46.1666 183 46.1666C185.48 46.1666 187.5 44.1466 187.5 41.6666V38.3333C187.5 35.8533 185.48 33.8333 183 33.8333Z" fill="black"/>
<path d="M183 39.8333C182.173 39.8333 181.5 39.16 181.5 38.3333V37C181.5 36.1733 182.173 35.5 183 35.5C183.827 35.5 184.5 36.1733 184.5 37V38.3333C184.5 39.16 183.827 39.8333 183 39.8333ZM183 36.5C182.727 36.5 182.5 36.7267 182.5 37V38.3333C182.5 38.6067 182.727 38.8333 183 38.8333C183.273 38.8333 183.5 38.6067 183.5 38.3333V37C183.5 36.7267 183.273 36.5 183 36.5Z" fill="black"/>
<path d="M183 36.4999C182.727 36.4999 182.5 36.2733 182.5 35.9999V33.3333C182.5 33.0599 182.727 32.8333 183 32.8333C183.273 32.8333 183.5 33.0599 183.5 33.3333V35.9999C183.5 36.2733 183.273 36.4999 183 36.4999Z" fill="black"/>
<path d="M183 40H178.5V38C178.5 34.5 181 33.5 183 33.5V35.5C183 35.5 182 36 182 36.5V38.5C182 38.9 182.667 39.3333 183 39.5V40Z" fill="url(#paint0_linear_479_5588)"/>
<path d="M170.687 76.1818C169.869 76.1818 169.164 75.9886 168.573 75.6023C167.982 75.2159 167.528 74.6837 167.21 74.0057C166.891 73.3277 166.732 72.553 166.732 71.6818C166.732 70.7955 166.895 70.0133 167.221 69.3352C167.55 68.6534 168.009 68.1212 168.596 67.7386C169.187 67.3523 169.876 67.1591 170.664 67.1591C171.278 67.1591 171.831 67.2727 172.323 67.5C172.816 67.7273 173.219 68.0455 173.533 68.4545C173.848 68.8636 174.043 69.3409 174.119 69.8864H172.778C172.675 69.4886 172.448 69.1364 172.096 68.8295C171.747 68.5189 171.278 68.3636 170.687 68.3636C170.164 68.3636 169.706 68.5 169.312 68.7727C168.922 69.0417 168.617 69.4223 168.397 69.9148C168.181 70.4034 168.073 70.9773 168.073 71.6364C168.073 72.3106 168.179 72.8977 168.391 73.3977C168.607 73.8977 168.91 74.286 169.3 74.5625C169.694 74.839 170.156 74.9773 170.687 74.9773C171.035 74.9773 171.352 74.9167 171.636 74.7955C171.92 74.6742 172.16 74.5 172.357 74.2727C172.554 74.0455 172.694 73.7727 172.778 73.4545H174.119C174.043 73.9697 173.855 74.4337 173.556 74.8466C173.261 75.2557 172.869 75.5814 172.38 75.8239C171.895 76.0625 171.331 76.1818 170.687 76.1818ZM177.42 64.3636V76H176.079V64.3636H177.42ZM179.876 76V67.2727H181.217V76H179.876ZM180.558 65.8182C180.296 65.8182 180.071 65.7292 179.881 65.5511C179.696 65.3731 179.603 65.1591 179.603 64.9091C179.603 64.6591 179.696 64.4451 179.881 64.267C180.071 64.089 180.296 64 180.558 64C180.819 64 181.042 64.089 181.228 64.267C181.417 64.4451 181.512 64.6591 181.512 64.9091C181.512 65.1591 181.417 65.3731 181.228 65.5511C181.042 65.7292 180.819 65.8182 180.558 65.8182ZM187.218 76.1818C186.4 76.1818 185.695 75.9886 185.104 75.6023C184.513 75.2159 184.059 74.6837 183.741 74.0057C183.423 73.3277 183.263 72.553 183.263 71.6818C183.263 70.7955 183.426 70.0133 183.752 69.3352C184.082 68.6534 184.54 68.1212 185.127 67.7386C185.718 67.3523 186.407 67.1591 187.195 67.1591C187.809 67.1591 188.362 67.2727 188.854 67.5C189.347 67.7273 189.75 68.0455 190.065 68.4545C190.379 68.8636 190.574 69.3409 190.65 69.8864H189.309C189.207 69.4886 188.979 69.1364 188.627 68.8295C188.279 68.5189 187.809 68.3636 187.218 68.3636C186.695 68.3636 186.237 68.5 185.843 68.7727C185.453 69.0417 185.148 69.4223 184.928 69.9148C184.712 70.4034 184.604 70.9773 184.604 71.6364C184.604 72.3106 184.71 72.8977 184.923 73.3977C185.138 73.8977 185.442 74.286 185.832 74.5625C186.226 74.839 186.688 74.9773 187.218 74.9773C187.567 74.9773 187.883 74.9167 188.167 74.7955C188.451 74.6742 188.692 74.5 188.888 74.2727C189.085 74.0455 189.226 73.7727 189.309 73.4545H190.65C190.574 73.9697 190.387 74.4337 190.087 74.8466C189.792 75.2557 189.4 75.5814 188.911 75.8239C188.426 76.0625 187.862 76.1818 187.218 76.1818ZM193.86 72.8182L193.837 71.1591H194.11L197.928 67.2727H199.587L195.519 71.3864H195.406L193.86 72.8182ZM192.61 76V64.3636H193.951V76H192.61ZM198.156 76L194.746 71.6818L195.701 70.75L199.86 76H198.156Z" fill="black"/>
<rect x="146.5" y="19.5" width="73" height="73" rx="16.5" stroke="black"/>
<rect x="259" width="204" height="120" rx="20" fill="white"/>
<path d="M335 19.5H295C285.887 19.5 278.5 26.8873 278.5 36V80.8C278.5 91.68 287.32 100.5 298.2 100.5H331.8C342.68 100.5 351.5 91.68 351.5 80.8V36C351.5 26.8873 344.113 19.5 335 19.5Z" fill="black" stroke="black"/>
<rect x="278.5" y="19.5" width="73" height="73" rx="16.5" fill="white"/>
<path d="M328.643 33.6566H333.482V34.7677H328.643V33.6566ZM321.522 34.7677V33.6566H325.502L330.169 42.8889H333.482V44H329.502L324.835 34.7677H321.522Z" fill="black"/>
<path d="M319.983 76.2045C319.43 76.2045 318.928 76.1004 318.477 75.892C318.027 75.6799 317.669 75.375 317.403 74.9773C317.138 74.5758 317.006 74.0909 317.006 73.5227C317.006 73.0227 317.104 72.6174 317.301 72.3068C317.498 71.9924 317.761 71.7462 318.091 71.5682C318.42 71.3902 318.784 71.2576 319.182 71.1705C319.583 71.0795 319.987 71.0076 320.392 70.9545C320.922 70.8864 321.352 70.8352 321.682 70.8011C322.015 70.7633 322.258 70.7008 322.409 70.6136C322.564 70.5265 322.642 70.375 322.642 70.1591V70.1136C322.642 69.553 322.489 69.1174 322.182 68.8068C321.879 68.4962 321.419 68.3409 320.801 68.3409C320.161 68.3409 319.659 68.4811 319.295 68.7614C318.932 69.0417 318.676 69.3409 318.528 69.6591L317.256 69.2045C317.483 68.6742 317.786 68.2614 318.165 67.9659C318.547 67.6667 318.964 67.4583 319.415 67.3409C319.869 67.2197 320.316 67.1591 320.756 67.1591C321.036 67.1591 321.358 67.1932 321.722 67.2614C322.089 67.3258 322.443 67.4602 322.784 67.6648C323.129 67.8693 323.415 68.178 323.642 68.5909C323.869 69.0038 323.983 69.5568 323.983 70.25V76H322.642V74.8182H322.574C322.483 75.0076 322.331 75.2102 322.119 75.4261C321.907 75.642 321.625 75.8258 321.273 75.9773C320.92 76.1288 320.491 76.2045 319.983 76.2045ZM320.188 75C320.718 75 321.165 74.8958 321.528 74.6875C321.896 74.4792 322.172 74.2102 322.358 73.8807C322.547 73.5511 322.642 73.2045 322.642 72.8409V71.6136C322.585 71.6818 322.46 71.7443 322.267 71.8011C322.078 71.8542 321.858 71.9015 321.608 71.9432C321.362 71.9811 321.121 72.0152 320.886 72.0455C320.655 72.072 320.468 72.0947 320.324 72.1136C319.975 72.1591 319.65 72.233 319.347 72.3352C319.047 72.4337 318.805 72.5833 318.619 72.7841C318.438 72.9811 318.347 73.25 318.347 73.5909C318.347 74.0568 318.519 74.4091 318.864 74.6477C319.212 74.8826 319.653 75 320.188 75ZM327.771 64.3636V76H326.43V64.3636H327.771ZM334.023 67.2727V68.4091H329.5V67.2727H334.023ZM330.818 65.1818H332.159V73.5C332.159 73.8788 332.214 74.1629 332.324 74.3523C332.438 74.5379 332.581 74.6629 332.756 74.7273C332.934 74.7879 333.121 74.8182 333.318 74.8182C333.466 74.8182 333.587 74.8106 333.682 74.7955C333.777 74.7765 333.852 74.7614 333.909 74.75L334.182 75.9545C334.091 75.9886 333.964 76.0227 333.801 76.0568C333.638 76.0947 333.432 76.1136 333.182 76.1136C332.803 76.1136 332.432 76.0322 332.068 75.8693C331.708 75.7064 331.409 75.4583 331.17 75.125C330.936 74.7917 330.818 74.3712 330.818 73.8636V65.1818Z" fill="black"/>
<rect x="278.5" y="19.5" width="73" height="73" rx="16.5" stroke="black"/>
<path d="M427 19.5H387C377.887 19.5 370.5 26.8873 370.5 36V80.8C370.5 91.68 379.32 100.5 390.2 100.5H423.8C434.68 100.5 443.5 91.68 443.5 80.8V36C443.5 26.8873 436.113 19.5 427 19.5Z" fill="black" stroke="black"/>
<rect x="370.5" y="19.5" width="73" height="73" rx="16.5" fill="white"/>
<path d="M401 38.5C401.273 38.5 401.5 38.2733 401.5 38V34.5H405C405.273 34.5 405.5 34.2733 405.5 34C405.5 33.7267 405.273 33.5 405 33.5H401C400.727 33.5 400.5 33.7267 400.5 34V38C400.5 38.2733 400.727 38.5 401 38.5Z" fill="black"/>
<path d="M409 46.5H413C413.273 46.5 413.5 46.2733 413.5 46V42C413.5 41.7267 413.273 41.5 413 41.5C412.727 41.5 412.5 41.7267 412.5 42V45.5H409C408.727 45.5 408.5 45.7267 408.5 46C408.5 46.2733 408.727 46.5 409 46.5Z" fill="black"/>
<path d="M406 39.5C406.127 39.5 406.253 39.4533 406.353 39.3533C406.547 39.16 406.547 38.84 406.353 38.6467L401.353 33.6467C401.16 33.4533 400.84 33.4533 400.647 33.6467C400.453 33.84 400.453 34.16 400.647 34.3533L405.647 39.3533C405.747 39.4533 405.873 39.5 406 39.5Z" fill="black"/>
<path d="M413 46.5C413.127 46.5 413.253 46.4533 413.353 46.3533C413.547 46.16 413.547 45.84 413.353 45.6467L408.353 40.6467C408.16 40.4533 407.84 40.4533 407.647 40.6467C407.453 40.84 407.453 41.16 407.647 41.3533L412.647 46.3533C412.747 46.4533 412.873 46.5 413 46.5Z" fill="black"/>
<path d="M394.195 76.1818C393.467 76.1818 392.825 75.9981 392.268 75.6307C391.712 75.2595 391.276 74.7367 390.962 74.0625C390.647 73.3845 390.49 72.5833 390.49 71.6591C390.49 70.7424 390.647 69.947 390.962 69.2727C391.276 68.5985 391.714 68.0777 392.274 67.7102C392.835 67.3428 393.482 67.1591 394.217 67.1591C394.786 67.1591 395.234 67.2538 395.564 67.4432C395.897 67.6288 396.151 67.8409 396.325 68.0795C396.503 68.3144 396.642 68.5076 396.74 68.6591H396.854V64.3636H398.195V76H396.899V74.6591H396.74C396.642 74.8182 396.501 75.0189 396.32 75.2614C396.138 75.5 395.878 75.714 395.541 75.9034C395.204 76.089 394.755 76.1818 394.195 76.1818ZM394.376 74.9773C394.914 74.9773 395.369 74.8371 395.74 74.5568C396.111 74.2727 396.393 73.8807 396.587 73.3807C396.78 72.8769 396.876 72.2955 396.876 71.6364C396.876 70.9848 396.782 70.4148 396.592 69.9261C396.403 69.4337 396.123 69.0511 395.751 68.7784C395.38 68.5019 394.922 68.3636 394.376 68.3636C393.808 68.3636 393.335 68.5095 392.956 68.8011C392.581 69.089 392.299 69.4811 392.109 69.9773C391.924 70.4697 391.831 71.0227 391.831 71.6364C391.831 72.2576 391.926 72.822 392.115 73.3295C392.308 73.8333 392.592 74.2348 392.967 74.5341C393.346 74.8295 393.816 74.9773 394.376 74.9773ZM400.837 76V67.2727H402.132V68.5909H402.223C402.382 68.1591 402.67 67.8087 403.087 67.5398C403.503 67.2708 403.973 67.1364 404.496 67.1364C404.594 67.1364 404.717 67.1383 404.865 67.142C405.013 67.1458 405.125 67.1515 405.2 67.1591V68.5227C405.155 68.5114 405.051 68.4943 404.888 68.4716C404.729 68.4451 404.56 68.4318 404.382 68.4318C403.958 68.4318 403.579 68.5208 403.246 68.6989C402.916 68.8731 402.655 69.1155 402.462 69.4261C402.272 69.733 402.178 70.0833 402.178 70.4773V76H400.837ZM409.358 76.2045C408.805 76.2045 408.303 76.1004 407.852 75.892C407.402 75.6799 407.044 75.375 406.778 74.9773C406.513 74.5758 406.381 74.0909 406.381 73.5227C406.381 73.0227 406.479 72.6174 406.676 72.3068C406.873 71.9924 407.136 71.7462 407.466 71.5682C407.795 71.3902 408.159 71.2576 408.557 71.1705C408.958 71.0795 409.362 71.0076 409.767 70.9545C410.297 70.8864 410.727 70.8352 411.057 70.8011C411.39 70.7633 411.633 70.7008 411.784 70.6136C411.939 70.5265 412.017 70.375 412.017 70.1591V70.1136C412.017 69.553 411.864 69.1174 411.557 68.8068C411.254 68.4962 410.794 68.3409 410.176 68.3409C409.536 68.3409 409.034 68.4811 408.67 68.7614C408.307 69.0417 408.051 69.3409 407.903 69.6591L406.631 69.2045C406.858 68.6742 407.161 68.2614 407.54 67.9659C407.922 67.6667 408.339 67.4583 408.79 67.3409C409.244 67.2197 409.691 67.1591 410.131 67.1591C410.411 67.1591 410.733 67.1932 411.097 67.2614C411.464 67.3258 411.818 67.4602 412.159 67.6648C412.504 67.8693 412.79 68.178 413.017 68.5909C413.244 69.0038 413.358 69.5568 413.358 70.25V76H412.017V74.8182H411.949C411.858 75.0076 411.706 75.2102 411.494 75.4261C411.282 75.642 411 75.8258 410.648 75.9773C410.295 76.1288 409.866 76.2045 409.358 76.2045ZM409.562 75C410.093 75 410.54 74.8958 410.903 74.6875C411.271 74.4792 411.547 74.2102 411.733 73.8807C411.922 73.5511 412.017 73.2045 412.017 72.8409V71.6136C411.96 71.6818 411.835 71.7443 411.642 71.8011C411.453 71.8542 411.233 71.9015 410.983 71.9432C410.737 71.9811 410.496 72.0152 410.261 72.0455C410.03 72.072 409.843 72.0947 409.699 72.1136C409.35 72.1591 409.025 72.233 408.722 72.3352C408.422 72.4337 408.18 72.5833 407.994 72.7841C407.813 72.9811 407.722 73.25 407.722 73.5909C407.722 74.0568 407.894 74.4091 408.239 74.6477C408.587 74.8826 409.028 75 409.562 75ZM419.328 79.4545C418.68 79.4545 418.124 79.3712 417.658 79.2045C417.192 79.0417 416.804 78.8258 416.493 78.5568C416.186 78.2917 415.942 78.0076 415.76 77.7045L416.828 76.9545C416.949 77.1136 417.103 77.2955 417.288 77.5C417.474 77.7083 417.728 77.8883 418.05 78.0398C418.375 78.1951 418.802 78.2727 419.328 78.2727C420.033 78.2727 420.614 78.1023 421.072 77.7614C421.531 77.4205 421.76 76.8864 421.76 76.1591V74.3864H421.646C421.548 74.5455 421.408 74.7424 421.226 74.9773C421.048 75.2083 420.79 75.4148 420.453 75.5966C420.12 75.7746 419.669 75.8636 419.101 75.8636C418.396 75.8636 417.764 75.697 417.203 75.3636C416.646 75.0303 416.205 74.5455 415.879 73.9091C415.557 73.2727 415.396 72.5 415.396 71.5909C415.396 70.697 415.554 69.9186 415.868 69.2557C416.182 68.589 416.62 68.0739 417.18 67.7102C417.741 67.3428 418.389 67.1591 419.124 67.1591C419.692 67.1591 420.143 67.2538 420.476 67.4432C420.813 67.6288 421.071 67.8409 421.249 68.0795C421.43 68.3144 421.571 68.5076 421.669 68.6591H421.805V67.2727H423.101V76.25C423.101 77 422.93 77.6098 422.589 78.0795C422.252 78.553 421.798 78.8996 421.226 79.1193C420.658 79.3428 420.025 79.4545 419.328 79.4545ZM419.283 74.6591C419.821 74.6591 420.275 74.536 420.646 74.2898C421.018 74.0436 421.3 73.6894 421.493 73.2273C421.686 72.7652 421.783 72.2121 421.783 71.5682C421.783 70.9394 421.688 70.3845 421.499 69.9034C421.309 69.4223 421.029 69.0455 420.658 68.7727C420.286 68.5 419.828 68.3636 419.283 68.3636C418.714 68.3636 418.241 68.5076 417.862 68.7955C417.487 69.0833 417.205 69.4697 417.016 69.9545C416.83 70.4394 416.737 70.9773 416.737 71.5682C416.737 72.1742 416.832 72.7102 417.021 73.1761C417.214 73.6383 417.499 74.0019 417.874 74.267C418.252 74.5284 418.722 74.6591 419.283 74.6591Z" fill="black"/>
<rect x="370.5" y="19.5" width="73" height="73" rx="16.5" stroke="black"/>
<defs>
<linearGradient id="paint0_linear_479_5588" x1="181" y1="33.5" x2="181" y2="40" gradientUnits="userSpaceOnUse">
<stop stop-opacity="0.5"/>
<stop offset="1" stop-opacity="0"/>
</linearGradient>
</defs>
</svg>
