<svg width="24" height="24" viewBox="0 0 24 24" fill="none" xmlns="http://www.w3.org/2000/svg">
<path d="M19.26 19.65C18.85 19.65 18.51 19.31 18.51 18.9V7.1C18.51 6.09 18.3 5.75 17.03 5.75H15.99C14.72 5.75 14.51 6.09 14.51 7.1V18.9C14.51 19.31 14.17 19.65 13.76 19.65C13.35 19.65 13.01 19.31 13.01 18.9V7.1C13.01 5.18 13.99 4.25 15.99 4.25H17.03C19.04 4.25 20.01 5.18 20.01 7.1V18.9C20.01 19.31 19.67 19.65 19.26 19.65Z" fill="#292D32"/>
<path d="M10.76 19.65C10.35 19.65 10.01 19.31 10.01 18.9V12.1C10.01 11.09 9.80001 10.75 8.53001 10.75H7.49001C6.22001 10.75 6.01001 11.09 6.01001 12.1V18.9C6.01001 19.31 5.67001 19.65 5.26001 19.65C4.85001 19.65 4.51001 19.31 4.51001 18.9V12.1C4.51001 10.18 5.49001 9.25 7.49001 9.25H8.53001C10.54 9.25 11.51 10.18 11.51 12.1V18.9C11.51 19.31 11.17 19.65 10.76 19.65Z" fill="#292D32"/>
<path d="M22 19.75H2C1.59 19.75 1.25 19.41 1.25 19C1.25 18.59 1.58 18.25 2 18.25H22C22.41 18.25 22.75 18.59 22.75 19C22.75 19.41 22.42 19.75 22 19.75Z" fill="#292D32"/>
</svg>
