<svg width="8" height="8" viewBox="0 0 8 8" fill="none" xmlns="http://www.w3.org/2000/svg">
<path d="M1.16999 7.57999C0.979985 7.57999 0.789985 7.50998 0.639985 7.35998C0.349985 7.06998 0.349985 6.58999 0.639985 6.29999L6.29999 0.639985C6.58999 0.349985 7.06998 0.349985 7.35998 0.639985C7.64998 0.929985 7.64998 1.40998 7.35998 1.69998L1.69998 7.35998C1.55998 7.50998 1.35999 7.57999 1.16999 7.57999Z" fill="#292D32"/>
<path d="M6.82999 7.57999C6.63999 7.57999 6.44999 7.50998 6.29999 7.35998L0.639985 1.69998C0.349985 1.40998 0.349985 0.929985 0.639985 0.639985C0.929985 0.349985 1.40998 0.349985 1.69998 0.639985L7.35998 6.29999C7.64998 6.58999 7.64998 7.06998 7.35998 7.35998C7.20998 7.50998 7.01999 7.57999 6.82999 7.57999Z" fill="#292D32"/>
</svg>
