<svg width="16" height="16" viewBox="0 0 16 16" fill="none" xmlns="http://www.w3.org/2000/svg">
<path d="M10 15.1667H6C2.38 15.1667 0.833334 13.62 0.833334 10V6.00004C0.833334 2.38004 2.38 0.833374 6 0.833374H7.33333C7.60667 0.833374 7.83333 1.06004 7.83333 1.33337C7.83333 1.60671 7.60667 1.83337 7.33333 1.83337H6C2.92667 1.83337 1.83333 2.92671 1.83333 6.00004V10C1.83333 13.0734 2.92667 14.1667 6 14.1667H10C13.0733 14.1667 14.1667 13.0734 14.1667 10V8.66671C14.1667 8.39337 14.3933 8.16671 14.6667 8.16671C14.94 8.16671 15.1667 8.39337 15.1667 8.66671V10C15.1667 13.62 13.62 15.1667 10 15.1667Z" fill="#545454"/>
<path d="M5.66667 11.7934C5.26 11.7934 4.88667 11.6467 4.61333 11.38C4.28667 11.0534 4.14667 10.58 4.22 10.08L4.50667 8.07337C4.56 7.68671 4.81333 7.18671 5.08667 6.91337L10.34 1.66004C11.6667 0.333372 13.0133 0.333372 14.34 1.66004C15.0667 2.38671 15.3933 3.12671 15.3267 3.86671C15.2667 4.46671 14.9467 5.05337 14.34 5.65337L9.08667 10.9067C8.81333 11.18 8.31333 11.4334 7.92667 11.4867L5.92 11.7734C5.83333 11.7934 5.74667 11.7934 5.66667 11.7934ZM11.0467 2.36671L5.79333 7.62004C5.66667 7.74671 5.52 8.04004 5.49333 8.21337L5.20667 10.22C5.18 10.4134 5.22 10.5734 5.32 10.6734C5.42 10.7734 5.58 10.8134 5.77333 10.7867L7.78 10.5C7.95333 10.4734 8.25333 10.3267 8.37333 10.2L13.6267 4.94671C14.06 4.51337 14.2867 4.12671 14.32 3.76671C14.36 3.33337 14.1333 2.87337 13.6267 2.36004C12.56 1.29337 11.8267 1.59337 11.0467 2.36671Z" fill="#545454"/>
<path d="M13.2333 6.55331C13.1867 6.55331 13.14 6.54664 13.1 6.53331C11.3467 6.03998 9.95333 4.64664 9.46 2.89331C9.38666 2.62664 9.54 2.35331 9.80666 2.27331C10.0733 2.19998 10.3467 2.35331 10.42 2.61998C10.82 4.03998 11.9467 5.16664 13.3667 5.56664C13.6333 5.63998 13.7867 5.91998 13.7133 6.18664C13.6533 6.41331 13.4533 6.55331 13.2333 6.55331Z" fill="#545454"/>
</svg>
