<svg width="24" height="24" viewBox="0 0 24 24" fill="none" xmlns="http://www.w3.org/2000/svg">
<path d="M12 13.75C11.59 13.75 11.25 13.41 11.25 13V7.75C11.25 7.34 11.59 7 12 7C12.41 7 12.75 7.34 12.75 7.75V13C12.75 13.41 12.41 13.75 12 13.75Z" fill="#292D32"/>
<path d="M12 17.25C11.73 17.25 11.48 17.15 11.29 16.96C11.2 16.86 11.13 16.75 11.07 16.63C11.02 16.51 11 16.38 11 16.25C11 15.99 11.11 15.73 11.29 15.54C11.66 15.17 12.34 15.17 12.71 15.54C12.89 15.73 13 15.99 13 16.25C13 16.38 12.97 16.51 12.92 16.63C12.87 16.75 12.8 16.86 12.71 16.96C12.52 17.15 12.27 17.25 12 17.25Z" fill="#292D32"/>
<path d="M12.0002 22.75C11.3302 22.75 10.6502 22.58 10.0502 22.23L4.11017 18.8C2.91017 18.1 2.16016 16.81 2.16016 15.42V8.57999C2.16016 7.18999 2.91017 5.89999 4.11017 5.19999L10.0502 1.77C11.2502 1.07 12.7402 1.07 13.9502 1.77L19.8902 5.19999C21.0902 5.89999 21.8402 7.18999 21.8402 8.57999V15.42C21.8402 16.81 21.0902 18.1 19.8902 18.8L13.9502 22.23C13.3502 22.58 12.6702 22.75 12.0002 22.75ZM12.0002 2.74998C11.5902 2.74998 11.1702 2.85998 10.8002 3.06998L4.86017 6.49998C4.12017 6.92998 3.66016 7.71999 3.66016 8.57999V15.42C3.66016 16.27 4.12017 17.07 4.86017 17.5L10.8002 20.93C11.5402 21.36 12.4602 21.36 13.1902 20.93L19.1302 17.5C19.8702 17.07 20.3302 16.28 20.3302 15.42V8.57999C20.3302 7.72999 19.8702 6.92998 19.1302 6.49998L13.1902 3.06998C12.8302 2.85998 12.4102 2.74998 12.0002 2.74998Z" fill="#292D32"/>
</svg>
