<svg width="390" height="350" viewBox="0 0 390 350" fill="none" xmlns="http://www.w3.org/2000/svg">
<g clip-path="url(#clip0_472_5600)">
<rect x="126.344" y="325.561" width="61.2046" height="64" rx="11.7701" transform="rotate(-15 126.344 325.561)" fill="#1A1A1A"/>
<path d="M170.02 313.477L141.597 321.093C135.122 322.828 131.279 329.484 133.014 335.959L140.021 362.108C142.092 369.839 150.039 374.427 157.77 372.355L181.645 365.958C189.376 363.887 193.964 355.94 191.892 348.209L184.886 322.06C183.151 315.585 176.495 311.742 170.02 313.477Z" fill="#333333"/>
<path d="M161.23 337.602C160.615 337.767 160.039 337.808 159.502 337.725C158.967 337.639 158.511 337.446 158.134 337.147C157.759 336.845 157.502 336.449 157.362 335.96L159.156 335.48C159.223 335.682 159.338 335.845 159.504 335.969C159.671 336.089 159.871 336.163 160.102 336.192C160.333 336.222 160.579 336.201 160.84 336.131C161.112 336.059 161.339 335.946 161.522 335.794C161.704 335.642 161.832 335.466 161.904 335.264C161.977 335.062 161.983 334.85 161.924 334.628C161.863 334.403 161.747 334.221 161.574 334.082C161.404 333.939 161.189 333.85 160.929 333.813C160.672 333.776 160.384 333.8 160.066 333.886L159.28 334.096L158.929 332.788L159.715 332.577C159.984 332.505 160.209 332.395 160.39 332.246C160.574 332.097 160.701 331.925 160.772 331.729C160.842 331.531 160.848 331.32 160.788 331.098C160.732 330.887 160.631 330.715 160.487 330.583C160.345 330.448 160.171 330.359 159.966 330.317C159.763 330.274 159.542 330.285 159.304 330.349C159.062 330.414 158.853 330.517 158.676 330.658C158.499 330.797 158.371 330.962 158.293 331.154C158.215 331.345 158.2 331.549 158.249 331.765L156.541 332.223C156.419 331.735 156.443 331.27 156.613 330.827C156.783 330.385 157.067 329.998 157.467 329.668C157.868 329.334 158.357 329.089 158.934 328.935C159.515 328.779 160.053 328.748 160.546 328.843C161.039 328.937 161.454 329.132 161.792 329.426C162.132 329.718 162.36 330.086 162.476 330.531C162.605 331.003 162.564 331.436 162.352 331.831C162.143 332.225 161.814 332.528 161.365 332.739L161.382 332.805C162.024 332.719 162.554 332.808 162.972 333.072C163.391 333.333 163.67 333.726 163.808 334.251C163.939 334.73 163.915 335.194 163.735 335.642C163.558 336.09 163.254 336.486 162.823 336.831C162.392 337.176 161.861 337.433 161.23 337.602ZM165.221 350.903L164.345 342.102L165.168 341.882L166.044 350.682L165.221 350.903ZM160.758 349.593L160.669 348.734L166.959 347.049L167.048 347.907L160.758 349.593ZM162.257 351.697L161.381 342.896L162.205 342.676L163.08 351.476L162.257 351.697ZM160.467 346.53L160.378 345.671L166.667 343.986L166.756 344.844L160.467 346.53Z" fill="white"/>
<path d="M170.02 313.477L141.597 321.093C135.122 322.828 131.279 329.484 133.014 335.959L140.021 362.108C142.092 369.839 150.039 374.427 157.77 372.355L181.645 365.958C189.376 363.887 193.964 355.94 191.892 348.209L184.886 322.06C183.151 315.585 176.495 311.742 170.02 313.477Z" stroke="black" stroke-width="0.735632"/>
</g>
<rect x="125.893" y="325.301" width="61.9402" height="64.7356" rx="12.1379" transform="rotate(-15 125.893 325.301)" stroke="black" stroke-width="0.735632"/>
<g clip-path="url(#clip1_472_5600)">
<rect x="247.084" y="293.208" width="61.2046" height="64" rx="11.7701" transform="rotate(-15 247.084 293.208)" fill="url(#paint0_linear_472_5600)"/>
<path d="M290.76 281.125L262.338 288.741C255.863 290.476 252.02 297.131 253.755 303.607L260.762 329.755C262.833 337.486 270.78 342.074 278.511 340.003L302.386 333.605C310.117 331.534 314.704 323.588 312.633 315.857L305.626 289.708C303.891 283.233 297.236 279.39 290.76 281.125Z" fill="url(#paint1_linear_472_5600)"/>
<path d="M273.656 302.053L275.949 301.438L282.604 307.929L282.798 307.877L285.316 298.929L287.609 298.314L284.239 309.637L286.065 316.452L284.062 316.989L282.236 310.174L273.656 302.053Z" fill="black"/>
<path d="M290.76 281.125L262.338 288.741C255.863 290.476 252.02 297.131 253.755 303.607L260.762 329.755C262.833 337.486 270.78 342.074 278.511 340.003L302.386 333.605C310.117 331.534 314.704 323.588 312.633 315.857L305.626 289.708C303.891 283.233 297.236 279.39 290.76 281.125Z" stroke="#B3B3B3" stroke-width="0.735632"/>
</g>
<rect x="246.634" y="292.948" width="61.9402" height="64.7356" rx="12.1379" transform="rotate(-15 246.634 292.948)" stroke="#B3B3B3" stroke-width="0.735632"/>
<rect x="335.051" y="140.689" width="63.1111" height="63.1111" rx="13.7778" transform="rotate(-15 335.051 140.689)" fill="white"/>
<path d="M359.783 146.36L364.456 145.107L364.744 146.181L360.07 147.433L359.783 146.36ZM353.192 149.276L352.904 148.203L356.748 147.173L363.645 154.883L366.846 154.025L367.133 155.098L363.289 156.128L356.392 148.419L353.192 149.276Z" fill="black"/>
<path d="M364.792 184.556C364.317 184.684 363.862 184.71 363.427 184.635C362.992 184.556 362.614 184.377 362.295 184.096C361.975 183.812 361.75 183.427 361.619 182.939C361.504 182.509 361.495 182.139 361.593 181.827C361.69 181.512 361.859 181.24 362.101 181.011C362.343 180.782 362.625 180.585 362.946 180.418C363.27 180.248 363.6 180.093 363.936 179.955C364.375 179.774 364.733 179.631 365.008 179.526C365.285 179.417 365.479 179.308 365.589 179.198C365.702 179.087 365.734 178.939 365.684 178.754L365.674 178.715C365.545 178.234 365.313 177.895 364.978 177.699C364.647 177.502 364.216 177.474 363.686 177.616C363.136 177.764 362.737 178 362.489 178.324C362.242 178.648 362.091 178.964 362.037 179.271L360.84 179.174C360.913 178.666 361.078 178.242 361.336 177.901C361.595 177.556 361.905 177.281 362.265 177.077C362.628 176.868 362.997 176.713 363.375 176.612C363.615 176.548 363.9 176.503 364.227 176.478C364.558 176.449 364.893 176.483 365.233 176.58C365.576 176.676 365.892 176.875 366.182 177.178C366.472 177.48 366.697 177.928 366.857 178.524L368.179 183.461L367.028 183.769L366.756 182.754L366.698 182.77C366.663 182.954 366.58 183.162 366.447 183.397C366.315 183.631 366.115 183.853 365.847 184.065C365.58 184.276 365.228 184.44 364.792 184.556ZM364.691 183.475C365.146 183.353 365.506 183.161 365.77 182.898C366.038 182.635 366.213 182.34 366.297 182.015C366.383 181.688 366.385 181.369 366.301 181.057L366.019 180.003C365.986 180.075 365.893 180.157 365.74 180.25C365.59 180.339 365.412 180.431 365.207 180.524C365.004 180.613 364.806 180.698 364.611 180.778C364.419 180.854 364.263 180.916 364.144 180.966C363.855 181.085 363.592 181.223 363.356 181.381C363.121 181.534 362.948 181.718 362.834 181.933C362.724 182.144 362.707 182.396 362.786 182.689C362.893 183.089 363.122 183.352 363.473 183.477C363.826 183.599 364.232 183.598 364.691 183.475ZM368.755 172.598L371.432 182.589L370.281 182.898L367.604 172.907L368.755 172.598ZM374.792 173.658L375.053 174.633L371.17 175.674L370.909 174.698L374.792 173.658ZM371.559 172.6L372.711 172.291L374.624 179.433C374.712 179.758 374.824 179.99 374.962 180.127C375.102 180.26 375.255 180.334 375.419 180.35C375.586 180.361 375.754 180.344 375.923 180.298C376.05 180.264 376.152 180.23 376.23 180.195C376.307 180.157 376.368 180.127 376.415 180.104L376.926 181.075C376.856 181.125 376.754 181.184 376.622 181.251C376.491 181.321 376.318 181.384 376.104 181.442C375.779 181.529 375.441 181.544 375.091 181.488C374.745 181.431 374.431 181.287 374.149 181.056C373.871 180.824 373.674 180.49 373.557 180.054L371.559 172.6Z" fill="black"/>
<rect x="335.051" y="140.689" width="63.1111" height="63.1111" rx="13.7778" transform="rotate(-15 335.051 140.689)" stroke="black" stroke-width="0.888889"/>
<rect x="309.831" y="28.9646" width="53" height="41" rx="14.2222" transform="rotate(-15 309.831 28.9646)" fill="black"/>
<path d="M331.151 44.4384L330.211 43.8956L333.139 38.8234L338.211 41.7518L337.669 42.6921L333.539 40.3162L331.151 44.4384ZM349.842 37.1296C349.651 36.6509 349.311 36.3308 348.821 36.1691C348.332 36.0075 347.784 36.0077 347.18 36.1698C346.737 36.2883 346.369 36.4636 346.076 36.6956C345.786 36.9267 345.582 37.1923 345.463 37.4924C345.348 37.7916 345.334 38.1006 345.419 38.4193C345.49 38.686 345.615 38.8983 345.793 39.0562C345.974 39.21 346.182 39.3232 346.418 39.3961C346.653 39.4656 346.891 39.5114 347.134 39.5335C347.376 39.5523 347.597 39.5612 347.795 39.5603L348.883 39.5616C349.162 39.5602 349.476 39.577 349.827 39.6119C350.182 39.646 350.533 39.7278 350.881 39.8576C351.232 39.9832 351.547 40.1812 351.825 40.4518C352.103 40.7223 352.305 41.0918 352.43 41.5601C352.575 42.1 352.564 42.6257 352.398 43.1374C352.235 43.6481 351.918 44.1043 351.447 44.5059C350.979 44.9066 350.362 45.2098 349.594 45.4154C348.879 45.6072 348.228 45.6577 347.643 45.5671C347.06 45.4756 346.564 45.2635 346.154 44.9306C345.748 44.5969 345.452 44.162 345.266 43.6261L346.515 43.2915C346.649 43.66 346.859 43.9382 347.147 44.1262C347.437 44.3099 347.768 44.4163 348.142 44.4451C348.518 44.4698 348.905 44.429 349.301 44.3227C349.763 44.1989 350.158 44.013 350.485 43.7649C350.812 43.5136 351.046 43.2242 351.188 42.8968C351.33 42.5661 351.352 42.2186 351.254 41.8543C351.165 41.5226 351 41.2775 350.759 41.119C350.518 40.9605 350.229 40.8568 349.892 40.8077C349.554 40.7587 349.197 40.7324 348.819 40.729L347.496 40.7071C346.655 40.6919 345.952 40.5371 345.385 40.2428C344.818 39.9485 344.444 39.4648 344.264 38.7916C344.114 38.2322 344.134 37.7038 344.325 37.2065C344.519 36.705 344.841 36.27 345.293 35.9014C345.748 35.5287 346.294 35.2569 346.931 35.0861C347.575 34.9135 348.178 34.8756 348.741 34.9723C349.303 35.0658 349.783 35.2717 350.182 35.59C350.585 35.9075 350.861 36.3161 351.013 36.8159L349.842 37.1296Z" fill="white"/>
<g clip-path="url(#clip2_472_5600)">
<rect x="366.859" y="261.115" width="64" height="64" rx="7.46667" transform="rotate(-15 366.859 261.115)" fill="#212932"/>
<g opacity="0.5">
<mask id="mask0_472_5600" style="mask-type:alpha" maskUnits="userSpaceOnUse" x="375" y="277" width="71" height="46">
<path fill-rule="evenodd" clip-rule="evenodd" d="M385.997 291.324L375.694 294.085L383.424 322.934L445.243 306.37L437.513 277.521L427.112 280.308L427.272 280.905C429.795 290.322 430.387 300.3 420.6 305.807C419.052 306.678 417.105 307.271 413.655 308.206L413.656 308.208L411.6 308.759L411.6 308.757C408.144 309.672 406.162 310.132 404.385 310.152C393.157 310.276 388.68 301.339 386.157 291.922L385.997 291.324Z" fill="#333333"/>
</mask>
<g mask="url(#mask0_472_5600)">
<path d="M383.423 322.934L399.909 318.517L393.835 295.85L377.35 300.267L383.423 322.934Z" fill="url(#paint2_linear_472_5600)"/>
</g>
</g>
<g opacity="0.8">
<mask id="mask1_472_5600" style="mask-type:alpha" maskUnits="userSpaceOnUse" x="366" y="244" width="71" height="49">
<path fill-rule="evenodd" clip-rule="evenodd" d="M428.678 244.551L366.859 261.115L375.141 292.025L385.445 289.264L383.904 283.515C381.381 274.098 380.794 264.119 390.605 258.605C392.158 257.733 394.109 257.139 397.567 256.202L397.567 256.2C397.919 256.105 398.259 256.014 398.587 255.927L398.597 255.924L398.597 255.924L399.206 255.76L399.627 255.648L400.658 255.372L400.66 255.379C403.502 254.641 405.263 254.269 406.859 254.25C418.113 254.119 422.594 263.055 425.117 272.472L426.658 278.221L436.961 275.46L428.678 244.551Z" fill="#333333"/>
</mask>
<g mask="url(#mask1_472_5600)">
<rect x="383.344" y="256.698" width="29.8667" height="32" transform="rotate(-15 383.344 256.698)" fill="url(#paint3_linear_472_5600)"/>
<path d="M366.859 261.115L383.344 256.698L389.418 279.365L372.933 283.782L366.859 261.115Z" fill="url(#paint4_linear_472_5600)" fill-opacity="0.5"/>
</g>
</g>
</g>
<mask id="path-20-inside-1_472_5600" fill="white">
<path fill-rule="evenodd" clip-rule="evenodd" d="M383.904 283.515C381.381 274.097 380.794 264.118 390.605 258.605C392.158 257.733 394.109 257.139 397.567 256.202L397.567 256.2L399.206 255.76C399.345 255.723 399.485 255.686 399.627 255.648L399.628 255.648L399.628 255.649C403.092 254.732 405.078 254.271 406.859 254.25C418.113 254.119 422.594 263.054 425.117 272.472L427.37 280.879C429.893 290.296 430.48 300.275 420.669 305.788C419.116 306.661 417.165 307.254 413.707 308.192L413.707 308.194L411.647 308.746L411.646 308.744C408.182 309.661 406.196 310.123 404.415 310.144C393.161 310.275 388.68 301.339 386.157 291.922L383.904 283.515Z"/>
</mask>
<path fill-rule="evenodd" clip-rule="evenodd" d="M383.904 283.515C381.381 274.097 380.794 264.118 390.605 258.605C392.158 257.733 394.109 257.139 397.567 256.202L397.567 256.2L399.206 255.76C399.345 255.723 399.485 255.686 399.627 255.648L399.628 255.648L399.628 255.649C403.092 254.732 405.078 254.271 406.859 254.25C418.113 254.119 422.594 263.054 425.117 272.472L427.37 280.879C429.893 290.296 430.48 300.275 420.669 305.788C419.116 306.661 417.165 307.254 413.707 308.192L413.707 308.194L411.647 308.746L411.646 308.744C408.182 309.661 406.196 310.123 404.415 310.144C393.161 310.275 388.68 301.339 386.157 291.922L383.904 283.515Z" fill="url(#paint5_linear_472_5600)" fill-opacity="0.6"/>
<path d="M390.605 258.605L391.128 259.535L391.128 259.535L390.605 258.605ZM383.904 283.515L384.935 283.238L383.904 283.515ZM397.567 256.202L397.846 257.231L398.873 256.953L398.598 255.925L397.567 256.202ZM397.567 256.2L397.291 255.169L396.26 255.445L396.537 256.476L397.567 256.2ZM399.206 255.76L399.483 256.791L399.483 256.791L399.206 255.76ZM399.627 255.648L399.636 254.581L399.491 254.58L399.351 254.617L399.627 255.648ZM399.628 255.648L400.658 255.371L400.448 254.587L399.636 254.581L399.628 255.648ZM399.628 255.649L398.598 255.925L398.873 256.953L399.901 256.681L399.628 255.649ZM406.859 254.25L406.847 253.183L406.847 253.183L406.859 254.25ZM425.117 272.472L426.147 272.196L425.117 272.472ZM427.37 280.879L426.34 281.155L427.37 280.879ZM420.669 305.788L421.191 306.718L421.191 306.718L420.669 305.788ZM413.707 308.192L413.428 307.163L412.401 307.441L412.676 308.468L413.707 308.192ZM413.707 308.194L413.983 309.224L415.014 308.948L414.738 307.918L413.707 308.194ZM411.647 308.746L410.616 309.022L410.892 310.052L411.923 309.776L411.647 308.746ZM411.646 308.744L412.676 308.468L412.401 307.441L411.373 307.713L411.646 308.744ZM404.415 310.144L404.427 311.21L404.427 311.21L404.415 310.144ZM386.157 291.922L385.127 292.198L386.157 291.922ZM390.083 257.675C384.883 260.597 382.395 264.753 381.578 269.412C380.774 274.005 381.6 279.036 382.874 283.791L384.935 283.238C383.685 278.576 382.956 273.909 383.68 269.78C384.392 265.717 386.516 262.127 391.128 259.535L390.083 257.675ZM397.288 255.172C393.856 256.103 391.772 256.726 390.083 257.675L391.128 259.535C392.545 258.739 394.362 258.176 397.846 257.231L397.288 255.172ZM398.598 255.925L398.597 255.924L396.537 256.476L396.537 256.478L398.598 255.925ZM397.843 257.23L399.483 256.791L398.93 254.73L397.291 255.169L397.843 257.23ZM399.351 254.617C399.209 254.655 399.069 254.693 398.93 254.73L399.483 256.791C399.621 256.754 399.761 256.716 399.904 256.678L399.351 254.617ZM399.619 256.714L399.619 256.714L399.636 254.581L399.636 254.581L399.619 256.714ZM398.597 255.924L398.598 255.925L400.658 255.373L400.658 255.371L398.597 255.924ZM406.847 253.183C404.91 253.206 402.792 253.708 399.355 254.618L399.901 256.681C403.391 255.756 405.247 255.335 406.871 255.317L406.847 253.183ZM426.147 272.196C424.874 267.441 423.074 262.671 420.08 259.095C417.043 255.469 412.811 253.114 406.847 253.183L406.871 255.317C412.161 255.255 415.796 257.302 418.444 260.465C421.135 263.679 422.837 268.085 424.087 272.748L426.147 272.196ZM428.4 280.603L426.147 272.196L424.087 272.748L426.34 281.155L428.4 280.603ZM421.191 306.718C426.391 303.797 428.879 299.641 429.696 294.982C430.501 290.388 429.674 285.357 428.4 280.603L426.34 281.155C427.589 285.818 428.318 290.485 427.594 294.614C426.882 298.677 424.758 302.267 420.146 304.859L421.191 306.718ZM413.986 309.222C417.418 308.291 419.503 307.667 421.191 306.718L420.146 304.859C418.73 305.655 416.912 306.218 413.428 307.163L413.986 309.222ZM412.676 308.468L412.677 308.47L414.738 307.918L414.737 307.916L412.676 308.468ZM413.431 307.164L411.371 307.716L411.923 309.776L413.983 309.224L413.431 307.164ZM412.677 308.47L412.676 308.468L410.616 309.02L410.616 309.022L412.677 308.47ZM404.427 311.21C406.364 311.188 408.482 310.685 411.919 309.775L411.373 307.713C407.883 308.637 406.028 309.058 404.403 309.077L404.427 311.21ZM385.127 292.198C386.401 296.952 388.2 301.723 391.194 305.298C394.231 308.925 398.463 311.28 404.427 311.21L404.403 309.077C399.113 309.139 395.478 307.091 392.83 303.929C390.139 300.715 388.437 296.309 387.187 291.646L385.127 292.198ZM382.874 283.791L385.127 292.198L387.187 291.646L384.935 283.238L382.874 283.791Z" fill="url(#paint6_angular_472_5600)" fill-opacity="0.66" mask="url(#path-20-inside-1_472_5600)"/>
<mask id="path-22-outside-2_472_5600" maskUnits="userSpaceOnUse" x="375.541" y="248.125" width="59.4441" height="67.9294" fill="black">
<rect fill="white" x="375.541" y="248.125" width="59.4441" height="67.9294"/>
<path fill-rule="evenodd" clip-rule="evenodd" d="M383.904 283.515C381.381 274.097 380.794 264.118 390.605 258.605C392.158 257.733 394.109 257.139 397.567 256.202L397.567 256.2L399.206 255.76C399.345 255.723 399.485 255.686 399.627 255.648L399.628 255.648L399.628 255.649C403.092 254.732 405.078 254.271 406.859 254.25C418.113 254.119 422.594 263.054 425.117 272.472L427.37 280.879C429.893 290.296 430.48 300.275 420.669 305.788C419.116 306.661 417.165 307.254 413.707 308.192L413.707 308.194L411.647 308.746L411.646 308.744C408.182 309.661 406.196 310.123 404.415 310.144C393.161 310.275 388.68 301.339 386.157 291.922L383.904 283.515Z"/>
</mask>
<path d="M390.605 258.605L391.128 259.535L391.128 259.535L390.605 258.605ZM383.904 283.515L384.935 283.238L383.904 283.515ZM397.567 256.202L397.846 257.231L398.873 256.953L398.598 255.925L397.567 256.202ZM397.567 256.2L397.291 255.169L396.26 255.445L396.537 256.476L397.567 256.2ZM399.206 255.76L399.483 256.791L399.483 256.791L399.206 255.76ZM399.627 255.648L399.636 254.581L399.491 254.58L399.351 254.617L399.627 255.648ZM399.628 255.648L400.658 255.371L400.448 254.587L399.636 254.581L399.628 255.648ZM399.628 255.649L398.598 255.925L398.873 256.953L399.901 256.681L399.628 255.649ZM406.859 254.25L406.847 253.183L406.847 253.183L406.859 254.25ZM425.117 272.472L426.147 272.196L425.117 272.472ZM427.37 280.879L426.34 281.155L427.37 280.879ZM420.669 305.788L421.191 306.718L421.191 306.718L420.669 305.788ZM413.707 308.192L413.428 307.163L412.401 307.441L412.676 308.468L413.707 308.192ZM413.707 308.194L413.983 309.224L415.014 308.948L414.738 307.918L413.707 308.194ZM411.647 308.746L410.616 309.022L410.892 310.052L411.923 309.776L411.647 308.746ZM411.646 308.744L412.676 308.468L412.401 307.441L411.373 307.713L411.646 308.744ZM404.415 310.144L404.427 311.21L404.427 311.21L404.415 310.144ZM386.157 291.922L385.127 292.198L386.157 291.922ZM390.083 257.675C384.883 260.597 382.395 264.753 381.578 269.412C380.774 274.005 381.6 279.036 382.874 283.791L384.935 283.238C383.685 278.576 382.956 273.909 383.68 269.78C384.392 265.717 386.516 262.127 391.128 259.535L390.083 257.675ZM397.288 255.172C393.856 256.103 391.772 256.726 390.083 257.675L391.128 259.535C392.545 258.739 394.362 258.176 397.846 257.231L397.288 255.172ZM398.598 255.925L398.597 255.924L396.537 256.476L396.537 256.478L398.598 255.925ZM397.843 257.23L399.483 256.791L398.93 254.73L397.291 255.169L397.843 257.23ZM399.351 254.617C399.209 254.655 399.069 254.693 398.93 254.73L399.483 256.791C399.621 256.754 399.761 256.716 399.904 256.678L399.351 254.617ZM399.619 256.714L399.619 256.714L399.636 254.581L399.636 254.581L399.619 256.714ZM398.597 255.924L398.598 255.925L400.658 255.373L400.658 255.371L398.597 255.924ZM406.847 253.183C404.91 253.206 402.792 253.708 399.355 254.618L399.901 256.681C403.391 255.756 405.247 255.335 406.871 255.317L406.847 253.183ZM426.147 272.196C424.874 267.441 423.074 262.671 420.08 259.095C417.043 255.469 412.811 253.114 406.847 253.183L406.871 255.317C412.161 255.255 415.796 257.302 418.444 260.465C421.135 263.679 422.837 268.085 424.087 272.748L426.147 272.196ZM428.4 280.603L426.147 272.196L424.087 272.748L426.34 281.155L428.4 280.603ZM421.191 306.718C426.391 303.797 428.879 299.641 429.696 294.982C430.501 290.388 429.674 285.357 428.4 280.603L426.34 281.155C427.589 285.818 428.318 290.485 427.594 294.614C426.882 298.677 424.758 302.267 420.146 304.859L421.191 306.718ZM413.986 309.222C417.418 308.291 419.503 307.667 421.191 306.718L420.146 304.859C418.73 305.655 416.912 306.218 413.428 307.163L413.986 309.222ZM412.676 308.468L412.677 308.47L414.738 307.918L414.737 307.916L412.676 308.468ZM413.431 307.164L411.371 307.716L411.923 309.776L413.983 309.224L413.431 307.164ZM412.677 308.47L412.676 308.468L410.616 309.02L410.616 309.022L412.677 308.47ZM404.427 311.21C406.364 311.188 408.482 310.685 411.919 309.775L411.373 307.713C407.883 308.637 406.028 309.058 404.403 309.077L404.427 311.21ZM385.127 292.198C386.401 296.952 388.2 301.723 391.194 305.298C394.231 308.925 398.463 311.28 404.427 311.21L404.403 309.077C399.113 309.139 395.478 307.091 392.83 303.929C390.139 300.715 388.437 296.309 387.187 291.646L385.127 292.198ZM382.874 283.791L385.127 292.198L387.187 291.646L384.935 283.238L382.874 283.791Z" fill="url(#paint7_angular_472_5600)" fill-opacity="0.27" mask="url(#path-22-outside-2_472_5600)"/>
<rect x="175.799" y="150.806" width="125" height="125" transform="rotate(-15 175.799 150.806)" stroke="#CCCCCC"/>
<path d="M113.98 167.371L175.316 150.936" stroke="#CCCCCC"/>
<path d="M159.235 88.9871L175.67 150.323" stroke="#CCCCCC"/>
<rect x="208.151" y="271.547" width="125" height="125" transform="rotate(-15 208.151 271.547)" stroke="#CCCCCC"/>
<rect x="87.4106" y="303.899" width="125" height="125" transform="rotate(-15 87.4106 303.899)" stroke="#CCCCCC"/>
<path d="M64.961 309.915L87.3584 303.914L82.1799 284.587" stroke="#CCCCCC"/>
<rect x="296.54" y="118.454" width="125" height="125" transform="rotate(-15 296.54 118.454)" stroke="#CCCCCC"/>
<rect x="264.187" y="-2.28662" width="125" height="125" transform="rotate(-15 264.187 -2.28662)" stroke="#CCCCCC"/>
<rect x="328.892" y="239.195" width="125" height="125" transform="rotate(-15 328.892 239.195)" stroke="#CCCCCC"/>
<path d="M259.834 159.969L228.924 168.251C221.882 170.138 217.703 177.376 219.59 184.418L228.866 219.036C231.119 227.444 239.761 232.433 248.168 230.18L274.132 223.223C282.54 220.971 287.529 212.329 285.276 203.921L276 169.303C274.114 162.261 266.876 158.082 259.834 159.969Z" fill="black" stroke="black" stroke-width="0.8"/>
<rect x="216.174" y="171.667" width="58.4" height="58.4" rx="13.2" transform="rotate(-15 216.174 171.667)" fill="white"/>
<path d="M248.795 202.907C248.098 203.094 247.415 203.095 246.744 202.911C246.072 202.721 245.486 202.382 244.985 201.895C244.49 201.406 244.149 200.814 243.963 200.117C243.774 199.415 243.772 198.728 243.957 198.058C244.147 197.386 244.485 196.799 244.972 196.299C245.459 195.798 246.051 195.454 246.748 195.268L248.785 194.722L247.839 191.192L245.802 191.737C245.105 191.924 244.422 191.925 243.751 191.741C243.079 191.551 242.493 191.215 241.994 190.734C241.499 190.246 241.158 189.65 240.97 188.948C240.781 188.245 240.78 187.562 240.966 186.897C241.156 186.225 241.496 185.641 241.984 185.146C242.471 184.646 243.063 184.302 243.76 184.115C244.462 183.927 245.149 183.928 245.821 184.118C246.492 184.303 247.078 184.638 247.578 185.125C248.077 185.606 248.421 186.198 248.609 186.901L249.15 188.92L252.68 187.974L252.139 185.955C251.951 185.252 251.95 184.569 252.136 183.904C252.326 183.232 252.662 182.649 253.145 182.156C253.632 181.655 254.227 181.311 254.929 181.123C255.632 180.934 256.316 180.936 256.982 181.128C257.653 181.312 258.236 181.648 258.73 182.137C259.229 182.618 259.573 183.21 259.761 183.912C259.95 184.615 259.949 185.302 259.759 185.974C259.573 186.639 259.236 187.222 258.749 187.722C258.267 188.216 257.674 188.556 256.971 188.745L254.952 189.286L255.898 192.816L257.917 192.275C258.62 192.086 259.304 192.088 259.97 192.28C260.643 192.47 261.226 192.809 261.721 193.298C262.222 193.785 262.566 194.38 262.754 195.082C262.941 195.779 262.939 196.463 262.749 197.135C262.565 197.806 262.229 198.391 261.742 198.892C261.259 199.385 260.667 199.726 259.964 199.914C259.262 200.102 258.575 200.104 257.905 199.92C257.239 199.729 256.655 199.389 256.154 198.902C255.66 198.414 255.319 197.821 255.132 197.124L254.586 195.087L251.056 196.033L251.602 198.07C251.789 198.767 251.787 199.451 251.597 200.123C251.407 200.795 251.068 201.382 250.581 201.883C250.093 202.377 249.497 202.719 248.795 202.907ZM248.315 201.116C248.689 201.015 249.005 200.834 249.26 200.571C249.522 200.306 249.703 199.997 249.803 199.644C249.907 199.284 249.91 198.919 249.811 198.55L249.265 196.513L247.228 197.059C246.859 197.158 246.544 197.342 246.284 197.613C246.029 197.876 245.852 198.187 245.753 198.546C245.653 198.899 245.654 199.263 245.754 199.637C245.853 200.006 246.034 200.321 246.299 200.583C246.562 200.839 246.87 201.017 247.223 201.116C247.582 201.215 247.946 201.215 248.315 201.116ZM245.322 189.946L247.359 189.4L246.818 187.381C246.718 187.006 246.533 186.692 246.264 186.437C246.001 186.182 245.69 186.004 245.331 185.906C244.978 185.806 244.614 185.806 244.24 185.907C243.871 186.006 243.556 186.187 243.294 186.452C243.038 186.715 242.86 187.023 242.76 187.376C242.66 187.729 242.661 188.093 242.761 188.468C242.861 188.842 243.044 189.16 243.309 189.422C243.572 189.678 243.88 189.856 244.233 189.956C244.59 190.048 244.953 190.045 245.322 189.946ZM254.472 187.494L256.492 186.953C256.866 186.853 257.182 186.674 257.44 186.417C257.695 186.154 257.873 185.846 257.973 185.493C258.071 185.134 258.07 184.767 257.97 184.392C257.87 184.018 257.688 183.703 257.425 183.447C257.162 183.191 256.854 183.013 256.501 182.913C256.148 182.813 255.784 182.814 255.409 182.914C255.035 183.014 254.716 183.197 254.455 183.461C254.199 183.724 254.021 184.033 253.921 184.386C253.827 184.737 253.83 185.1 253.931 185.475L254.472 187.494ZM259.484 198.123C259.859 198.022 260.174 197.841 260.43 197.578C260.686 197.315 260.864 197.007 260.964 196.654C261.062 196.295 261.062 195.931 260.963 195.562C260.863 195.187 260.681 194.872 260.418 194.616C260.153 194.355 259.844 194.174 259.491 194.074C259.137 193.968 258.772 193.966 258.397 194.066L256.378 194.607L256.924 196.644C257.022 197.013 257.201 197.329 257.46 197.592C257.723 197.848 258.031 198.026 258.384 198.126C258.743 198.224 259.11 198.223 259.484 198.123ZM250.576 194.242L254.106 193.296L253.16 189.766L249.63 190.712L250.576 194.242Z" fill="black"/>
<rect x="216.174" y="171.667" width="58.4" height="58.4" rx="13.2" transform="rotate(-15 216.174 171.667)" stroke="black" stroke-width="0.8"/>
<defs>
<linearGradient id="paint0_linear_472_5600" x1="247.084" y1="293.208" x2="308.142" y2="357.208" gradientUnits="userSpaceOnUse">
<stop stop-color="#F2F2F2"/>
<stop offset="1" stop-color="#C4C4C4"/>
</linearGradient>
<linearGradient id="paint1_linear_472_5600" x1="251.348" y1="292.066" x2="316.217" y2="329.518" gradientUnits="userSpaceOnUse">
<stop stop-color="#ECECEC"/>
<stop offset="1" stop-color="white"/>
<stop offset="1" stop-color="white"/>
</linearGradient>
<linearGradient id="paint2_linear_472_5600" x1="391.279" y1="313.099" x2="381.444" y2="302.398" gradientUnits="userSpaceOnUse">
<stop offset="0.0885417"/>
<stop offset="1" stop-opacity="0"/>
</linearGradient>
<linearGradient id="paint3_linear_472_5600" x1="383.344" y1="262.031" x2="413.211" y2="262.031" gradientUnits="userSpaceOnUse">
<stop offset="0.642857" stop-color="white" stop-opacity="0.5"/>
<stop offset="1" stop-color="white" stop-opacity="0.8"/>
</linearGradient>
<linearGradient id="paint4_linear_472_5600" x1="381.017" y1="264.499" x2="375.872" y2="276.905" gradientUnits="userSpaceOnUse">
<stop stop-color="white"/>
<stop offset="1" stop-color="white" stop-opacity="0"/>
</linearGradient>
<linearGradient id="paint5_linear_472_5600" x1="385.169" y1="288.233" x2="426.381" y2="277.19" gradientUnits="userSpaceOnUse">
<stop stop-color="#849DBB"/>
<stop offset="0.822917" stop-color="#87A6BF" stop-opacity="0.25"/>
</linearGradient>
<radialGradient id="paint6_angular_472_5600" cx="0" cy="0" r="1" gradientUnits="userSpaceOnUse" gradientTransform="translate(405.637 282.197) rotate(75) scale(27.2 21.3333)">
<stop offset="0.34375" stop-color="white" stop-opacity="0"/>
<stop offset="0.489583" stop-color="white"/>
<stop offset="0.520473" stop-color="white"/>
<stop offset="0.630208" stop-color="white" stop-opacity="0.37"/>
<stop offset="0.703125" stop-color="white"/>
<stop offset="0.791667" stop-color="white"/>
<stop offset="0.932292" stop-color="white" stop-opacity="0"/>
</radialGradient>
<radialGradient id="paint7_angular_472_5600" cx="0" cy="0" r="1" gradientUnits="userSpaceOnUse" gradientTransform="translate(405.637 282.197) rotate(-105) scale(27.2 21.3333)">
<stop offset="0.5" stop-opacity="0"/>
<stop offset="0.625"/>
<stop offset="0.896197" stop-opacity="0"/>
</radialGradient>
<clipPath id="clip0_472_5600">
<rect x="126.344" y="325.561" width="61.2046" height="64" rx="11.7701" transform="rotate(-15 126.344 325.561)" fill="white"/>
</clipPath>
<clipPath id="clip1_472_5600">
<rect x="247.084" y="293.208" width="61.2046" height="64" rx="11.7701" transform="rotate(-15 247.084 293.208)" fill="white"/>
</clipPath>
<clipPath id="clip2_472_5600">
<rect x="366.859" y="261.115" width="64" height="64" rx="7.46667" transform="rotate(-15 366.859 261.115)" fill="white"/>
</clipPath>
</defs>
</svg>
