<svg width="14" height="14" viewBox="0 0 14 14" fill="none" xmlns="http://www.w3.org/2000/svg">
<path d="M4.21856 5.8653L2.81653 6.86079C2.21361 7.28888 1.68541 7.81347 1.25319 8.41344V8.41344C0.674858 9.21624 0.763963 10.32 1.46359 11.0196L2.98041 12.5364C3.68004 13.236 4.78376 13.3251 5.58656 12.7468V12.7468C6.18653 12.3146 6.71112 11.7864 7.13921 11.1835L8.1347 9.78144" stroke="black" stroke-width="1.5" stroke-linecap="round" stroke-linejoin="round"/>
<path d="M5.8653 4.21856L6.86079 2.81653C7.28888 2.21361 7.81347 1.68541 8.41344 1.25319V1.25319C9.21624 0.674858 10.32 0.763963 11.0196 1.46359L12.5364 2.98041C13.236 3.68004 13.3251 4.78376 12.7468 5.58656V5.58656C12.3146 6.18653 11.7864 6.71112 11.1835 7.13921L9.78144 8.1347" stroke="black" stroke-width="1.5" stroke-linecap="round" stroke-linejoin="round"/>
<path d="M8.86181 5.13824L5.14728 8.85277" stroke="black" stroke-width="1.5" stroke-linecap="round" stroke-linejoin="round"/>
</svg>
