<svg width="24" height="24" viewBox="0 0 24 24" fill="none" xmlns="http://www.w3.org/2000/svg">
<path d="M5 21.87C4.26 21.87 3.53 21.59 2.97 21.03C2.43 20.49 2.13 19.77 2.13 19C2.13 18.23 2.43 17.51 2.97 16.97L15.97 3.97C17.09 2.85 18.91 2.85 20.03 3.97C20.57 4.51 20.87 5.23 20.87 6C20.87 6.77 20.57 7.49 20.03 8.03L7.03 21.03C6.47001 21.59 5.74 21.87 5 21.87ZM18 4.63001C17.65 4.63001 17.3 4.76001 17.03 5.03001L4.03 18.03C3.77 18.29 3.63 18.63 3.63 19C3.63 19.37 3.77 19.71 4.03 19.97C4.56 20.5 5.44 20.5 5.97 19.97L18.97 6.97C19.23 6.71 19.37 6.37 19.37 6C19.37 5.63 19.23 5.29001 18.97 5.03001C18.7 4.76001 18.35 4.63001 18 4.63001Z" fill="#292D32"/>
<path d="M18.01 9.74005C17.82 9.74005 17.63 9.67005 17.48 9.52005L14.48 6.52005C14.19 6.23005 14.19 5.75005 14.48 5.46005C14.77 5.17005 15.25 5.17005 15.54 5.46005L18.54 8.46005C18.83 8.75005 18.83 9.23005 18.54 9.52005C18.39 9.67005 18.2 9.74005 18.01 9.74005Z" fill="#292D32"/>
<path d="M9.99999 5.50005C9.94999 5.50005 9.90999 5.49005 9.85999 5.48005L8.49999 5.08005L7.13999 5.48005C6.95999 5.53005 6.76999 5.48005 6.64999 5.35005C6.51999 5.22005 6.46999 5.04005 6.51999 4.86005L6.91999 3.50005L6.51999 2.14005C6.46999 1.96005 6.51999 1.77005 6.64999 1.65005C6.77999 1.52005 6.96999 1.47005 7.13999 1.52005L8.49999 1.92005L9.85999 1.52005C10.04 1.47005 10.22 1.52005 10.35 1.65005C10.48 1.78005 10.53 1.97005 10.48 2.14005L10.08 3.50005L10.48 4.86005C10.53 5.04005 10.48 5.23005 10.35 5.35005C10.26 5.45005 10.13 5.50005 9.99999 5.50005ZM8.49999 4.06005C8.54999 4.06005 8.58999 4.07005 8.63999 4.08005L9.25999 4.26005L9.07999 3.64005C9.04999 3.55005 9.04999 3.45005 9.07999 3.36005L9.25999 2.74005L8.63999 2.92005C8.54999 2.95005 8.44999 2.95005 8.35999 2.92005L7.73999 2.74005L7.91999 3.36005C7.94999 3.45005 7.94999 3.55005 7.91999 3.64005L7.73999 4.26005L8.35999 4.08005C8.40999 4.07005 8.44999 4.06005 8.49999 4.06005Z" fill="#292D32"/>
<path d="M5.99999 11.5001C5.94999 11.5001 5.90999 11.4901 5.85999 11.4801L4.49999 11.0801L3.13999 11.4801C2.95999 11.5301 2.77999 11.4801 2.64999 11.3501C2.51999 11.2201 2.46999 11.0301 2.51999 10.8601L2.91999 9.50005L2.51999 8.14005C2.46999 7.96005 2.51999 7.77005 2.64999 7.65005C2.77999 7.53005 2.96999 7.47005 3.13999 7.52005L4.49999 7.92005L5.85999 7.52005C6.02999 7.47005 6.21999 7.52005 6.34999 7.65005C6.47999 7.78005 6.52999 7.97005 6.47999 8.14005L6.07999 9.50005L6.47999 10.8601C6.52999 11.0401 6.47999 11.2301 6.34999 11.3501C6.25999 11.4501 6.12999 11.5001 5.99999 11.5001ZM4.49999 10.0601C4.54999 10.0601 4.58999 10.0701 4.63999 10.0801L5.25999 10.2601L5.07999 9.64005C5.04999 9.55005 5.04999 9.45005 5.07999 9.36005L5.25999 8.74005L4.63999 8.92005C4.54999 8.95005 4.44999 8.95005 4.35999 8.92005L3.73999 8.74005L3.91999 9.36005C3.94999 9.45005 3.94999 9.55005 3.91999 9.64005L3.73999 10.2601L4.35999 10.0801C4.40999 10.0701 4.44999 10.0601 4.49999 10.0601Z" fill="#292D32"/>
<path d="M21 16.5001C20.95 16.5001 20.91 16.4901 20.86 16.4801L19.5 16.0801L18.14 16.4801C17.96 16.5301 17.78 16.4801 17.65 16.3501C17.52 16.2201 17.47 16.0301 17.52 15.8601L17.92 14.5001L17.52 13.1401C17.47 12.9601 17.52 12.7701 17.65 12.6501C17.78 12.5301 17.97 12.4701 18.14 12.5201L19.5 12.9201L20.86 12.5201C21.03 12.4701 21.22 12.5201 21.35 12.6501C21.48 12.7801 21.53 12.9701 21.48 13.1401L21.08 14.5001L21.48 15.8601C21.53 16.0401 21.48 16.2301 21.35 16.3501C21.26 16.4501 21.13 16.5001 21 16.5001ZM19.5 15.0601C19.55 15.0601 19.59 15.0701 19.64 15.0801L20.26 15.2601L20.08 14.6401C20.05 14.5501 20.05 14.4501 20.08 14.3601L20.26 13.7401L19.64 13.9201C19.55 13.9501 19.45 13.9501 19.36 13.9201L18.74 13.7401L18.92 14.3601C18.95 14.4501 18.95 14.5501 18.92 14.6401L18.74 15.2601L19.36 15.0801C19.41 15.0701 19.45 15.0601 19.5 15.0601Z" fill="#292D32"/>
</svg>
