<svg width="16" height="16" viewBox="0 0 16 16" fill="none" xmlns="http://www.w3.org/2000/svg">
<path d="M11.7067 11.98H4.29333C1.64 11.98 0.833334 11.1734 0.833334 8.52004V4.29337C0.833334 1.64004 1.64 0.833374 4.29333 0.833374H11.7C14.3533 0.833374 15.16 1.64004 15.16 4.29337V8.51337C15.1667 11.1734 14.36 11.98 11.7067 11.98ZM4.29333 1.83337C2.2 1.83337 1.83333 2.20004 1.83333 4.29337V8.51337C1.83333 10.6067 2.2 10.9734 4.29333 10.9734H11.7C13.7933 10.9734 14.16 10.6067 14.16 8.51337V4.29337C14.16 2.20004 13.7933 1.83337 11.7 1.83337H4.29333Z" fill="#545454"/>
<path d="M8 15.1666C7.72667 15.1666 7.5 14.94 7.5 14.6666V11.48C7.5 11.2066 7.72667 10.98 8 10.98C8.27333 10.98 8.5 11.2066 8.5 11.48V14.6666C8.5 14.94 8.27333 15.1666 8 15.1666Z" fill="#545454"/>
<path d="M14.6667 9.16663H1.33333C1.06 9.16663 0.833334 8.93996 0.833334 8.66663C0.833334 8.39329 1.06 8.16663 1.33333 8.16663H14.6667C14.94 8.16663 15.1667 8.39329 15.1667 8.66663C15.1667 8.93996 14.94 9.16663 14.6667 9.16663Z" fill="#545454"/>
<path d="M11 15.1666H5C4.72667 15.1666 4.5 14.94 4.5 14.6666C4.5 14.3933 4.72667 14.1666 5 14.1666H11C11.2733 14.1666 11.5 14.3933 11.5 14.6666C11.5 14.94 11.2733 15.1666 11 15.1666Z" fill="#545454"/>
</svg>
