<svg width="16" height="16" viewBox="0 0 16 16" fill="none" xmlns="http://www.w3.org/2000/svg">
<path d="M11.6934 6.04001C10.5134 6.04001 9.55339 5.08001 9.55339 3.90001C9.55339 2.72001 10.5134 1.76001 11.6934 1.76001C12.8734 1.76001 13.8334 2.72001 13.8334 3.90001C13.8334 5.08001 12.8734 6.04001 11.6934 6.04001ZM11.6934 2.75334C11.0667 2.75334 10.5534 3.26668 10.5534 3.89334C10.5534 4.52001 11.0667 5.03334 11.6934 5.03334C12.32 5.03334 12.8334 4.52001 12.8334 3.89334C12.8334 3.26668 12.32 2.75334 11.6934 2.75334Z" fill="#545454"/>
<path d="M4.30667 6.04001C3.12667 6.04001 2.16667 5.08001 2.16667 3.90001C2.16667 2.72001 3.12667 1.76001 4.30667 1.76001C5.48667 1.76001 6.44666 2.72001 6.44666 3.90001C6.44666 5.08001 5.48667 6.04001 4.30667 6.04001ZM4.30667 2.75334C3.68 2.75334 3.16667 3.26668 3.16667 3.89334C3.16667 4.52001 3.68 5.03334 4.30667 5.03334C4.93334 5.03334 5.44666 4.52001 5.44666 3.89334C5.44666 3.26668 4.94 2.75334 4.30667 2.75334Z" fill="#545454"/>
<path d="M11.6934 14.2467C10.5134 14.2467 9.55339 13.2867 9.55339 12.1067C9.55339 10.9267 10.5134 9.96667 11.6934 9.96667C12.8734 9.96667 13.8334 10.9267 13.8334 12.1067C13.8334 13.2867 12.8734 14.2467 11.6934 14.2467ZM11.6934 10.96C11.0667 10.96 10.5534 11.4733 10.5534 12.1C10.5534 12.7267 11.0667 13.24 11.6934 13.24C12.32 13.24 12.8334 12.7267 12.8334 12.1C12.8334 11.4733 12.32 10.96 11.6934 10.96Z" fill="#545454"/>
<path d="M4.30667 14.2467C3.12667 14.2467 2.16667 13.2867 2.16667 12.1067C2.16667 10.9267 3.12667 9.96667 4.30667 9.96667C5.48667 9.96667 6.44666 10.9267 6.44666 12.1067C6.44666 13.2867 5.48667 14.2467 4.30667 14.2467ZM4.30667 10.96C3.68 10.96 3.16667 11.4733 3.16667 12.1C3.16667 12.7267 3.68 13.24 4.30667 13.24C4.93334 13.24 5.44666 12.7267 5.44666 12.1C5.44666 11.4733 4.94 10.96 4.30667 10.96Z" fill="#545454"/>
</svg>
