<svg width="36" height="36" viewBox="0 0 36 36" fill="none" xmlns="http://www.w3.org/2000/svg">
<path d="M21.6934 16.04C20.5134 16.04 19.5534 15.08 19.5534 13.9C19.5534 12.72 20.5134 11.76 21.6934 11.76C22.8734 11.76 23.8334 12.72 23.8334 13.9C23.8334 15.08 22.8734 16.04 21.6934 16.04ZM21.6934 12.7533C21.0667 12.7533 20.5534 13.2667 20.5534 13.8933C20.5534 14.52 21.0667 15.0333 21.6934 15.0333C22.32 15.0333 22.8334 14.52 22.8334 13.8933C22.8334 13.2667 22.32 12.7533 21.6934 12.7533Z" fill="#545454"/>
<path d="M14.3067 16.04C13.1267 16.04 12.1667 15.08 12.1667 13.9C12.1667 12.72 13.1267 11.76 14.3067 11.76C15.4867 11.76 16.4467 12.72 16.4467 13.9C16.4467 15.08 15.4867 16.04 14.3067 16.04ZM14.3067 12.7533C13.68 12.7533 13.1667 13.2667 13.1667 13.8933C13.1667 14.52 13.68 15.0333 14.3067 15.0333C14.9333 15.0333 15.4467 14.52 15.4467 13.8933C15.4467 13.2667 14.94 12.7533 14.3067 12.7533Z" fill="#545454"/>
<path d="M21.6934 24.2467C20.5134 24.2467 19.5534 23.2867 19.5534 22.1067C19.5534 20.9267 20.5134 19.9667 21.6934 19.9667C22.8734 19.9667 23.8334 20.9267 23.8334 22.1067C23.8334 23.2867 22.8734 24.2467 21.6934 24.2467ZM21.6934 20.96C21.0667 20.96 20.5534 21.4733 20.5534 22.1C20.5534 22.7267 21.0667 23.24 21.6934 23.24C22.32 23.24 22.8334 22.7267 22.8334 22.1C22.8334 21.4733 22.32 20.96 21.6934 20.96Z" fill="#545454"/>
<path d="M14.3067 24.2467C13.1267 24.2467 12.1667 23.2867 12.1667 22.1067C12.1667 20.9267 13.1267 19.9667 14.3067 19.9667C15.4867 19.9667 16.4467 20.9267 16.4467 22.1067C16.4467 23.2867 15.4867 24.2467 14.3067 24.2467ZM14.3067 20.96C13.68 20.96 13.1667 21.4733 13.1667 22.1C13.1667 22.7267 13.68 23.24 14.3067 23.24C14.9333 23.24 15.4467 22.7267 15.4467 22.1C15.4467 21.4733 14.94 20.96 14.3067 20.96Z" fill="#545454"/>
</svg>
