<svg width="14" height="14" viewBox="0 0 14 14" fill="none" xmlns="http://www.w3.org/2000/svg">
<path d="M3.29313 7.11884L1.49675 8.91521C1.0216 9.39231 0.754822 10.0382 0.754822 10.7116C0.754822 11.3849 1.0216 12.0308 1.49675 12.5079V12.5079C1.97386 12.9831 2.61978 13.2499 3.29313 13.2499C3.96647 13.2499 4.6124 12.9831 5.0895 12.5079L6.15579 11.4417" stroke="black" stroke-width="1.5" stroke-linecap="round" stroke-linejoin="round"/>
<path d="M8.92238 9.39559H10.7091C11.3818 9.39559 12.0268 9.1284 12.5024 8.6528C12.978 8.1772 13.2452 7.53214 13.2452 6.85954V6.85954C13.2452 6.18694 12.978 5.54188 12.5024 5.06628C12.0268 4.59068 11.3818 4.32349 10.7091 4.32349H8.1731" stroke="black" stroke-width="1.5" stroke-linecap="round" stroke-linejoin="round"/>
<path d="M7.00113 0.75L6.52081 2.67125" stroke="black" stroke-width="1.5" stroke-linecap="round" stroke-linejoin="round"/>
<path d="M0.75708 3.6319L2.67833 4.59252" stroke="black" stroke-width="1.5" stroke-linecap="round" stroke-linejoin="round"/>
<path d="M3.15863 0.75L4.11926 2.67125" stroke="black" stroke-width="1.5" stroke-linecap="round" stroke-linejoin="round"/>
</svg>
