<svg xmlns="http://www.w3.org/2000/svg" viewBox="0 0 16 16"><defs><style>.cls-1{fill:#292d32;}</style></defs><g id="Layer_2" data-name="Layer 2"><g id="white-caps"><path class="cls-1" d="M13.78,9.3h-3c-1.5,0-2.22-.69-2.22-2.12V2.12C8.56.69,9.29,0,10.78,0h3C15.28,0,16,.69,16,2.12V7.18C16,8.61,15.27,9.3,13.78,9.3Zm-3-8.18c-.95,0-1.11.25-1.11,1V7.18c0,.75.16,1,1.11,1h3c1,0,1.1-.26,1.1-1V2.12c0-.75-.15-1-1.1-1Z"/><path class="cls-1" d="M13.78,16h-3c-1.5,0-2.22-.69-2.22-2.12V12.54c0-1.43.73-2.12,2.22-2.12h3c1.5,0,2.22.69,2.22,2.12v1.34C16,15.31,15.27,16,13.78,16Zm-3-4.47c-.95,0-1.11.26-1.11,1v1.34c0,.75.16,1,1.11,1h3c1,0,1.1-.25,1.1-1V12.54c0-.75-.15-1-1.1-1Z"/><path class="cls-1" d="M5.22,16h-3C.72,16,0,15.31,0,13.88V8.82C0,7.39.73,6.7,2.22,6.7h3c1.5,0,2.22.69,2.22,2.12v5.06C7.44,15.31,6.71,16,5.22,16Zm-3-8.19c-1,0-1.1.26-1.1,1v5.06c0,.75.15,1,1.1,1h3c1,0,1.11-.25,1.11-1V8.82c0-.75-.16-1-1.11-1Z"/><path class="cls-1" d="M5.22,5.58h-3C.72,5.58,0,4.89,0,3.46V2.12C0,.69.73,0,2.22,0h3c1.5,0,2.22.69,2.22,2.12V3.46C7.44,4.89,6.71,5.58,5.22,5.58Zm-3-4.46c-1,0-1.1.25-1.1,1V3.46c0,.75.15,1,1.1,1h3c1,0,1.11-.26,1.11-1V2.12c0-.75-.16-1-1.11-1Z"/></g></g></svg>