<svg xmlns="http://www.w3.org/2000/svg" viewBox="0 0 16 13.39"><g id="Layer_2" data-name="Layer 2"><g id="white-caps"><path d="M11.72,13.39h-5A4.28,4.28,0,0,1,3.56,12L.94,9.1a3.55,3.55,0,0,1,0-4.81L3.56,1.41A4.25,4.25,0,0,1,6.72,0h5A4.28,4.28,0,0,1,16,4.28V9.11A4.28,4.28,0,0,1,11.72,13.39Zm-5-12.27a3.17,3.17,0,0,0-2.33,1L1.76,5a2.45,2.45,0,0,0,0,3.31l2.62,2.89a3.19,3.19,0,0,0,2.34,1h5a3.17,3.17,0,0,0,3.16-3.16V4.28a3.17,3.17,0,0,0-3.16-3.16Z"/><path d="M9.84,9.09a.57.57,0,0,1-.4-.16L5.77,5.25a.56.56,0,0,1,.79-.79l3.67,3.68a.56.56,0,0,1,0,.79A.54.54,0,0,1,9.84,9.09Z"/><path d="M6.16,9.09a.54.54,0,0,1-.39-.16.56.56,0,0,1,0-.79L9.44,4.46a.57.57,0,0,1,.79,0,.56.56,0,0,1,0,.79L6.56,8.93A.57.57,0,0,1,6.16,9.09Z"/></g></g></svg>