<svg xmlns="http://www.w3.org/2000/svg" viewBox="0 0 16 16"><g id="Layer_2" data-name="Layer 2"><g id="white-caps"><path d="M0,8a.56.56,0,0,1,.56-.56A.57.57,0,0,1,1.12,8,6.88,6.88,0,1,0,8,1.12.57.57,0,0,1,7.44.56.56.56,0,0,1,8,0,8,8,0,1,1,0,8Z"/><path d="M6.86,7.65.76,1.55A.56.56,0,0,1,1.55.76l6.1,6.1a.56.56,0,0,1,0,.79.54.54,0,0,1-.39.16A.55.55,0,0,1,6.86,7.65Z"/><path d="M0,4.15V.56A.56.56,0,0,1,.56,0H4.15a.56.56,0,0,1,.56.56.57.57,0,0,1-.56.56h-3v3a.57.57,0,0,1-.56.56A.56.56,0,0,1,0,4.15Z"/></g></g></svg>