<svg xmlns="http://www.w3.org/2000/svg" viewBox="0 0 15.95 16"><g id="Layer_2" data-name="Layer 2"><g id="white-caps"><path d="M10.2,3.7a.71.71,0,0,1-.49-.2L7.86,1.65,6,3.5a.68.68,0,0,1-1-1L7.38.2a.68.68,0,0,1,1,0l2.33,2.33a.7.7,0,0,1,0,1A.71.71,0,0,1,10.2,3.7Z"/><path d="M7.86,10.7A.69.69,0,0,1,7.18,10V.74a.69.69,0,0,1,1.37,0V10A.69.69,0,0,1,7.86,10.7Z"/><path d="M8,16A7.63,7.63,0,0,1,0,8a.69.69,0,0,1,.68-.69A.69.69,0,0,1,1.37,8,6.31,6.31,0,0,0,8,14.63,6.31,6.31,0,0,0,14.58,8,.69.69,0,1,1,16,8,7.63,7.63,0,0,1,8,16Z"/></g></g></svg>