<svg xmlns="http://www.w3.org/2000/svg" viewBox="0 0 12.28 16"><g id="Layer_2" data-name="Layer 2"><g id="white-caps"><path d="M6.14,16A6.14,6.14,0,0,1,0,9.86V6.14a6.14,6.14,0,0,1,12.28,0V9.86A6.14,6.14,0,0,1,6.14,16Zm0-14.88a5,5,0,0,0-5,5V9.86a5,5,0,1,0,10,0V6.14A5,5,0,0,0,6.14,1.12Z" fill="#292d32"/><path d="M6.14,7.81A1.67,1.67,0,0,1,4.47,6.14V4.65a1.67,1.67,0,0,1,3.34,0V6.14A1.67,1.67,0,0,1,6.14,7.81Zm0-3.72a.57.57,0,0,0-.56.56V6.14a.57.57,0,0,0,.56.56.57.57,0,0,0,.56-.56V4.65A.57.57,0,0,0,6.14,4.09Z" fill="#292d32"/><path d="M6.14,4.09a.56.56,0,0,1-.56-.56v-3A.56.56,0,0,1,6.14,0,.57.57,0,0,1,6.7.56v3A.57.57,0,0,1,6.14,4.09Z" fill="#292d32"/></g></g></svg>