<svg xmlns="http://www.w3.org/2000/svg" viewBox="0 0 14.22 16"><g id="Layer_2" data-name="Layer 2"><g id="white-caps"><path d="M9.91,16H4.45a1.27,1.27,0,0,1-1.27-1.26V13.61a1.27,1.27,0,0,1,1.27-1.27H9.91a1.27,1.27,0,0,1,1.27,1.27v1.13A1.27,1.27,0,0,1,9.91,16ZM4.4,14.78H10V13.56H4.4Z"/><path d="M9.94,11.18H4.43A1.25,1.25,0,0,1,3.18,9.94V8.36l-1.94,0A1.24,1.24,0,0,1,.36,6.22L6.23.35A1.27,1.27,0,0,1,8,.35l5.86,5.87A1.24,1.24,0,0,1,13,8.34H11.2l0,1.6A1.25,1.25,0,0,1,9.94,11.18Zm-2.82-10L1.23,7.08l1.93,0A1.24,1.24,0,0,1,4.4,8.36V9.94l5.54,0,0-1.6A1.25,1.25,0,0,1,11.2,7.12H13Z"/></g></g></svg>