<svg xmlns="http://www.w3.org/2000/svg" viewBox="0 0 16 13.39"><g id="Layer_2" data-name="Layer 2"><g id="white-caps"><path d="M0,9.11V4.28A4.28,4.28,0,0,1,4.28,0h5a4.25,4.25,0,0,1,3.16,1.41l2.62,2.88a3.55,3.55,0,0,1,0,4.81L12.44,12a4.28,4.28,0,0,1-3.16,1.4h-5A4.28,4.28,0,0,1,0,9.11Zm4.28-8A3.17,3.17,0,0,0,1.12,4.28V9.11a3.17,3.17,0,0,0,3.16,3.16h5a3.19,3.19,0,0,0,2.34-1l2.62-2.89a2.45,2.45,0,0,0,0-3.31L11.61,2.15a3.17,3.17,0,0,0-2.33-1Z"/><path d="M6.16,9.09a.57.57,0,0,0,.4-.16l3.67-3.68a.56.56,0,1,0-.79-.79L5.77,8.14a.56.56,0,0,0,0,.79A.54.54,0,0,0,6.16,9.09Z"/><path d="M9.84,9.09a.54.54,0,0,0,.39-.16.56.56,0,0,0,0-.79L6.56,4.46a.57.57,0,0,0-.79,0,.56.56,0,0,0,0,.79L9.44,8.93A.57.57,0,0,0,9.84,9.09Z"/></g></g></svg>