<svg width="16" height="16" viewBox="0 0 16 16" fill="none" xmlns="http://www.w3.org/2000/svg">
<path d="M2 6.5C2.27333 6.5 2.5 6.27333 2.5 6V2.5H6C6.27333 2.5 6.5 2.27333 6.5 2C6.5 1.72667 6.27333 1.5 6 1.5H2C1.72667 1.5 1.5 1.72667 1.5 2V6C1.5 6.27333 1.72667 6.5 2 6.5Z" fill="black"/>
<path d="M10 14.5H14C14.2733 14.5 14.5 14.2733 14.5 14V10C14.5 9.72667 14.2733 9.5 14 9.5C13.7267 9.5 13.5 9.72667 13.5 10V13.5H10C9.72667 13.5 9.5 13.7267 9.5 14C9.5 14.2733 9.72667 14.5 10 14.5Z" fill="black"/>
<path d="M6.99996 7.50004C7.12662 7.50004 7.25329 7.45338 7.35329 7.35338C7.54662 7.16004 7.54662 6.84004 7.35329 6.64671L2.35329 1.64671C2.15996 1.45338 1.83996 1.45338 1.64662 1.64671C1.45329 1.84004 1.45329 2.16004 1.64662 2.35338L6.64662 7.35338C6.74662 7.45338 6.87329 7.50004 6.99996 7.50004Z" fill="black"/>
<path d="M14 14.5C14.1266 14.5 14.2533 14.4534 14.3533 14.3534C14.5466 14.16 14.5466 13.84 14.3533 13.6467L9.35329 8.64671C9.15996 8.45338 8.83996 8.45338 8.64662 8.64671C8.45329 8.84004 8.45329 9.16004 8.64662 9.35338L13.6466 14.3534C13.7466 14.4534 13.8733 14.5 14 14.5Z" fill="black"/>
</svg>
