<svg xmlns="http://www.w3.org/2000/svg" viewBox="0 0 14.69 16"><g id="Layer_2" data-name="Layer 2"><g id="white-caps"><path d="M7.34,16a2.78,2.78,0,0,1-1.41-.35L1.79,13.27C.11,12.13,0,12,0,10.18V5.83c0-1.78.1-2,1.75-3.08L5.92.34a3.11,3.11,0,0,1,2.82,0l4.15,2.4c1.69,1.13,1.8,1.31,1.8,3.09v4.34c0,1.78-.1,2-1.76,3.08l-4.17,2.4A2.8,2.8,0,0,1,7.34,16Zm0-14.87a1.71,1.71,0,0,0-.84.19L2.36,3.71c-1.22.83-1.22.83-1.22,2.12v4.34c0,1.29,0,1.29,1.25,2.14L6.5,14.68a2,2,0,0,0,1.69,0l4.14-2.4c1.22-.82,1.22-.82,1.22-2.11V5.83c0-1.29,0-1.29-1.26-2.14L8.19,1.32A1.72,1.72,0,0,0,7.34,1.13Z"/><path d="M7.34,10.82A2.82,2.82,0,1,1,10.16,8,2.82,2.82,0,0,1,7.34,10.82Zm0-4.51A1.7,1.7,0,1,0,9,8,1.69,1.69,0,0,0,7.34,6.31Z"/></g></g></svg>