<svg xmlns="http://www.w3.org/2000/svg" viewBox="0 0 16 15.79"><g id="Layer_2" data-name="Layer 2"><g id="white-caps"><path d="M13,10.93a.65.65,0,0,1-.48-.2.68.68,0,0,1,0-1L14.37,8,12.54,6.12a.69.69,0,0,1,0-1,.68.68,0,0,1,1,0L15.8,7.47a.67.67,0,0,1,0,1l-2.31,2.3A.63.63,0,0,1,13,10.93Z"/><path d="M15.26,8.62H6.09A.68.68,0,0,1,5.41,8a.69.69,0,0,1,.68-.68h9.17a.69.69,0,0,1,.68.68A.68.68,0,0,1,15.26,8.62Z"/><path d="M7.89,15.79A7.56,7.56,0,0,1,0,7.89,7.55,7.55,0,0,1,7.89,0a.69.69,0,0,1,.68.68.68.68,0,0,1-.68.67A6.26,6.26,0,0,0,1.35,7.89a6.26,6.26,0,0,0,6.54,6.54.68.68,0,1,1,0,1.36Z"/></g></g></svg>