<svg width="17" height="16" viewBox="0 0 17 16" fill="none" xmlns="http://www.w3.org/2000/svg">
<path d="M3.98739 15.3267C3.42395 15.3267 2.90785 15.1894 2.4391 14.9148C1.97035 14.6354 1.5963 14.2614 1.31694 13.7926C1.04232 13.3239 0.905007 12.8078 0.905007 12.2443C0.905007 11.6761 1.04232 11.1577 1.31694 10.6889C1.5963 10.2202 1.97035 9.84612 2.4391 9.56676C2.90785 9.28741 3.42395 9.14773 3.98739 9.14773H5.63512V6.29261H3.98739C3.42395 6.29261 2.90785 6.1553 2.4391 5.88068C1.97035 5.60133 1.5963 5.22964 1.31694 4.76562C1.04232 4.29688 0.905007 3.77841 0.905007 3.21023C0.905007 2.64205 1.04232 2.12595 1.31694 1.66193C1.5963 1.19318 1.97035 0.821496 2.4391 0.546875C2.90785 0.267518 3.42395 0.12784 3.98739 0.12784C4.55558 0.12784 5.07404 0.267518 5.54279 0.546875C6.01154 0.821496 6.38559 1.19318 6.66495 1.66193C6.94431 2.12595 7.08398 2.64205 7.08398 3.21023V4.84375H9.9391V3.21023C9.9391 2.64205 10.0764 2.12595 10.351 1.66193C10.6304 1.19318 11.0021 0.821496 11.4661 0.546875C11.9348 0.267518 12.4533 0.12784 13.0215 0.12784C13.5897 0.12784 14.1058 0.267518 14.5698 0.546875C15.0385 0.821496 15.4102 1.19318 15.6848 1.66193C15.9642 2.12595 16.1039 2.64205 16.1039 3.21023C16.1039 3.77841 15.9642 4.29688 15.6848 4.76562C15.4102 5.22964 15.0385 5.60133 14.5698 5.88068C14.1058 6.1553 13.5897 6.29261 13.0215 6.29261H11.388V9.14773H13.0215C13.5897 9.14773 14.1058 9.28741 14.5698 9.56676C15.0385 9.84612 15.4102 10.2202 15.6848 10.6889C15.9642 11.1577 16.1039 11.6761 16.1039 12.2443C16.1039 12.8078 15.9642 13.3239 15.6848 13.7926C15.4102 14.2614 15.0385 14.6354 14.5698 14.9148C14.1058 15.1894 13.5897 15.3267 13.0215 15.3267C12.4533 15.3267 11.9348 15.1894 11.4661 14.9148C11.0021 14.6354 10.6304 14.2614 10.351 13.7926C10.0764 13.3239 9.9391 12.8078 9.9391 12.2443V10.5966H7.08398V12.2443C7.08398 12.8078 6.94431 13.3239 6.66495 13.7926C6.38559 14.2614 6.01154 14.6354 5.54279 14.9148C5.07404 15.1894 4.55558 15.3267 3.98739 15.3267ZM3.98739 13.8778C4.29042 13.8778 4.56505 13.8045 4.81126 13.6577C5.0622 13.5109 5.26107 13.3144 5.40785 13.0682C5.55936 12.8172 5.63512 12.5426 5.63512 12.2443V10.5966H3.98739C3.6891 10.5966 3.41448 10.6723 3.16353 10.8239C2.91732 10.9706 2.72082 11.1695 2.57404 11.4205C2.42726 11.6667 2.35387 11.9413 2.35387 12.2443C2.35387 12.5426 2.42726 12.8172 2.57404 13.0682C2.72082 13.3144 2.91732 13.5109 3.16353 13.6577C3.41448 13.8045 3.6891 13.8778 3.98739 13.8778ZM3.98739 4.84375H5.63512V3.21023C5.63512 2.9072 5.55936 2.63258 5.40785 2.38636C5.26107 2.14015 5.0622 1.94366 4.81126 1.79688C4.56505 1.65009 4.29042 1.5767 3.98739 1.5767C3.6891 1.5767 3.41448 1.65009 3.16353 1.79688C2.91732 1.94366 2.72082 2.14015 2.57404 2.38636C2.42726 2.63258 2.35387 2.9072 2.35387 3.21023C2.35387 3.51326 2.42726 3.79025 2.57404 4.04119C2.72082 4.28741 2.91732 4.4839 3.16353 4.63068C3.41448 4.77273 3.6891 4.84375 3.98739 4.84375ZM11.388 4.84375H13.0215C13.3245 4.84375 13.5991 4.77273 13.8453 4.63068C14.0916 4.4839 14.2881 4.28741 14.4348 4.04119C14.5816 3.79025 14.655 3.51326 14.655 3.21023C14.655 2.9072 14.5816 2.63258 14.4348 2.38636C14.2881 2.14015 14.0916 1.94366 13.8453 1.79688C13.5991 1.65009 13.3245 1.5767 13.0215 1.5767C12.7185 1.5767 12.4415 1.65009 12.1905 1.79688C11.9443 1.94366 11.7478 2.14015 11.601 2.38636C11.459 2.63258 11.388 2.9072 11.388 3.21023V4.84375ZM13.0215 13.8778C13.3245 13.8778 13.5991 13.8045 13.8453 13.6577C14.0916 13.5109 14.2881 13.3144 14.4348 13.0682C14.5816 12.8172 14.655 12.5426 14.655 12.2443C14.655 11.9413 14.5816 11.6667 14.4348 11.4205C14.2881 11.1695 14.0916 10.9706 13.8453 10.8239C13.5991 10.6723 13.3245 10.5966 13.0215 10.5966H11.388V12.2443C11.388 12.5426 11.459 12.8172 11.601 13.0682C11.7478 13.3144 11.9443 13.5109 12.1905 13.6577C12.4415 13.8045 12.7185 13.8778 13.0215 13.8778ZM7.08398 9.14773H9.9391V6.29261H7.08398V9.14773Z" fill="black"/>
</svg>
