<svg width="17" height="13" viewBox="0 0 17 13" fill="none" xmlns="http://www.w3.org/2000/svg">
<path d="M0.5 8V12.8485H1.95455V8C1.95455 4.39273 4.89273 1.45455 8.5 1.45455C12.1073 1.45455 15.0455 4.39273 15.0455 8V12.8485H16.5V8C16.5 3.58788 12.9121 0 8.5 0C4.08788 0 0.5 3.58788 0.5 8Z" fill="black"/>
<path d="M8.49993 10.1819C7.29751 10.1819 6.31812 9.20254 6.31812 8.00012V6.06072C6.31812 4.8583 7.29751 3.87891 8.49993 3.87891C9.70236 3.87891 10.6818 4.8583 10.6818 6.06072V8.00012C10.6818 9.20254 9.70236 10.1819 8.49993 10.1819ZM8.49993 5.33345C8.10236 5.33345 7.77266 5.66315 7.77266 6.06072V8.00012C7.77266 8.39769 8.10236 8.72739 8.49993 8.72739C8.89751 8.72739 9.22721 8.39769 9.22721 8.00012V6.06072C9.22721 5.66315 8.89751 5.33345 8.49993 5.33345Z" fill="black"/>
<path d="M8.49998 5.33333C8.1024 5.33333 7.77271 5.00364 7.77271 4.60606V0.727273C7.77271 0.329697 8.1024 0 8.49998 0C8.89755 0 9.22725 0.329697 9.22725 0.727273V4.60606C9.22725 5.00364 8.89755 5.33333 8.49998 5.33333Z" fill="black"/>
</svg>
