<?xml version="1.0" encoding="utf-8"?><svg version="1.1" id="Layer_1" xmlns="http://www.w3.org/2000/svg" xmlns:xlink="http://www.w3.org/1999/xlink" x="0px" y="0px" viewBox="0 0 16 16" style="enable-background:new 0 0 16 16;" xml:space="preserve"><g id="Layer_2_1_"><g id="white-caps"><path d="M12.5,7.1c-0.3,0-0.6-0.3-0.6-0.6c0,0,0,0,0,0V5c0-2.3-0.7-3.9-3.9-3.9S4.1,2.7,4.1,5v1.2
			C4.2,6.5,4,6.8,3.7,6.9S3.1,6.7,3,6.4c0-0.1,0-0.2,0-0.3V5c0-2.2,0.5-5,5-5s5,2.9,5,5v1.5C13,6.8,12.8,7.1,12.5,7.1z"/><path d="M8,13.4c-1.3,0-2.4-1.1-2.4-2.4c0-1.3,1.1-2.4,2.4-2.4s2.4,1.1,2.4,2.4c0,0,0,0,0,0
			C10.4,12.3,9.3,13.4,8,13.4z M8,9.7c-0.7,0-1.3,0.6-1.3,1.3s0.6,1.3,1.3,1.3c0.7,0,1.3-0.6,1.3-1.3C9.3,10.3,8.7,9.7,8,9.7
			C8,9.7,8,9.7,8,9.7z"/><path d="M11.7,16H4.3C1,16,0,15,0,11.7v-1.5C0,7,1,6,4.3,6h7.4C15,6,16,7,16,10.2v1.5C16,15,15,16,11.7,16z M4.3,7.1
			c-2.7,0-3.2,0.5-3.2,3.2v1.5c0,2.7,0.5,3.2,3.2,3.2h7.4c2.7,0,3.2-0.5,3.2-3.2v-1.5c0-2.7-0.5-3.2-3.2-3.2L4.3,7.1z"/></g></g></svg>