<svg xmlns="http://www.w3.org/2000/svg" viewBox="0 0 16 16"><g id="Layer_2" data-name="Layer 2"><g id="white-caps"><path d="M12.46,7.07a.57.57,0,0,1-.56-.56V5c0-2.34-.66-3.9-3.9-3.9S4.09,2.68,4.09,5V6.51a.56.56,0,0,1-.56.56A.57.57,0,0,1,3,6.51V5c0-2.15.52-5,5-5s5,2.87,5,5V6.51A.56.56,0,0,1,12.46,7.07Z"/><path d="M13,6C12.68,6,12.31,6,11.9,6H4.09C3.68,6,3.31,6,3,6c-2.25.27-3,1.41-3,4.21v1.49C0,15,1,16,4.27,16h7.45C15,16,16,15,16,11.72V10.23C16,7.43,15.27,6.29,13,6Zm1.86,5.7c0,2.66-.5,3.17-3.16,3.17H4.27c-2.66,0-3.16-.51-3.16-3.17V10.23c0-2.65.5-3.16,3.16-3.16h7.45c2.66,0,3.16.51,3.16,3.16Z"/><path d="M11.72,7.07H4.27c-2.66,0-3.16.51-3.16,3.16v1.49c0,2.66.5,3.17,3.16,3.17h7.45c2.66,0,3.16-.51,3.16-3.17V10.23C14.88,7.58,14.38,7.07,11.72,7.07ZM8,13.4A2.42,2.42,0,1,1,10.41,11,2.42,2.42,0,0,1,8,13.4Z"/><path d="M9.3,11A1.31,1.31,0,1,1,8,9.68,1.31,1.31,0,0,1,9.3,11Z"/></g></g></svg>