<svg xmlns="http://www.w3.org/2000/svg" viewBox="0 0 15.84 16"><g id="Layer_2" data-name="Layer 2"><g id="white-caps"><path d="M7.81,10.62a.7.7,0,0,1-.48-.19L5,8.11a.68.68,0,0,1,1-1L7.81,9,9.65,7.15a.68.68,0,0,1,1,1L8.29,10.43A.7.7,0,0,1,7.81,10.62Z"/><path d="M7.81,10.56a.69.69,0,0,1-.68-.68V.68a.68.68,0,1,1,1.36,0v9.2A.69.69,0,0,1,7.81,10.56Z"/><path d="M7.92,16A7.58,7.58,0,0,1,0,8.08.69.69,0,0,1,.68,7.4a.69.69,0,0,1,.68.68,6.27,6.27,0,0,0,6.56,6.56,6.27,6.27,0,0,0,6.56-6.56.68.68,0,0,1,1.36,0A7.58,7.58,0,0,1,7.92,16Z"/></g></g></svg>