<svg xmlns="http://www.w3.org/2000/svg" viewBox="0 0 13.51 14.29"><g id="Layer_2" data-name="Layer 2"><g id="white-caps"><path d="M3.65,14.29a3.45,3.45,0,0,1-1.74-.45A4.37,4.37,0,0,1,0,9.82V4.47a4.37,4.37,0,0,1,1.91-4A4.38,4.38,0,0,1,6.35.81L11,3.48a4.36,4.36,0,0,1,2.53,3.66A4.36,4.36,0,0,1,11,10.8L6.35,13.47A5.41,5.41,0,0,1,3.65,14.29Zm0-12.79a2,2,0,0,0-1,.25A3,3,0,0,0,1.5,4.47V9.81a3,3,0,0,0,1.16,2.72,3,3,0,0,0,2.94-.36L10.23,9.5A3,3,0,0,0,12,7.14a3,3,0,0,0-1.78-2.36L5.6,2.11A4,4,0,0,0,3.65,1.5Z"/></g></g></svg>