<svg xmlns="http://www.w3.org/2000/svg" viewBox="0 0 16 15.99"><g id="Layer_2" data-name="Layer 2"><g id="white-caps"><path d="M10.23,16H5.76C1.73,16,0,14.27,0,10.23V5.76C0,1.73,1.73,0,5.76,0h4.47C14.27,0,16,1.73,16,5.76v4.47C16,14.27,14.27,16,10.23,16ZM5.76,1.12c-3.42,0-4.64,1.22-4.64,4.64v4.47c0,3.43,1.22,4.65,4.64,4.65h4.47c3.43,0,4.65-1.22,4.65-4.65V5.76c0-3.42-1.22-4.64-4.65-4.64Z"/><path d="M5.76,7.07A2,2,0,1,1,7.81,5,2,2,0,0,1,5.76,7.07Zm0-3A.93.93,0,1,0,6.69,5,.93.93,0,0,0,5.76,4.09Z"/><path d="M1.06,13.72a.56.56,0,0,1-.31-1l3.67-2.46a2.24,2.24,0,0,1,2.64.14l.24.22a1.1,1.1,0,0,0,1.37,0l3.1-2.66a2.23,2.23,0,0,1,2.82,0l1.22,1a.55.55,0,0,1,.06.78.57.57,0,0,1-.79.06l-1.21-1a1.11,1.11,0,0,0-1.38,0l-3.1,2.66a2.23,2.23,0,0,1-2.82,0l-.25-.22A1.1,1.1,0,0,0,5,11.17L1.37,13.63A.61.61,0,0,1,1.06,13.72Z"/></g></g></svg>