<svg width="16" height="16" viewBox="0 0 16 16" fill="none" xmlns="http://www.w3.org/2000/svg">
<path d="M8 15.1666C4.96667 15.1666 2.5 12.6999 2.5 9.66658V6.33325C2.5 3.29992 4.96667 0.833252 8 0.833252C11.0333 0.833252 13.5 3.29992 13.5 6.33325V9.66658C13.5 12.6999 11.0333 15.1666 8 15.1666ZM8 1.83325C5.52 1.83325 3.5 3.85325 3.5 6.33325V9.66658C3.5 12.1466 5.52 14.1666 8 14.1666C10.48 14.1666 12.5 12.1466 12.5 9.66658V6.33325C12.5 3.85325 10.48 1.83325 8 1.83325Z" fill="black"/>
<path d="M8 7.83333C7.17333 7.83333 6.5 7.16 6.5 6.33333V5C6.5 4.17333 7.17333 3.5 8 3.5C8.82667 3.5 9.5 4.17333 9.5 5V6.33333C9.5 7.16 8.82667 7.83333 8 7.83333ZM8 4.5C7.72667 4.5 7.5 4.72667 7.5 5V6.33333C7.5 6.60667 7.72667 6.83333 8 6.83333C8.27333 6.83333 8.5 6.60667 8.5 6.33333V5C8.5 4.72667 8.27333 4.5 8 4.5Z" fill="black"/>
<path d="M8 4.49992C7.72667 4.49992 7.5 4.27325 7.5 3.99992V1.33325C7.5 1.05992 7.72667 0.833252 8 0.833252C8.27333 0.833252 8.5 1.05992 8.5 1.33325V3.99992C8.5 4.27325 8.27333 4.49992 8 4.49992Z" fill="black"/>
<path d="M8 8H12.5V6C12.5 2.5 10 1.5 8 1.5V3.5C8 3.5 9 4 9 4.5V6.5C9 6.9 8.33333 7.33333 8 7.5V8Z" fill="url(#paint0_linear_442_5556)"/>
<defs>
<linearGradient id="paint0_linear_442_5556" x1="10" y1="1.5" x2="10" y2="8" gradientUnits="userSpaceOnUse">
<stop stop-opacity="0.5"/>
<stop offset="1" stop-opacity="0"/>
</linearGradient>
</defs>
</svg>
