<svg xmlns="http://www.w3.org/2000/svg" viewBox="0 0 12.28 15.99"><g id="Layer_2" data-name="Layer 2"><g id="white-caps"><path d="M6.25,0A.56.56,0,0,1,6.7.55v.6a5,5,0,0,1,4.46,5V9.85a5,5,0,1,1-10,0V6.13a5,5,0,0,1,4.46-5V.55A.56.56,0,0,1,6,0,6.13,6.13,0,0,0,0,6.13V9.85a6.14,6.14,0,0,0,12.28,0V6.13A6.13,6.13,0,0,0,6.25,0Z"/><path d="M11.16,6.13V9.85a5,5,0,1,1-10,0V6.13a5,5,0,0,1,4.46-5V3.07A1.67,1.67,0,0,0,4.47,4.64V6.13a1.67,1.67,0,1,0,3.34,0V4.64A1.67,1.67,0,0,0,6.7,3.07V1.15A5,5,0,0,1,11.16,6.13Z"/><path d="M6.7,4.64V6.13a.56.56,0,1,1-1.12,0V4.64a.56.56,0,1,1,1.12,0Z"/></g></g></svg>