<svg xmlns="http://www.w3.org/2000/svg" viewBox="0 0 13.65 16"><g id="Layer_2" data-name="Layer 2"><g id="white-caps"><path d="M13.09,8.16a.57.57,0,0,1-.56-.56V5.13a1.67,1.67,0,0,0-1.67-1.67H.56A.56.56,0,0,1,0,2.9a.57.57,0,0,1,.56-.56h10.3a2.79,2.79,0,0,1,2.79,2.79V7.6A.55.55,0,0,1,13.09,8.16Z"/><path d="M2.91,5.82a.52.52,0,0,1-.39-.17L.16,3.3A.55.55,0,0,1,0,2.91a.59.59,0,0,1,.16-.4L2.52.16a.56.56,0,0,1,.78,0A.56.56,0,0,1,3.3,1l-1.95,2,1.95,2a.54.54,0,0,1,0,.78A.56.56,0,0,1,2.91,5.82Z"/><path d="M13.09,13.65H2.79A2.79,2.79,0,0,1,0,10.86V8.39a.56.56,0,0,1,.56-.56.57.57,0,0,1,.56.56v2.47a1.67,1.67,0,0,0,1.67,1.67h10.3a.56.56,0,0,1,0,1.12Z"/><path d="M10.74,16a.54.54,0,0,1-.39-.16.56.56,0,0,1,0-.79l2-2-2-2a.56.56,0,0,1,0-.79.56.56,0,0,1,.78,0l2.36,2.36a.56.56,0,0,1,0,.78l-2.36,2.36A.51.51,0,0,1,10.74,16Z"/></g></g></svg>